<mxfile host="app.diagrams.net" modified="2024-01-02T08:07:48.115Z" agent="Mozilla/5.0 (Windows NT 10.0; Win64; x64) AppleWebKit/537.36 (KHTML, like Gecko) Chrome/120.0.0.0 Safari/537.36" etag="8Q1bGJrRqNpjkB1tsShP" version="22.1.16" type="device">
  <diagram id="jbVRNizJcDCQ8yqokmnY" name="第 1 页">
    <mxGraphModel dx="2049" dy="1054" grid="1" gridSize="10" guides="1" tooltips="1" connect="1" arrows="1" fold="1" page="1" pageScale="1" pageWidth="2336" pageHeight="1654" math="0" shadow="0">
      <root>
        <mxCell id="0" />
        <mxCell id="1" parent="0" />
        <mxCell id="_HgupfXg40LZJNDoUt4P-112" value="" style="shape=label;verticalLabelPosition=bottom;labelBackgroundColor=default;verticalAlign=top;aspect=fixed;imageAspect=0;image=data:image/png,iVBORw0KGgoAAAANSUhEUgAAAsYAAAHaCAYAAAADlI/IAAAAAXNSR0IArs4c6QAAAARnQU1BAACxjwv8YQUAAAAJcEhZcwAADsMAAA7DAcdvqGQAAP+lSURBVHhe7J0HYF1Hlf7HlmTLRbbce++9d8dxqtOcnkAKhCQkbFhggSzLwhba/llqEgiwLBBKYAMJEEKqne7uuPfee+9NxfL//M59R35WJFuypfeepPPJ43vfLXPnzp05882ZM2dqnBGECkRBQUGoUaOGBh7FtiTEXwsudP2lIi8vL2RkZMR+XTosvbxHfn5+qFWrVuxMySj6jtxXs2ZNDeBC5wHXAHs25+Lvs2NFcfr06ZCWlhb7VfEgTRZIU3p6uqYxPq3nA9eBoteWdPxCsOeSp6Ql/tiFYPeUlLfnQ/w9F7r/YuIvK+wZRfOR4+yfLz+KliF+2/XFpdvy154Z/37xz7vYbwqKfkP7bWm7UH4Wvd/A/ZyzsnIh8D6E0l5fFCWlw8B5217onUoLe6Z9C3C+NBjsPktTSffYdUX3HQ6HI1VQoS0uDQkC24TfhYQgghKBzDa+gS0PECdkBtgzSkOKrXGzRvF8OHXqlD6DUFrCae/IMwCNaHwjVzQPOE/8li7SxDV2nd3LbzsfHx/35ubmhpycnISS4vi08lzy3tJ4PnCP5bu958mTJ/V30fe3uOz6C4F7gOUpuFB6DNxj5busiL/nQvfbedJV2rSVFpZPvAco+gz26TwWl592zMqQ3cdv0mzpjq83lDsDx7kn/rtxD7/tevs+ZUXR++y3pa2494mHXU+67Fq23F9akku+8azSXm/fgOeU9v05T+A5loeXCuKz9+Z7sbW0lQRkid3H9nzX27vZFlwofofD4UgkKlxjXBQIQWtMi4KkmGBla6E8YHHbtiJA3DQOvB9bIwfnA4SM9HBPfNrYN8Sn245f6B24Lj4+EB8PKHo+EbDGkxC/X1pYvhaX9pLep7TvSbkj7gtda9+MQNwllefSoqzfobRl60KAvBlxi09DcWmJf2ZZ0wu4hzisbnA/weKK34L4Y6VF0bjij10s4tN6KbhQOjgP4q+hnJVErI1Mcp+V2UtNIyjufYtLm6Gs+Vv0+rLe73A4HBWNS29dy4jzkQgTkGzLo+GvDCA/SpMnZYXlYao1OqTH0lTe6SsprvLOA8hKeaa9rPGU13PLYkZUHs8sbd2/2GcVd195pDtZOJ+2mfJHfto15fWexZVrfpdX/JX5ezgcjuqBhGuMHQ6Hw+FwOByOVET1UMs6HA6Hw+FwOBwXgBNjh8PhcDgcDodD4MTY4XA4HA6Hw+EQODF2OBwOh8PhcDgE1Wjync8xdDgcDofD4UgdpJ6nmmpEjMt3cQSHw+FwOBwOx8UCUpx6xNhNKRwOh8PhcDgcDkGV1BjzSraCk/12jbHD4XA4HA5H6qBGjWjV32g/NRZ3q5LEmOVSbVlpw5kzvh6/w+FwOBwOR2oAIhwRY4Kt6JnsFTKrrMY4Pz9f989msGuMHQ6Hw+FwOFID8LMaOsIPIMbnWwo/UajyGmNCZFZR5V7T4XA4HA6Ho5LCOFrEzyDGFpIJn3zncDgcDofD4XAInBg7HA6Hw+FwOBwCJ8YOh8PhcDgcDofAibHD4XA4HA6HwyHwyXcOhyOlQc2tKfUYUaX1ma3OZnZUKMjiQrEZ7fC/fIK44w6Hw3GxSM3Jd06MHQ5HSoO6XKtWrZAv27S0miEvN18EZ1rsrKOiYLJTOyTSTmWkp4fcvDz9BhBjzp9hx0Wrw+G4KDgxThicGDscVQc5ublKzqjHGRkZqi02Qeoof5jcRIZa83DmTEHIrJOpmnu+A074TcY6HA7HxcGJccLgxNjhqBo4cfJEmD37g7Bq5cpw7PixkJ8XaYurntRKHSAzaZiQodZA1atXN/Tu0ysMHTJU9utpBwW56nA4HBcPJ8YJgxNjh6NqYO/eveHpp58OH8yZE7Kzs6VeCzGukSaC000pKgLxzQH7mLCcOnUqHJdOyeDBg8KnPvWp0L59ez1fo2aNcMY19w6H46LhxDhhcGLscFQB1Ahh967d4dv//d8hR8jZxz/+8dCqdWs9dcaVlRUGGiWW1Ed2QowPHjwYnnvu/+RYXvjs5z4XunTuHHJycoQYSwMm1zgcDsfFwYlxwuDEuPqiQBiTfPXo29ek0UarVXYWFa8No5JShqgqxGvgLHFznn2tzHKNDTHHX2vAowJ3kkaFbGrUkPtheqUtonqP/Mf1uj2jaQOaBjmGZjUtLf2cd7c8OX2a+iAHSvu8JGLHjh3ha1/7WmjarFn40j//c2jRooUcJfEERyJw4sSJ8NRTT4ZNmzaGxx9/PHTp0kXLuJb7WLlzOByOsiNqq1ONGCf36Q5HeUK4UkZGLZ0YRINNZVNiKBUvPT291EGrqPxH45+Xl6edLGCVVQmy7POcwoosz4Dcni6Qa2W/pIqdLveQxpqyNXJbIPFDYotLS7FBro3I9Bl9LsdIixJfCVG6JA8k/foMARpAQoGQYrlRj1UGpGdkqDcK8tM6HI7EQuuSlG20xJQtJcWydVLscDiqIpwYO6oOpJ2m8YbMRr9xJhWR41M5p0odIlJdoKSMoWTVQgsxg/Ry3AioaWONOKuGWf5BVrm+OJC2UydPhrzcXCXyaelpSqRzJd2nShl4R0g4ZJE04bUB0ku62Z6U+AHpJkBmMjMzz5Iauc9JjcPhcDgcH4YTY0eVAj5WIYBKApUoRqTVjpUqxLSTaHIhkUJzlcjWrFFTNWUcyxeCCwnlegiuQgiuuhOrWUPPFweuh2wTINLqZUHu4zja5NIEruVe0ohZBOlFa8zzNX2yhbSnp2dIWtOizoKklXTSUeA+nzTlcDgcDseH4cTYUaUA0cwVEquaUSGIderUUbKK+UGpg5DMWrVrKfFFQ6tkE1IqxwsKYr5dJW6IJiS5lppGRBOWoucKmeZ8MYCOosWFqObjYUHuJ31KyMsQINaqtZa0pEm62EfrzDujHSat/JYLNA+UUAtJzqydqWl1WuxwOBwOx4fhk+8cVQvyvdGgYrKwfcf2sGP7Di0DqlEtJRo2bBjatW8fagv5hOxCQnNyc8LOHTv1fKtWrfTY/v371Z1Y06ZNQxMJkGYYJ+YRastbAiiJppU+cOBA2Lx5czhNGY1Olwr1s7JChw4dwtEjR8Lhw4dDy1YtQ4OsBhrX4SOHQ6eOncLxE8fD4UOHQ7NmzfQazC7atWsv5Li22u2W5XnJwh7J3y9/+cuhdevW4Quf/7zmvfZIKkXqqwaOHz8ennzqibB2zZrwH//xH+quTW2Mpcw6HA7HxcM4WsTPUBRZSCacGBeL6D7HpeLDea5HKqrIySfD7IFKdUiI4Ly5c8OKFSvCrl27Qr169dXDwYYNG4RQdgzNmzcXYrsv7Ny5M3Tu3DnUr19foyBpI0cODyNHjQoNGzRQM4TMOnWUgD7//PNqv/vAJx4IderUDbNmzgzvvvtuuOrqq8NouZ7nUp0g4dj98ttKkWqStbKfXTwB8r548ZLwwZwPwgEh2VyD6cf8+fOUzHbr1i0cO3YsbNu2LbRt21YJOz5lib9r167hiiuuDDt37QwrV65UUtyjR/cwV955+vTp4f777w9b5T4I/ID+/cNrr72m+x/5yEeUyPN8nldw5rRqrNFy5+ZF5iKpVPZTiRiTZ/aNyTu+A8fQ4JcGdh9b8pj7KAPEw3GTV2Yjz3ETz1HZiZDo7+PE2FHVgCKCJc6pd9Rh6hr1Cn9BjktDJBdEbsXkGTmKFCteXkTXpBoxTvu6ILZfZUBjYo2PFnbdj50sDfRjRiTGw8WG4lHymfIBAo9Khba3dmamakl3794jwq9ASfDu3btD3bp1Q+3atcPhw0fC9u07QpMmTUUwZgjxzA6DBg0KvXv3Ck2bNNGyg5nCESHFs2bNCqtXrw6NGzcO/fr2C3v27AlTp0xRrTEmC5BWAhpmBC3PB1oGCys5lR+NNsvpFghRrR2Zesizjxw5Gg4dOqzPWrdufcjKypJ01tPje/bs1evwXEHae/fuI+kcrOQeM46jes0eIc05Ye3adeGdd94JPXv2Cln1s0J96RCsXbtW4lwX2rRpGzp27KTviiDKyEhX04vTQsYje+l0fV8jY6mA4ydOhLffflvzY9TIkbq9UBmrSGzfvl07WKTj0KFDYenSpdp5YvERvnVJIH/Xr18fpk2bpt9j+fLlYdWqVVqm1gjh5NzChQvDxo0bw9atW/UY5+jI0fHh+i1btoQG0lmzTlyiAFGfPXuWdt4uv/xyLedaplOonDgcZQEkjTJsso7/UXrQdjD/wsPFB9oVOhyMShbmL/ldrHw0jhb7RXsZC8mEE+NikdyPUiWQjCyUZ+rEs2hXNaEQjVdfe03ITESKISBWJiCTkBTIJqQZ8ogmdsyY0So0mUBXq1ZGWL1qdfjtb3+rpPimiRNDthCD9959N+zdtzcMGzZMyRLEBbLUqnUrtVMmfib/aS9Zttj1aida/kxDiBBGi0u6XnrpJdVsY1qxZMkS1SYSMNWAHLGPOQTvA0m+5pprdAtp2bdvn8bJPiRq06ZNqm2GwBD3yy+/rPdzDNLOu/LumJqwvG99CaSX9JwWApdsoRSPVCLG5NHMmTOFJM5WMxby8P3331fC2kQ6Uucjx/gChkQ/++yzWs4YyaDMQH4/+OADHXng+8+bN09HJngGIwWUhWXLlimJ5lvyXLTniYQTY0dVAyMelF+Ve0zYrhnJ22jC8lmtpYeyBzwm6QiY5DNaeea3WJv7YTgxThj4AATL4Gg/drJU4OLkfpjKD0p64htO++5o6PjmEN+5c+ep2UH//v1Vy3fdddeF22+/vZDIsM/wMGQFYsx1CElIK5FATCBnEMsRI4YreV26bGkYd9k4vRZShIYPggR5bt6iuVZ0BAJQEoxwkP3Itvds2UKQQNYhv1deeaUSbTSSgwcPDg8++KASIXDzzTfrMa6FBI8fP17TDqH69a9/rVri9957T0kWxBdN9tSpU8OUKVPC4sWLlWBDsniPP/7xj2pusXPnjtC6VSs10yisL5KeVEIqEWO+I6YqENsBAwaoxp58hbRi4sLiI3TG0DwxAZTAb/KVLZMiR48eHfr27RuGDx+uYdSoUaF79+5aXu+8806NEztxFtH46Ec/qt+Z7861lI0ePXpE5TKBcGLsqGpA7gLKMfNBUBggUyjSxh88XFyIfPkLuYwRYmRbXn6edj4+DONosV+0QbGQTDgxLhZnP5TjYkEGFpOJfJPYbkUAgQchlRJAlVMN64qVK4RgXKFEGBIzYsSIMHbsWCWPaOGuuuoqbewhkBDkQYMGCImpraQMUvzWm2+GmbNmCqHpFwYNHKj3bBLyMm7cOCXFjYQMZ9Wvr5rabdu3q20yv0kLhMjSYmVSFx6RfbNPRTOI9hHyg/0v5AsSjlYYMsbzRgopRFO4YMECJYcQFIbUjXzxLDTHkGJ+Q8C4jvNXX311uOmmm/TdIO5oLydMmBA6dewY+vXvF5rJMyHsIN6uNRWQKsQYbf2bUg7+8pe/aCcIcwc0vnxzjvNdIMlz5sxRLTKaZbTBmOxAdvk+pJ1OD9fTYaNsEhfx8JsGBFJMOeQbcQ9lg3OUgyFDhuj3SzScGDuqGqhb6sZS5CN1i7qHPGaOB/seLi2o56XcvHDy1CnN7zp166iZxYdhHC32C34QC8mET74rFk6MLx1kYDGZyDeJ7VYIJH7MKfjm9Fxff/2N8PSPnw79+w/Q02hV0dKhtYu0yXOVODLBCG0rWrpPfvJhNaHARGLGjBlKZLjuI3Ju3GWXKeFB+3fLLbeoKQK94ZxTOWrGgC0yZLR3796qVWzZsqWWQTxVUNVEXsh5TDRqaRoR0JCo//mf/1HNIde+8MILqomGwEPe58+fr6SIZ02ePFlJ75e+9CUlWmgq0VSjOeZ9IFVovj/zmc+Efv366dA8z7r22mtDmzZtlMhhWvGP//iPoUFDbJDrRROpJGEMI2q90ZxKDaTK5DtI7w9/+MPwxhtvhIHSOYIc8u3QDpP3dGjobFlHBUJsJi98OzocnHv11Vf1W/MteBfKAGWPMsU3P3r0qGr6sSWmnPIMNP2NGjUK//mf/6nXJBqkzyffOaoS6HhSr+iY4pLzrDRJrRGzyghpwkRuSRss7V0tkYVMbu/Rs6cqYD4M42gRV0DeWUgmqjcxlg+I31uIA9obGq9I4KPRi13juChQrCjb9Mr5Bqwid/zYMTVVQEuqpDDWuNp3Ko+iyHenQmLbBDF+7dXXwq9+9YwIwaVa2Xg2GjDbh6zw/Xk2JPaRRx4Jd3/kLnVpBhlGwwwBxca4T58+SnYgzHh9gNgwtE0PGc0eQGv70EMPhQFCnh599JEwcsRI1a7xfoCyhVaCskZaSQNkFvIHOeI4eUMaIcKkj7Tym+eQfxCwr371q0qemKz35z//WSd1DR06VDWZv/jFL/Saf/mXf9H3YlAIjTFphuBhesH9DRs2IEWarlRFMogxecb3Ir/tO9GI/uY3v9H8/dznPqemDnwXTGAguh07dgz33HOPjkrw/SDGUVrPgroAMcaG+N///d+1c8YziBOvIQ8//LCayvzbv/2bjhhAQikfTz/9tHZwOM43TjScGDuqGo4cPRK+8pWvqqkZyM+XNkGX2edXxcmW6gDyMj09rdB8rFXrVuH//b9vh77Sfn4YTowThtITYyFjcg6tzw9++EPt3aAJOnHipJCl2rGLHBcHIRdStvF4QOOOJowh4yuuvDLce+89obbkr5EO+07lVRR5Hu7SIMd82zVr1obp02eobSjneC7PgpTwm31IMWQSoluvXt1QO7N2OCZpPnT4UNi+bXv4qpASyDJ2v62EpB08cECJ81133x06CFF49vfPhkMHD4Wrrr4qrFq5SglMx04d1SsEGmVzg4ZRBZ0xhAbPj7xjHNaJWWgKIa5Gji19gHshXdibokmGFEOaIdOYYSBIIDBorclTeunYJ0Ocf/SjHykxhtiTBzz7bkk35iJOjD8MygOBb4BGCfMIzFkYOYAI08FAg0tnhW/317/+VYnxFVdcod+Jjla7du3CZZddpnbHBr7L3/72NyXSaIOx7eZaRgUg3nxb7NcxHSF+bM4pC4wokBbINNrqRMOJsaOqAeXGU089pcoH5m80ZL5JBcuV6oLTBfmaiyiJmPuyaPGi8Pjj/xxGSrv1YTgxThhKS4w5gqstSNSTTzyh/miZ4IJWj6V0HZcCvDJEPlvlP7XVhRBAPB999FElebgGw/ODkb/yKIo02OqCTL4/mmNsyHDJ9sorr6pJAs+w57CFmEBw0MTee++9qqnDrCDy6Svlp2YNJfRf/cpXdSLUgw89FBo3biQE56Xw8st/D9/4+jeUVH/ve99T8vT5L3w+NGzQUAkc8aK1xh0bFR07XiYgoDG2cgnYh2RPmjRJiStphxAB7uM6jkG2ILgQLgg/NsYQN/IW21U8GUCmsR+GOGOPStxf+9rXwn333adE+q233grf/e53lTjXTIuaglRGsogxeU6nAzLMsGunTp1UK08ZYpIcfqbJW0gtkxkhizfeeKN6OOF+TCuK2gRTHhYtWqSeKeiw8JvvjK9qW62QezGPAXRg7DdmNp/85Ce1fCYaTowdVQ1btm4J3/nv72i9/uznPquuLYFUN4GT40uBiEXBGZWNjE5Omjw5fOtb3wrDih3tSk1iXK0n33EOLSDEeMb06aGHND4QJLR4ECYPlxIyIl/CkpcE07hlNchSYmcEAgKixJgPFEmlSwLkD8JBxaJibt6yJRw7ekxJB8PfDF8jDHv27KmBY5ANtKukhV7ukaOH1eyD0YM6mZHpxPtT3g8dOnYM/fv1k7gy1J533dp1qvnDXzJD3Tx7zOgxoWmzpkqo+VMNdYZ0ACDqEGPtBERlknxC40j8DLNjstGrVy/tPFAOSStbSBEBrSR5iVaR65lox2QtJoRBqg8ePKhpgCQzGQzyBYlBowzxIl+4D68c5H+yhU9pkIzJd8gFQEeDPEUTjL02foaZWMe3I48xe8CEBrJMvkNwIb50VshryhaTM+OBhoqyRieH88SLJp/vTGeFwHe3ckBHnQ4ZpJtvyXNAIr8d7+KT7xxVCdQjPPM0lvo5etToQkVEjdjInoeLDwaUNMjDddJWTpA2p2Xc6NlZRPeYKCkunmSg2k++4/UPC4H44Q9+EG67/fYwYvhwOVqxDW/1APl9Ns8hat/93vdCn969w2c/+1nVaPJdyH8a+fIqhsSCphe3bAxxv/zKK+HUyZPSuEflATLKcwmUEfvN8xGOXHP6dJ6SEzTITKCjcn/t618LY8deFh577DH1OPH3l18Or736qk6Cw2Tie9/9Xti1e1f43Gc/p6SGuKNyZx0z7KzRkKMNjlx4QVIZasLmFB+2aCYhsPoesXu4Brtmi4+8Ip3sQ5ogTAz1Y7sKuYL0osFGA41Zxq233lroUYH78KQB0QJojOVBup+qSObkO2x/+Q48kw4TJik0pg888IASWAgj12DjDdlFUw9pBJhCQH7RLBuJJS4CkyOxV8a2nMbDyh3XWVnkN4GOAMScFQuJKxlwjbGjqoEO7fe//31VNjARmQ5rhNRXFqQ+orYfxcwzv/51eOON18PXv/Z1ba8+DONoUTuEDLSQTFT7UsBHgRyhNTaSIM2Xbh2XAiMvUSBrWTyChh+SR+MvmS8VIJqIh9nDJQMyIRu0sxAKNG5oGVkpLiurvmpdIYVXXnmF2hHT4Hfv3k1IVyslpV27dVW7zjFjx+rs/xZCMCkbEBcW7WBomxchrWh/eQ+Qm5MbcoUkcQ2EAa2wku7akfacSk4cFCvem/O5uTl6HEKFPTJD7hAfiPjEiTcpgcU+9ciRw0JE2mkajx49Ih2KrHD11Vfpe/B+PXv2EPJ7S7jpphuVrKEJZlIdgr5fv7763LXr1uqzeC6aTjTOmv/lkeflhnPLSxSKQ0nHyx8QW0gg3x05wTcl/+iI4B2ETg1aZEwuMLfBFhjtNuEPf/hD+P3vf68jCVZOiIPvwHem80RZw1sInRnIL9pYvFgQ+M03pmxQbjE94ptRTh0Ox6XD6rTVT0d5gqXt88Opk6e0mYlamqLyPXGyvKyo9n6M+WAQtmnTpgb81OJGKaJXqfvRKg8sH2vocP60adND8+YtwsiRo1QzSt6jdaoh5DjK80sH39s+dnMhIGjwTuWcDJ27dAk3CeEcf8X4MEBIb2S+cCo89PBDoY8QZzqo2dkN1dSje7duYcJ1E0J2w2w1idi1c5cOobcXojRg4AAllBAiNIl9+vYJmbUzVQuIuQiu1CA+0btFpiJWBgm4saHUYcdMB6yhPA/Sk5N7StLRK9xyy81h+IgRYfDgQeHkyRNCYveHO++8I1whZL6g4LRqg+sLye/YoX24fPzlagrUvHkzJdZTprwfFixcEPbv26d+I7GFXr9hfdi6dUsYPmyo3NsibJDfvFPbNq1DBtpyaRTi6wnkmW1FAaKOlpRvlCaZTv6cteeP0qHmJrINZ2pI5+VEePstTClwXxb5Zua6RIN0YiphJi80phzjXSDQdGJIN7bfdj2/6figlTKQt3SWMKPABhktCuYUTLwjsCQ5x/FbzXGIMddCzq2DpWU8gXBTCkdVA5PBmTPAyM5l48ZFMkeReNlyPiAvrA0xGV2W+m/3IqeQH/EwOV/+8oT4aujcCLw60TZefdU1oXXrNoXn4oO9F2DfQjJR7TXGjsSAgm+FP4IUfP1p2/IDC3ww6Q7NKF4EsDXu1bNn6CoE48Tx47oUstQ8nbzGYhwjR45Qkok96wsvvBCtZCY9XSYHkjarqJCSo0eOqhaQe5ms2bbN2VXjIDzsq/b7nHc9C45yDXFDDBHQmzdvUntsXLy1FyK1VzoREHeEGpP3MDsZLgSK5ajBiy++qFrJI4cPK0FD8GBLDWFmaH+5/EYIbty0MewRsn7lFVeE0WNGq4YS++4dEjfmIatWrlStOY0Cz9K0lffHKAIV0PI8xB7PZB9EWUYjwMInBZpRyRaO8UATj0cITFOYAImml/277rpLzRzuuOOOcMMNN6hva7a33XZb+NjHPlboRQLCjF06dslomDHNoHxiQoMdMx1HO8a35zfmQARsyfUbb97sGmOHoxoBGXiWtEcwDfe57emHEcnTyNypaBwXurdckcBHlRd85TsBjfWUqVNCnz59VWOsZE2Do7xA447PSFYBQxumGuNY5SxPAnRaBAEEFuGBDSekGHKCVpg0YIs7c8ZM3e/cpXMYNnSYfnO0vNkNG+oWjSAT8/gNwYQ8QmDbtW+n8UNu0OLhl5FeMdoziA+aNIbIMWOw8vchxN759On8cPzYcU0Hq+ihJSTOo8eOqT0ww/UQ9IGDBgqp76VaSSYvoJnEUTrEmkVEIFGQZLTV3bp2U48JHN+3b2+oW6euEOIxahZC2iChaB6xPcZWFhswNCas3MdxhCeLjxTVLJQn+C7kSkSKIw0oIzZoja2uxpcL8r5w8t2oUTGNceJBnj333HNqIgFp1RUVhaxCcgl0wNjyzV5//XW1YcQsBlMM3ofjmF9wjsl6BBaD4TuwiMxLL72kphfEi1kGNvkctyW96YzxXDpJTOgr2tBVJFxj7KhqQM5Ol/rFaN2o0aPi6lPFtPsX09aZLDS5CMpyPyhOlhOHyl85dylxXwi0ibihRPaxuizzRIpD0TRYSCZ88p0EJmd981vfDHff/RHVzEm2xIKjvICG8v/9v/+nM/BZIIHGle9C8YsqAV/iEotiLBolxyLo0K6hvY3I1Bn1qUxl5XkIBWyRMUWAZDJhj7Rga44LvwaSPjpMRJkvJBYNch08aUjcxGsEDWIHWPqScoSghTRwXXFVi3KpdshyDenkGTyvlqQDMwsI6pHDRzR9XAcpqSfPlURLfkVlWuORd2FSHu+Av2WzZc6ohT1sTfWzTBqZ8AfZRfCTJ6QtR9LKe+bl5aprOUwrWL4TjxemYagoaN7wzXVf8rzgjL5DzRqRbTbnyCPAbwh/4eS7L3whNvku8SAdTz75pAr673znO9oBIq0E8oy0km46SrhvY5iWBVYwjQBcg/aXkQa2EGDqAHbhxAEphgQ//vjjGrddT4cMUwzKCceS4U3EJ985qhqYK/Cd734ndOzQMXxe5AojdhHKv27R5rDiKG0DihdrM0oDlZUxmW+yhpVOGX3iuJ1DJhjnIX7aDbZ2D8HmSqAIQqZwnt9cAyyu8gKjXygS8N3+7W9/u8TFiXgu6QPa7sVCMpHcpzuqDayCVihiPLR27VpKJKj4EF8IKxPkMBOAmEAYM4VUKrkVWQDhNDLG9Zyj0Se9VNC0tHS9lusgj2jslGAKoaVSQ5whr9j5kgSIJ88vDhBVCCqEnWvIFzTMCOaC09H68jyLY5Dn+vXrqUBTV28xW2wWRyFd3EtcpAl7YQg+7wk5U7tlSR+kmHeCBOOiCNEHia5bt05okMXKd5JtQk55RiLAe0jClUjSAUDIs6WzgTAH5Gl5C+lLBekhv0k3ZYj8Ih/Jezoo7LO12e1GlA18Ly0fEgcaYJaRhhxbOeV6vpvFyYgKWmqWKUcbDSHmuZYOh8NxCUigfIEgMgLICBCjjcg56jAjQPigJzD6RGC0iEWaIL54EwJcS6DuQ7JRMuFxCdKJn2DCL3/5S10Z87/+67/CM888o77qv/nNb+pxfv/ud7/T67iHEUlkk8kRi99xFk6MUwwUUBrI+Ea1JFBJipJN7oMQJQPxlYt0IABIC1veiS3kjC0BUnBOkHu4j3fSIPEV7pcmnIm2aHdZuQ5yAeGAaEA4IDN4j4jyVuKWLdrVWhm1VOhgz8szEZkM80NmIMCQT9LGQh2AfEfDDAnieRznvYgXMptZJzMimkRUJJBF0fMjggoh5hkcg1jxXDTJpBsSHWlUhUDLH3GSw+QdS2yzoh7X8jxWbeQRSqokECcE2whXvbpCsGtlaNr5Trw38fHe6nNZtnwD/YZF0nxukP8IFwnL01NSLmgEMC1466031b6WyW2WBtJj5J/9ZCO+bGOCApE3jS6B37wD+cs7kHbKhoH7uQ6tMGYUkGT8Z/N9iIdvCvm1d2VL+eI4+YQtsqUhFfLD4ajU0LoknUz9v3wRLysAWmJM4SDG+JunLiND6Bz/8Ic/VG2qhf/+7/9WN3KMTjFfxGSIxUnnmFHXMWPGqPca5jPg1QZTPOQFo1C4GsXkjt94t8GN5PXXXx+uvvpqvZb5EciQeFnjOBduYyygIUukjbEVcshQfBqpBNiMvvfee9rQovUzcsA5uxZgt4N7KMgUdqKA+PCWgEYK7wWQJMA9nLPnWhzlhSh/z2qyIAcMVaERIyAIsL/EbhJA2HTxjc2b9RwCgPdm0hm9ZIZuj6ld7xH9jUYRQXLBINdxL9/TyKd+xpicilY0jPUFY8dItwkfyxeIItpbfSc5x6VK6GLvCJkB9r72/rbPczgjX0v/54deyXVsDbH79XgsHdxzzr48FxLOM4nb0kE8uq/3E8XZNBj0ejlmQ2pcxxC43ivH7Z4otrPvWNJf3BudfVZsU1rE3lg7JfPmzwt/e/FvYfGSJWH37j367ejMUG4tLdQD3KJBGvH4oVr+JIB0QGqx9aWzh5aHhg6SizaIxUDMdhgPJtQB7OrM9AOCiyaIc9RXlqFF1kB6WY0QrRLEGjtq7PABjSDP4pnUA+IyjXQiQdrdxthRlUB7MX3atJiN8ehCmV5mgVYC4mUxsox2GjlBXWYSNEoJ5AmaYcwa6ChT35lDwBZ5gFcavNqoTI6Lj7SiebbJuMgNOt3IEpQgkHDaW94RWYLCAdmKLEG+4ObTzChA0fjLC8hAtzFOIUCK4klnRCqLf02OJtrGGFLIsAmFH60hFYf0QugYNmWyEY0gvT0qrhVi3oN9JmmxuhZDKqZ5wpaRa5599lmd5MOMeQqiEUTOET8Vj95lRREM0sgQMBWeRSbQhkF2IMoM4bRt21YJDumgovLu3BPZ16arGUNmZm01G6BolrV4okklHswN0JDiW5g4ColyKUBekS40thkZkR9jFZxlSItRY7TNCEG+M3EQd1mg2se0mqqVJh7ej7RFbt9KCUlKlJpIqLJSH5pq4ik1JN3cj4ZabZ3lL0pHRGDLAr4HZAvbsx/88Adhw3pMBerrJEF8944YMUInP2KyAiFkERWWWGabLBtjyvQPfvADXcwDjQyNF6ME5KeVU/KB7wwBpmPKUCZ1DdA40eHl3N13360NHnlA44hNMhoeCDNLd0ed8wjICOoNw640LmiLEg23MXZUNaCIMRvjLz7+uI64Rbj0QXRkNm1GPCCprFDKpNyPf/zjKj9Y5AfFES4bTYkFILnICbzdQGSLgji+8pWvKOFkUSfaT565bt06lSnIJ0zUqLdMxEYmQVIh0Z///OdV01xWmX0xQHZVVhtjJ8YSEkmMyW56emh7KbzWqFKg0ZxS2JcuXaqEF6IA6UVDY6SKCodXBzwt0Ct84403NJ5PfepTSphpuAkQZeLgPuLmGZBuflM5qDAVBSogRJiKikCgtwyRxy6K3jFDOxB+erdWAain+fl5OokNwmz+dcsK62BgMoHLNkwgiEVdr5US+vXl2aSN/IIEoGHF1KK00Fol/2kc8mwIMvFwrCxVTk06akSCQtMiW9XWacktHdBgA+7D1KMwnovIX9LOvRB0JdcSV1liQRufnxfZX+OV4dnf/z5slfKbnh7Z1lLWWdCCBU4o4/z+8Y9/rMt4Q4whnMkABB2CSqOEgIfImimKfU/qGWSZeknnlyHLeB/GkFuuhfBbw8l1TOyj7lN/mYxH/sbDTDZ4Jo1couHE2FHVsF3ap+9+5zvaQf3iF78YV68qhpDRJlGPIItodJEDmE2g+UUJQJ1HfqBEYgsx/vSnP61tfVFwjonstKEf/ehHVW4y8vqLX/xCFV73339/ePnll9UN5Gc+8xkl4XAERqvoXGNOUZS4VwScGKcYUpkYAyoJDR3EkOwnjTSaDKmiBWZYlkYS8oqmDM0xxIDCwrUMKzOkCoFk6BbtM1o2tLSYUqApplFWm1W5h/enx4j/W4Zz6G2aJquiQOXmPfkOpIF0PvXUU0p6Hn30UX0vnQwW+0Z8CTSRaFrVFEHyRSuLfoYyfAvuw9b4NDbHkrdyiG1ZGnHSAwlmIhxpJPAuaek23HZhoFHlHSDm3K8kXeLQ6qbvWzpwJTbGpIXvDeGn01CWSqt5LFvygXRY5wM3aaWGxAG517STn6TAElGG94GYaz7I/pLFi8NbMX/MLNlNOeEcjRTln6FEbOlwZYbrM7w8JEtjTFmkYWNLQ0PnojjwfanXfHPqKeQ5HtwfL/T5zfchbup0VBdSC06MHVUNifRKAaydty0d7V/96ldKalEUmYkU5zCNmDp1qrbRxRFjPFww0Y4OM/IRGUN8jEixD/nFbBFijNkGz2AfcoxvdZ4XL4MqCk6MUwypTowNZD0FFm0RhRZyTGP6pz/9SbXFkEh6hwyfDh8+XHu3xWmMaIipTMw8JU60xRBpGm+IBhWDniS2mq+99pq6vSqpkFYUIOzf+973VAPO2vRov0gbIM1CZ9mLPC/IN2PInm8IkSoLilYo4ia+slS0qKRApiWQtlgoSxxW9riP8qfknNXuYtrb0gJvE3JjYTx6t+xL5Hq+NOC5heU5Fg/EnxX7SGNpAcnnfjo9LIaCm7ij2K9JKDXkcdB0yuy7770bnv/T8+rL+eTJyMMHZRYtMZ1ChgRpGF544QUtN2iMS7JTS3Xw/aw8lCXPUwFOjB1VDTtE5uB2saO0qRVJjJG1kHBMsVBOYSaFOSFt389//nOtW2hwMS3kGLKBUVZG0zCxKM6UAvMLvE7gsQYirCOs8hy4AQTZJvFyHMLNOTTRaJhpe11jfGE4MZaQaGJsRJYKgHYYswrIK6toUagZJqEnyGpaEEoM9inY9P7QpHENgSFY3o13RZOGuQLEl+uNQHMO+8Z77rlHKyE2jWjeKlpjXBRojKnMEB4qJ8PJpN0qRI1YPVASp7zvLLEsC7g6/svZ3WX5mvpMni/7pIEdfkHWSwt7nt4fj1i8pYV2Hs5JS9nuLw7qhUL+KBtlyV2ea6YT3GuadPuGpQF5C/nl3j89/3z4vnSWtm3bruUVTSwjCXTsEN4skUyeM0u7VcuWOuQZEeNLzYHzI5IXkkPkdxnAu5X1HmD3Fb3/YuMrbzgxdlQ1FJpSdOwQvviFijOlwFSKES8W8oEco+z67Gc/q+31t771LR3BxeQRBRnEGQ8WyEFGlD/5yU/qSqWQZgMyAaAwM1NF5BX8AZJMHPy2ES0j2xBNzNBo94kvnnhWlJypzMQ4uU+vhqAQoh3+6U9/qpN52Kfws8wsWjElK3INvT20vExUwywCLdr//d//aS+XIRMI7v/+7/9qgcPlCzZGkGYIJ5UD1yysgoaJBZWOYRer/MkqdJAhQKXlHa2Sa6VklwrKX6yS2vmyoGj15ndZqzzPt3s0nQWRltXiKk0w2HsWBomHuEobVEiQnlieSCQfjrOMATMTyhkomu7zBYAZh91LecJcxzpqpQmUaRZKqVO3TiS85b0aNMgKnTt3Ctdcc7U0Bg+HBx96MFxxxfjQqXPH0LhRtjwbwS0P1ERoQWEnoaA+knfFAeKIFt0EPNeWBM5bPTDYtyVf6TQbCr+5w+EoX8RkoYqSCqxnkFA6+rTxEFe0vdRx6jYEmNFglACMoKLFZWT49ttv1zYfcwgUSrTnBu4jcD3aYUaBsSf++9//riNruL+0wHHmIDGZHwIOeCZtSlFZVpJsq65wYpwEUEEgCVQEGkp6kkzqoQDj55ChF9xB0dPC7hjyTKMJqaBQQyggJfQSmcjHKlv0TImXHiKz29E433LLLToUDal2OCoCCGmdIFjaANGvKVRXOhsNpDwPlkYDmzcmjNwngZnYuARjuBFPHEwYjMLZzkpFgzQaKaXBYDIprtnQ0sSDOgkpZlIeIzs0eMwRYBg0vjEzEBf1Ff+laFPigRzApAQZgGmVw+GoYCRAoNAmM/KFv2HMG5EryAFkB0oFJhijFEOJBYFGq4sJGYSZe2nrkUdFYUoGiC5bTCYIHKe9jz9PPIw4G38AToTPDyfGCQYVg1mpmBP867/+qxZiVqZhYhwNLF4pGE6B4GKADzGm50eDC9H96le/qtpgNMkPP/ywEgmIMAUeTRWEGe2w+VPFpzE9S4ej4kALU7qg2maRyZTTHj17aPn9h3/4B3VhNHrUqNCkaWRigwY2IqgipGIkNdEgHYD6g+YF94MGGhbShzkT5zCJonPLSA6dW1usxMD1vBP1GG0Ond148Cwm0b7yyis6idYbLoejAiEyRbvaiJYE1DXqN4owZIIpsJAHNuLGBHvIMUoy5AkT7NAaY36AAsxAPASOcQ/zLjDJ+MY3vqGjx6x8xz4Bd5H85jxmaBB06/ATh8uYkuHEOAmggmBXRO+QSkLDi5smKgGmD/QgqRTYA0GAmZFPBeJ6hlDoGUIscN6NrRL2SFQyepeQY8wq0Fphb0xjTmVzOCoKmIeUNuj1IpBxYYfpD8KdYUZsh+kkMiFQvV8I0DCDMzBp/iVYkEfEPJoQSJ1CcwzYpxPLiA5mTXRCqW9oldEc426Rc/gTp4EDxEO9p54yybY4YC9oddnhcFQclCDqPwy1Kh5qNiZAMcCzjSgz4oT8QCYwuossRMvLbxRktPsG7mX+EO06dssovpA1mFygRKPTjQxizhLXsY9tM/tM1EPBxn0oy+KJsZFlx1k4MU4iKJgUShpgKg69SIZjIcponCC5VBwKsfUw7T7bcowKw/3sU9nwnTpx4sTw0EMP6TA1k2UcjgqDNjKlC5RTyiuu4hpkNVANMaYSlN08OabRYWohfwUxryDJIMWAZ1LvqFMEQNqpnxBeJr/gs5i6imkE+4zW0BFlAQEC9v28W3xcbImHY9Rt7kdTjBkFcaBxfvbZZ3UOAVvsA+Ntjx0Ox6UjccZZEZB9tPXUeba075BXCK11llGOMckeGYHNMH6OuR4gJ7iOSfasSYBpFyvLscVEi+PIDuyOuQ8ZxZbznMO+mZEqzC6Lk6fJkLGpCifGSYAVQEgxAXtKzCuwMcL4Hq0xwx7s466FniOaYiqTgYaVCkOjy7AKcVLwqTA0vjTeXE+Din0RoGJaJXM4ygs0L6UNlFPKJeQX0DgxoQ8vBxzHjRz2x1bWWdyEe1SrQUggaEAwbaLxoh5hKkEjBhjNob4yYZaOKK4U8biCSyRGcXC3SOe0V69eOiqEzTGaGhoqGkQ0PQQaKibjQYzR6tCIMWeAibYs1PPrX/9aF8YpzmbZ4XBcHBi9oi1U2RI7VpFAnlHPTf7xbOo08gBPFSzTzHHabmQIbTYaXkZ8TaOLJhmNMr6I77333nD99ddrwAwNs0q8WEGsOcYKmhxHOcY9LEHPfXinglcgkyxeYFzEEcGJcRIQXwAhtrhuY3gELxVPPPGEepnARRXbJ598Uv0ao33iWsD9kFy2mFRAklknneEUGnEaXOyWsTFC40TPEfJMRbR7HY5kwEguf+wTYieiBir2k/Mck4ujQ3pP4kBdwRb4Rz/6UfjZz36mJhMs6YorRTOhoI4xNElnlOHL5557TushgQl2dE5p4HhHCPbzzz+vjR31lGup7xBiGklcONGYoS2iAcNG8J//+Z91Ei111zoKDoejnCGypSJB/aaNp63GhJJRJWQCppEszwwxjp8gj6kkHWsUZrTtaI8B7TbX4dKS+zHbQtZApjlGh9wm4qFMIyDHmLPA/AVsmTG/NM8U8TzEcS5c2iYBFGobGh0/frwu0UyjeOutt+oEO7a2j60xE5Ruu+02Lfhom6gsgIJNXDTMTPrBPpEeIg0qS0UySe8Tn/hE+PKXv6x2yjY71Sqaw+EoHpBR6gweMtDCoA2msaK+MpOcxg3ii9aY+vtP//RParaE5gbH/PE2ydRTGi5W8iMOloAdO3asxs0zOIdmGZtrnktDib0h8wu4ljruddbhKGckiBcyQZfJuRBS6jkjQ5g+ICdo5yGwkGfadmQG9R05QduNfADW5gO8VjEpnxEsFgyBDKM04xra+HgFGhPzIeOMTDHaZecc54cT4yQAe0TsgNAEo92FrNIbpFAT6AHymy29THqADOu++uqr6r0C7ROVgApkASN9JjI98MADWqHYQpIZVoFQ02uEODNkg69jh8NRMtCo4DYJAkvDRX2jjtGYYUZh5kk0dtRVrrc6DKwOGzCVYhiT+DC7oMPLUCcEmCFW6jkaHeoy+6pVl0BjidaH4w6Ho5xA/eJPthVZt5AbEFLmHSA7UFYx7wBzKdp+5g/QprMQBnzgj3/8o24ZrcJtIxPzOA8RhhADjjMKTKccU0tsjzHTwgwLgm0yCCCfTOagXWbk2WXJheHEOMGgUKJtYmiFgk4hp9KwT88yPqB1oiBjcB9/jRnPU6mxcfz0pz+tfmCxSzZibQHNNPcRB5UDOyR6mQ6H4/ygI4lpEh1SGjfqLA0as7xp8JgYi9YG2346nvghZkIe13Ev1xioq5BnCLU1XpynfkJ+aSzxSgGZZp/7afD4TePGPudd4+NwXDqoj4nQGFO/UWxh58vcITrbjCxhEoHsoI2nfWafNpr2HU5AsPafEWH26UBT/1k0BIIN4WWEieNooPFAgeyIXykP8Cw680zC51rkj+P88CWhJSR6SWgKNw0d2/g0FoWR33j7Qo6hWSIA7qNSUOhpRLk+HgzBMuTLs7iHYZei1yQC9Hzxp8gw9Oc+9zmtrKTd3jH6Et6TdZyLPdIhxBQId25f+PzndfSjousngKzS0FBuaaTQyLBCFSMwaHCxDcZdEppgJsZyLJIzNZQk0xjiVxStjoFGifvQAD322GPaQcZOkOPIKxpACDiaJTqxpAEvFRBubI95DgsFYF6RSNAB8CWhHVUJO6RO6ZLQUs8+/4UvhNq1yndJaGvXkAnIBkaBTJPLOTq5kOb4tph2viQewP1mh4y84FqOAWQHijM0wgD5ATk+27ZGPAEzDdJgI1IVDV8S2lEmUDix/cEQnmFabAzZLxpoCNly3gLX0+hSmAiQYXwgox0urrBzHNMJDP2pLImoEA5HZQf1BM0w2uDPfOYzSkapd3Ts0PpgAkEDhMaGBo5hUSbV0QiywhVElk5oUVAfIbw0btyHJgj7P7RGjATRiaWRQ/PDOWaod+3aVc/xG5LqcDguDed4paiANpE4iRuCh9yIJ8UAkmvtu4Xz8QDkgJFFZI6RYgAH4DrMKtAi8zwQ/17cy8gT9zoHuDCcGDscDkcRoIXB5AiSSyPEyAsNCoFGDs012mPcJuEKicl5BAgxk2WZaAfxRePLMCnx0TgxckPAVII4uJbVqVgJ86qrrlKNMPbHjzzySPj617+unmXwhPHv//7veg0T8xwOR+qjKAGNlyFlhd2DDCnufo4zIgzxhSg7Lg1OjB0Oh6MIaGDQvuBOCW0Nmh7sgyG4aIfxMcwkGVyw4bKNmeaQYJtUy3Fzu4jHGIZO0QJDljGZwD+xuVJk9AhNMQFyDWk2cwyGehkRMl/JxWmhHQ5HGQG5LDs/LRXizSFMQ3yx4H6LozRxXerzHBGcGDscDkcRoIGBjNpy7BBiAtoahkFxu4RZBZphTCsgrRzH5Rp2xRBcruEc8WAu8T//8z9KmIkDTXSfPn30Pp4FQUazjIkGx7E1hmQzGccbO4ejfAEnph4SKrJ+mXaXZ1DPS3K7CJmOP4es4R7uZx/EE26Oxf822PV2j+Pi4MTY4XA4SgANDfbAgMaGxg1PMLhe+4d/+Ac1ecAbDDPOMYXALyk+jZlg+oUvfEGvYaUpNMW4ZkLbjP9iFvT45Cc/qb6KbYgVMwlINDPOIdzMSGehEO5h4kxxDaHD4bgIxAhrRcDIsAGCy9wD3KkxsoQssOOA+m8rbDIhl3rO3AZGmOJh1xMX8x/wgMO1HLdzzF+gU81EPEy2HBcHJ8YOh8NRAmh4aLggxGa7xz5aZCbSMWkO0wmAthcvFvyeNWuWum2jceI+SC8uFSHN+BnHswO2ysTFhDquw/c4k2sx3YAcQ8BZGIDV91h1D1dxaJ4dDselo0YF2VIYMTayyhYvVJhcMWJkq9hyHPkC0Z00aZKegxBjUgW5ZbloztMh51qLFy81LBNPp7ko+cUTBLLizTff9Im6lwAnxkmAVRgKNW6g/vd//1eHTNFM0dD+/e9/1x4hPUuuoVLR0JovQxsm4RyupH7+859rI0wlAsRPZeMeW33L4XCUHRBXGiQjx4B6Rj3E9AGyCsnFQwUBDxI0WNgX//jHP1aH/Swfjc2yTdbDPANSTT1lqVYaTNzRMbPcZpszQ50Fe5iIR2P3u9/9ThtLnm313OFwXBwq2isFsHiRG7TZzDOA7NI2Azq9v/rVr8JvfvMblRm4f4TU/va3v1WZwDwGuAFaZuSPdcyRHfAFtMuA5xB4F96JOQx4seE5PJd7CcY7HBeGE+MkwCoMxBYNE5WA4dK5c+eq3z9sEaksHH/jjTe0gvz+979Xf4CsgEPBtwK/bNkyXYCAY9ZgEj/DMDS69D4dDsfFg+FJtLvWsNAooeGhbqK9wZSCpaLxMoEjfUwqqIsvvPCCanZw3E9dZ+IcrpeMFDPciWaHzi32yObSyYDNMmQbQo0PZeJGo2wE3eFwVA5YnaWO4zaN+k/Hms4uCizkCG027TnHaM+RDyjOmH9g5lwG5AlxGZdAiQaHgB8gnyDgkydPDi+//LL6Tod48zxH6eASNomgUDPcwfAJBfkXv/iFaoawNaJB/e///m911/T0008rYf7pT3+qs9wp/DTWNLBUGBpWGmKrJADNE3GbdtnhcFw88AOO+QT1DFtBOqrUWVaxGjNmTKFvccwgWF3ywQcf1NWu8GoBUYbk0jgauUabQ6PHPffdd5/aFhd1s8Q5iPSdd96p5heYatjCPg6H4xJAW1nYXlacJpX6DuGljUZJxQgu5lBoj/F68+ijj4YvfvGLuvgFk26p5w8//LC6fcT0inkKuHBEvqAIM3/mxMs+i3tBhDHPeO2115QjoGwjYIKFq8fvfOc74YknntDJvI7SIe3rOMusYqDQEGhYCNF+7GQxoMBNmTpFCmbf2HLJXHyeGy4RPI9hEAK9QxpIGk/cMtH4mtsmtERoo9q2bavHceCN7SFbhl15NwzwcQdFY8wxiDBDr5hWYNDPMYZxaYgxyYBIJ8PJNz1iFkCAYDBRCddXfBeQ6LQ4Kg+OS0Py9ttvq7Z1lBDDyF1ZxdbPeFA26WTSMPXo0aNQY0t9pBxjFoEGKB4QXAgt11JXWR3POq5W1k2DRJ3v37//h0gxMBnGs3h+PLFOZJ1BOzV79qxwQBpiJg5C8muQ/lhaHI7KhmO63Pv00Ci7kXQ4R4X0wvpXvvUK14uMLmEeuWTJEnXDaO0+MoHONec5DrmljUZbjOYYwsvCQni6QT7QpqP9hQAzukybCuHmejgCsgTXjxxHLk2cOFHrK3MV4BxcgyedRAHOwTvDQ+A3mIsVB2RZvFyzkEy4xjgJoMeHWQT2Q9gZUZAht2iiIMW2Mha9SioRPU72qUj0MiHNNNZcAxGmELFPb5SeImYY2CmZT9Wnnnoq/OxnP9MeJMO7VDCHw1E6UNfQ1tLAAIju3XffraS3JA0uq03SKOGWDaFvRNjAaA+NF94nihvVMVJsoO6DVGg0HI5KjwTVITq1kFU69MgA5AWdZmQI5yDIkGdGl5ApyJjGjRsryUWzjG90ZAVgNIq5B8SHzGAlW+Y3IGuIHzeRt99+u8aNAuqWW27ROQ3ES6eeDq6jdHBinGDQ4DEEgpYYMkzPECLMZDvsgV5//XW9BiLMxB7MJriG3iSTeOhZWu+R4wylEB/2xAsWLNCAWyjiw0aJiodRPySZXisBmyVLi8PhuDBonIzcsoUsc+x8JJVrqKtWz6jn8eCchaIoGq8920mxw1EO0DpZQ40oyrtGxberyAg6yIz0MoLEiDQuGnHryGgwI6d0useNG6dmVwSuxZSCkah4mYE8YZVNTC2Yb4CJBV5ucPvIpF9kBCNLEG6IMluezzOMXDtKByfGCQYNGxrfz3zmM+GjH/2o9h4pzFQSCjrDHfQaGV6l54ebJ4ZT6PEVNYGAFKNtpveIYT2B+773ve+FJ598Un2ofvvb39bJe88884xWKHqdVkm8kXU4Lh7Un9LUISO11F+Hw5F8QF7xTKEEuYLaQZ7BSM/evXt15JbRXCbiohSjTcbbBOYGKL1QeBFQZtk+ZhWQWswg4kFHmmOQZp5hI8xohNE+85vnsiXwDM7R7hOnpcugeUE+OArhxDjBoADSmDIcgsZ34cKFqh3GDAJbIcwmrOBCYgGVAPJrhR8wpMJQCUMwDJswc51FB5gIxDAMvVOGWrgO8s2WBpp4zL9h0QrncDgcDke1QAXphWjfjXhCYiHCtMUowNDsMjcBkgqJxbME5pM2UR4Si4cJtpyDGBcFx+hkQ3qx38V0kon7TAhmkj52xxBsyPizzz6rJJyR45kzZ+ox7JNp+y2N1rl3cnwWToyTAEgwlYVJLGiEsROC0DJ0AhlmGVkIL4byDLEw8x2NMQQ43qbRNL8UcioTJJuJSuYTEcN+XMFgRoFZBhplKiFuXZig58MrDofD4ah2EDLIn6ICCKGRTggupBRCTFsOGBVGiYWfcpaEhyAzvwi3q4zs4sKR0WCUWRBqU5QZjERDaJmDxL2YUE6fPl0JMe08k/KZ+MYcJngB9xC4Drtl4osnwuw7MT4L90ohgFgm0isFxPQnP/mJVhC0uRjZ45oF0ktvzmyFcdsGyaUgo00GTL5DI8x7kW5sixmSwd8pFYOJdlQs7JchxVRKZrHSW0RDTYWBHOOtAhdRiSLH7pXCcTFItlcKh3ulcFQ94JViunmlGFX+XikYnaVdQ6tLO4yPc0aDWcALbxEow7gG8kvbzbLxyDYUVtQxzCxpJzGjpJ1E8YXNMIBsM98IJRoKNRRpKM+4j+sxl8CTBRPvsGXGXpnz2C9jz4y5pc1/iG972S/Ptph0ulcKR6lAAaDg0kukoGNHTCFgaIQC/B//8R/hK1/5SvjUpz6lRvoUfrTF+DL9+Mc/rgWe3qLB7BaJl14ptsuf+9zn1B8iM1S551/+5V/CQw89FD7/+c+H//qv/1JbY3wmFjdM43A4HA5HlYYSr4onX4wCQ0gZGaaDiTmF2fqyQBAr3WEGwQp4tqAXHqt++ctfakBv+a//+q+qSUaLDNHmXmyVcd3GCptsOY6ii2fAA1BAQcLxcIECDiJOQKnGMcw0bO6DIdlkNJXgxDjBoPBRQBlKwVWTFUZ8FqJRZdgDDTIu3ehhMuRBRaDgM0TCwh9cw2/AluvQqmFbhG0xk/voDaIVhnxjlvGxj31MFxKAKNNjjTTjDkdqgwky1JB8EfjWIcw/HS1xmsqBjipbQB2lHpP+otelYrB00siyz9wGpu9niiw5I381ap61oXQ4KiNUQymBbUXTQUwi0ZaipaU+YUpJu0xbzZZzjBxDZiG3mFfQdtNGo2lmS2AuEmaR2BQzoQ+CSxxca/IF0wo0wijVIM8sGMYCYsYXDPGkWPMibusQniaZUeVygwJCgHQSKDQ1ahT/mhw9dfJk+Oa3vhnuvvsjYfiwYXKEqlJx1cXSx1ADxvH0GB9//HEddqAwQ5IxPSDdFGCuowKY6QNEl8U/uBaijEE9mmcqD3ZLaIJx+4ammfvxcsGQCxUvWVpiZuR+61vfUiGBRpvhWN5PBZN2DvgSXjEd54Iy/p3vfleJ8U3SoWsrZTwnJ1fK9YddnKUS6JhisoSGCILJyA7bymDXj8ygXlI/SS8N8l/+8mfJ91Phs5/7bOjevYeer5WRoXLM4ahswBMEK8LRpn5R2l7KcoSK0RXSnrOOAGYFeI2yRTesA4oXCtysQmIZFWYlPNrzeE822Ajj0pVJdvguxvySSfe06RBfFGrMLWJ5ejTDmFg+99xzGhdkG8IMAUc2GbeIx9m2uHyAWQiTAdGA4x2LdBQH42iANFlIJpwYS0g0MTbQc2SI5Oc//7kOm9A7pMJSuCHH2BixQACEmZ4gxvsUcAzyqUjYHXM9wyI496bQY49M4P2xOeLzUmEgGFQ0SDXDO/ReEwknxo6LwWEhZZMnTQrbpJzXlHJCWT9+/IQQNmvIUhOQyTVr1hRqfKhvNICpLm5JnzVMNNoQ44jY1wqtW7dSc69GjRvLsVwhE7VS/n0cjuKgxPi7Qow7JI4YY/YAMf7BD36gtsAGzCoxpaCNxCYYMkz7jjaZNh+iTH1EhtCWM8EObTGKL9pRwGjx888/ryPNX/7yl1WLTLzIINYtQNPMyDOEHDtjFGXEX55EuCicGKcYKgsxRhP861//WjXGFBzSTIVA04QNMLZJVABb9pnrsTnGBAODe3tPFvhgQh+Vj8JIoWKJaEw2ABUE+yVslBi2IU5INxrkRBVAJ8aOMkOKBeUTbYjUZCVo9erXk3pwKqSnpTYxZjY45k10WJl4QqNGWUdbk8ogjeQ5dTJehubnC6kPBdqYnik4E53juth9DkdlwvYdO8J3v/Od0AGN8Re+EKcoqpj2EMIKIYaoPvHEE2oHTF1DpjExnkCnn3lBjA6/+OKLulot7TwKLtpt1jqg7abuxWt9af9pXyG/aIXRIqNRNpgfZUanuf/BBx8MN954o45mcf/ZNrh8UZmJcXKfXs1BgaASQBaZdUrhhhTjeYIKQiEG9BjRHON+zVa/ozJQmWmo0CYz8xWXbBBOm/VqjRpDLcxKJQ68XWCsj4sXKoTDkbKQ4gkpTktL10ajVu1aIa1mWsisnVlYtlM10OChqaE+M8JDXcXrTHHXplKIb5T4jYwgZNbJVA1xzqnIVjFdvofLD0dlBWWbXh10MFGlmGdCapFp1B201phP4EUKIss8INpt5AXLxbO6HZ6mfvzjH2u7D8ElDkZx2BJo+/Fcxahyr169tO2PPPdEnVwAx+A4K+Q9+uijunoe8lTzQGBbx1k4MU4iaCzpDX5BeqwYy6PlZVIeQx0UfnpRprWBPONp4pFHHlFtL4XdgH0xRBpPFtgXGSkGxMFzGFrBLpnK8dhjj6nWOdm9MofjQqhdq7YOcxaIkE8XgkwHkrJtBC5VA2nEnEK13bIPUcY0obhrUymgibIGFRmE7KARRQ7xW8/LuYICbIudGDsqL4RaxvYSA5RWkF5MJRj9ZbL9//zP/+hkeRRXmEJS1wCmFrhsQ0vMqBMaXhsBNiBbcO+KQg0OwDU8gzpbFMSNJhl+gKKMNBhHMHhH9yyqPTOiaEQElGH9xM60piGiwNI7xBaRYRB6fVQea/xt6BXtMddBms3Fm4HKAHHmHDZE8Qb7dh1bfCZSyfCbCFEuWjHKH1S0KNSQkpaWVjOuQZW8VvMW2xIcjnNxWupmPp3D2G/qRIHWUyszqRmoWgQr82ypA8Vdm0pBZWCsPmI6cebMacnvKP9t6FYO6uU1oxdyOCodKM+YAlGeTbZUJFjplvk9uEpln+diI3zDDTcoWcVUIr49ZiQYUozS7NOf/rTuxy/uBYgDsgypZpSZNj0eRePjWjTT+s7FtP3lxwci+VGzJiNOBULEIeFnjxcfUgvVXrJBPFUzIj01NFLJQEUS1IqM+/w4t+AzcepccuBwXBiRPI3KCxoNLc/6O7UDDYJWPSGZUYe7+OtSMWiy+U/yWbVIcfnvcFQF5OTmhpMnToTcvDwdzSlPUE+K1hWUVSziwaQ3iDFaW+yHIcYovUwBFg8myTPXCB/I5k0qPm7iNA8WxIlbRUalUqOeRnIvLz8vnDp1MpyUwLEPh9REtSfGVpAYqjUDcEfFgOHYgtOexw6Hw+FIHuoI0dR5CxLMfAHAAYojlsUd53dx1xanjOJ+tLYEHXURQGwhtGiCiyPGxAM5JsTHGf9M0s4IM8TZ4uVZ8aG07wOKO87v4q4t6bgRXuYhkD7era68d2VCtSfGOrNaCh0LCVAoHBUDq0TFVySHw+FwOBIDlDTSGukWUy0Dw//FEdvizA/4Xdy1oOhx7i+u7TPyWhTnayvj4+Ya7id+CKgFflsoLo1lOc7v4q4t6bic0f9P5+drkItSWDdcPKq1uzaOoDEukGtZKvmOO+8Iw4Ymzl1b1Qa5ezbPFy1apA7VmWjAstXqro3Kz7eRyig1PHalw1H5gXvFn/zkJ+GGG28IDz34UNR4pUnjWODl3OFINvCL/j0WDpK2f/z4y0P9+llK4jLUN3d0TVHSZ1TpQseN7PIbksoWPgLp5Df7dp5tvMbaQJwWn205ZvcRV/xz7HxRFD1nv0Fxx8ClHsfHeUZGejh0+LC6rdy0cWP493//9xLctRlHi+LgvSwkE9Xej7GcCDmnToUvfelLahyP3Q8fqerlSuKRllZDbYxwr8WiIyxkgkcNJhQ4MXZUZTgxdjhSF7hRfPKpp8KypUuVmNIGKUE9c9ZFocF4RFmO2zHsfvFOQ8Akwlw3Mq8J8sd5yHI8LF44DHGYBjieCBPYB3a//Y6HEcz4c3Z/cekuy3GLO/54dG20T/oB7/3Fx78Yunfrrr/Phb1LdA9xWkgmqj0xprHauWNnePLJJ9X1CU6vyZFUX3I2lWBFKL53DJjNzqQ7ORiOiCDCporFDh566CGdQYu2HtTQ2atM+jm3J+pwVFY4MXY4UhfHjh8Pu3bu1BVmUd7gYQVyBmGFrBUF7ZMFg7ZZ0rYVJYjWBrJP/LhlYwEulG5MwGM9AeMm3Mu2KiE3N0fyMeICBCYXtmjZMjSJrctwLpwYJwxlIcaQsmPHjusqVWvXrNHCnJcHYXOSVlpAiMljEwoRJL9lF40w5yHB2Y0ahQH9+6vLuKwGWXoMgaTfiHtjdzoclR1OjB2O1AXE63SBkFepj2lC4miu8E6Rnv5hH8DxMLpEm2Wk1rxa8JvztGtopFmQiwW1WK4ZN2m4ScXDhK1BYPdXNeCNInLVJlxK8oL2H9OK0/lnbbnPwolxwlBaYswRljrFrghzCu6pKR+RylLDfXSWGla5KUrsa4XIy9VeI3mcJoWcCoL2uDazZ2VrZBmhJF9Jv5HDUVXgxNjhSF2giFEGIP9UqRPbL4kYW/tkbR2gnSNA4jDDwCyCZZB37typK8uyGh0mFPgrvvLKK0PLli11VTq00qoUkvuIN9JSVx3k5uUUtvFmJok/+nT5/WE4MU4YyqIxBhRSCjaVg15NRIpdf1lamHAgnwknTpwQAbE/7Nq9S920MHSEnRFDVnRCEARokumxY7KCrHHC4KhKcGLscKQ2aLOojbRFRsZkt1hEHCLiE/YbcA9c4+DBg2Ht2rVhzZo1YceOHcopMBfs2rWrBhbwwrbY+AhtJvvWdlYl2MIe8byASY5qVvkhODFOGMpKjLlWyRo/9GNiGlDlsqXCQBGid8iQEnl97NixsG3b1jB9+rRw9OhR7TH37dcvtJIecx1W75HrrScZfZuzAsfhqApwYuxwpC6MtNHusI9GE+9U6el4iPhwWxTfRlGX4QxsWZZ5y5Yt6nWJLe1g27ZtQ8eOHVUhhH0tSjcbIeVZxGPkj9+EqgRWyzQNPKaqheaSkl8fRmoS46rVVbkIQNDoydFoyRfVj1f8B3SUjLOVneUfGzTIUpuqVq1bhx07dwpBnh4+mD1be9R79+4ttMki79UzRRUTDA6Hw+FIXaAIY2l5VebINkN+s0iGEdUPh4gXsLw7pBiSe/jwobB8+TLpBL8fpk2bqgqhq6++Otx+++06ya55i+aFZhI8B00qbSTHWAXWFHjFP6/yBt4xQzoYkZePSPFY2ThV2tcFsf0qA/tAkDVCtB87WRSxa02Tw/UR+O2hNIEsQ3DYFgGA6UTLFi10yUq0xosXLw6bNm0Kx48f1/zmvtrSIaHy6MQ7uZeepX4LOauQgyV9NkAFtFQwTGPfjoqo9k3yu7BCWlyy5RnWI9U4Yr95shH19Iz0uONn72MbQdIc6+2WBM5xP0KUTgBXsgQpAhhBmSYCMjcnp1CjYJ0yjVP+kZ7ickDTI2mhQ6fxyL0KuU9t53iuBEtvySl0VBQ2bNwY5s+bF3p07xF69eql34oPp2XsdIF6aKGcolHRciLfkO9q34xz53xfOUbZ0JEtrnE4KgCR7BHZwZ+1iSK7tKzKcYKVP5Vpsd+UTZRLzCWBZAKOc43JWI1bwG/2TU6zjYgqdUP2RfbKBWriwHVW7pGdrFRH2uw+4uX6/LzIZtfkKPfzNOrXaalvHDeTCXs259LS0vU38fAXpY8JdblS/+RZ0p5Fx2kLaqjHhYOHDoZVK1foiOg777ytJoODBg0M119/XejWrWuoU4dV6MgrTYYGfgP2IzODqL2sigFofsa+OaFkWJmK/Ypdf/57Kh5OjB0VAvKdpS4bNcoWgtxSifL+AwfCihUrpJe9PJw6dSrUrVcvNMjKCpkskxn7TtQPJu0hsBBkJYHrEKLcYd+Y4TDiQYgeP3FCBWOGkAuus/hVaAL5zaRAiDrCUgW7EHP2ISQnJX1yQzgVI67sI0j1ftnnWoCA5Z6iIH0IcpbFxHE8kztJF6DhgCzbfTQmPI+02nvUypB0S8NUXLGNhMYZTXuGCG/ehfgg2pwpzEvSLPte9BMPZqLPmjVLGspuqj3iGx06eFC3lAcIb2EZky1DsnwvygygvGCTz3WUcYZ4ow6WfE2Jw+GoCERKikg2mlwl2G9klnbihNjlUzblXC3p5CnpRCbG7tE4kHNyDXNOkHGUbX7nn87XskxAvnKO48hSJrDlSFA5HpO7RoKJk/oACY5Py/HjJ5SUqzyV48Ameul9siU+7uE88pVnp0sbQ9xAZa2kP0+erXKaa+XZ2MZCxvnNPRulwztt+vTw9jvvhA3r16vZxOjRowvdsNHm6b2OUsI4WuyX7FtIJtzG2FFhQAAhUBE+zNaFFDNbF+HCxLuuXbuFIUOGhLZt2uiCHwgks/VCyEH61PaomCJqmgGuY6ukQb41x3ft3q02X40bNQqDBw9WoqsEWv60uMt1CMBNmzeFTRs3hd59+oQmTRrr+dqZCPmIQJPmVatWyfneIbthtmo/rLpqxdUfUr4kvUVBuiIBnBdWLF+hEzJw19O0WVMVyAh43peGaKecYwGU/v37qwkK59Ao0kiosC8C3gHtOzZtAwYMCI3lHt5fCXzsPXk2SURbQv4lW9BUN8yaPSt8/3vfDzfeeGN49NFH1W/qCukQzpgxo/Cb0uhmync+eeqkfjuIBatF0VnkGsoBZZdyQdmpIx1IjoHiyoXDcclATMSL29hvK496SGQJnbkjR4+Eo0eiOSTIKo5HXp0KlNQyGoZnhgULF4QTQl5NBqlcEyLLmgGnTp5SWQu4F4IMuewoJHOMEE4UKjZycvLkSXV/hm/gcePGaZtBO79i5QqRl5mhS+fOei/HrG2I5D1KlGiFOUg455ZKurD/xVMEstaux0tSfr7cL3HQ/rAPMT506FDYuWtXmDlzRli+bLnG1UmeN0Tal549e+pzuZ94yD6IuKM0MI4WFTry0EIy4RpjR8VA8pteuwkKzCays7O1h43tMbZae/bsCXtEyKFRQMMLUUDA1MnMVBKqEhnBVgz4pth0oV2A5CI4IZlo6t5//30lIQhOW0gkJye6jn3TEuzdszcsWbpECObmkHMqJ9QXQqLCU65D27FciPy8efNCu7btQsPshpHWQdJFingecZE+E/jx4L0JaEc2rN8gjcNCvQ/tuWqxOX+GSRz5KtinT58R2ki+NJP0Wp6VFDfvvmz5sjB71mwV7pHHj3xtcHJzIw0NaUPgny3/XgESia1btoaZs2aFnkIa6JxBfnfv3hOmSNmkjO7bty9slo4Ntvdvvvmmlic6RzOFOO/fv19JwI6dO6ReHA8tmrfQWe0QYxt1cDgqAhASiCUyQzW+QgyPx+QscgnZiWkchPeDDz7Q0T788nIPMshGQ5BdHEMRwsJZmzdvDrv37JYyv1nN6pCJdAJXyfk3Jk3SduCUlHnmoCDX8XsL4cysE9n9EhfnmNTKghl9+vQJDUS+Q74ZgVy9epWkvob6x0fWMQJDegCekJDbpJv6tWzZ0jB9xnR1q7b/wP6wfft29TnMHJh169aFzZs2qYxu2DA7HDx4QJUaa+Tc3LlzwvZt25VMjx07NgwbOjS079BBn2lmJ9q2uKwtA4yjxX7JvoVkwjXGjgoDRYsQ2VFaDzA6dujgIRWai0XA7hDBBLlr0bJFaNeufejQvn1o0aKFHiupgiDk0AqjPUAYIYwR3hBi4m3atKkuJAIxBlxDCWBJzp49ewgJbaNlZJEI6d/99rdqlvAPjz0WRgwfrg0C2uI335ys6bz++utV+GujIWUJwh9POomnKDhnQ4779u4L77zzjgpiNIjt5f24D40E6YLgQo54DtrBSKOSpkRILozFeBbc++6774Y//N8fhHRFGncl7FrOo+FG8nJA/wGhUaNGWv4dicW0adPCj370o3DTTTeFBx98UI/t3bdXGt3NSij4JoyafPDBnDBr5sxw5113aRmEKPTp20dJAaQEG/1xl12mnTwaemqDli353g5HeYNyRaday5eUs40bNkSmb0I0T0qHG1lHOaUzv0HOTbxpoio6IKjcE8n7muqVAW0q9y1ZsjisXLFSCS8BAor8RNMMKX3ppZfCiJEjdfQLpQhlf+SokaFunbqFZg1obDFNQlHBKqoslIFPYJ4JqV2+YnlokNUgDBg4UEdcSAdzObgOd2nYIS9atDj84PvflzSdCvXq1ddnmaZXOYPUR0yWINWkfdDgQdI27dA08q5NpE3hODK6WfNmIrslbchnKqVsyDfrPJTUbjmKwjha1M7xLSwkE64xdlQYKNwmICLZIYWf8i/HEFpojxFa7WTLdXv27g1rVq9WIYTWE7OG+iLAOGdxEYd8VRWwaB4wddi1a5eaacyZM0eFEqYFEGNI7O7du8IB6fVDoHfLddhuNmncRDWzxIkAh4CTnqFDhhQK2/kLFoRXXn5FyMw+1eBBwmfPnh0WLVyo6SN+hDsCtbhKzLH9cu+kNyapMF8sjQNxMBwHcV8nwhwtAwJ227Zt4dXXXlOtCZO2GC6E4PNe7dq1K9QS6vsjiAWkYcb0GXqOTgLx7pP84z3RxNMRad2q1Xk7F46KA9rgOXPnqLlQ/379dGiZRpgy9Pe//z2cOHky1K5VWztLlOFevXurZg6tcfNmzXUkAJMjNM1Dhg5Vf+CAEQ3/no6KgpUttnSw165bV6i8wLsQAeKIggGzL8ojMgfzNRazwJ/vQSGxyMY2bduo/EbePf/CC7oaHNJrvcTJ6F5LkU/bd2xX7TOyCpMJTMTozA8aOEjjhmxiyrB9+7bwushIyPmdd96pZJVreRZxYoaErTNpRqmBdpn0kEaUIygZMD179bVX1ZRtoJBwOpssOIU5E3VTF9+QZ23dukXfCaXIVpHNvO9l0jnFtAPyzrsrARYZH3VwIzKMbEbuF9ceOEqCcbTYL9m3kEw4MXZUOCCyhVu+ieyjEUWAYGKBIOzQoYMKR7BNhB5Db9ilmfYCIRl9x8hmGSEKsYY0QKz5nd0oO9x2223hIx/5iF5P7/6K8VeEYUOH6eSIESNGqEahdWuEcG3V/CJI0Xi0kTgY3oboHhDhjg0aw2qQ1S1bt6oQJk0LhRgzlDd+/PjIHQ9ag2JAPMQHKcaudOeOnarxQ2jTMECC2grp7dixgw6tT540SRuJvUJqIb0QK0gvHQcEMekkHxDSlGmGJCHAN998c7j22mt1aBEty5AhQ8NAeUe0Lgz5ca0L6sSD8jL7gw9C927dwlApo5jUoNGH+C5btix88pFHwuhRo9RWc+nSpeHxf/5nbcBp0Gn4b7/jDu0c0jhfNm5cYR3QcqCuJWMPcjjKGdjZQviQqY2ys0MvkSWYwZ04eUKP3XvvveGGG25Qkti3b98wSsoxZZlyrjJ2QH8t96bxRZs7R+rCNVdfHW64/nqV4/369wt333WXEuj58+aHW0Vu33rrraocgaQSr3oGKojacsgzo2qtRVbfetutat4G2a1fv56ap6HgINChbN68mRJi0od2F6UHwCSCkbsjR4+qJhtTpd27dqtMhmgj7xcuRCmxQt+/fYf2Ik8HhwnXTgjduneXuBupiUU0ETFyNUpbdpZjJJ/QVT4YR4v9iuVhsvPRibEjobDPYAKFBh/hWaduHRHCjULrNm3UbIHhMjSsm4SMMiGDG/DUgDCEMLAlIFghIKtXrVIyiHCGPD73x+eUPCAc0ZoibCGYusCIRIYtHIINrS6aaYb6Xn/jDR0mRMOMEL7iiit0Kc/LhZiMEtLZt09fJTKke8zYsUrM02pGmoKiIO769erpsyH9+Le8UuLDNo13xKRCGw9JDxrpnbsws7gp3HzLLULih4UxY8bqhCsEPB0BNMLY4EGM6CxAptAo9+jZQwkwZhnkjxEo86GpRBpTlsKcdyQCdKI+mDNHvzE2xlZGGA1gaBozH0YdGFbG/vyqq67Ucr1m7RodYm7frr3OeucYmiq+Kd+W769yzb+nowIAIaSooqXF5KBuvbp6bNLkyarEoBM+XMgv+3ToUSL0ExJL+UTWUUaZVIf2lTJPeWUUbKGUe7w2YCvPSEit2rVC1y5dVYv72uuvaRyQ3nVSH5jr0Vc6+shv5Dsy+aW//z28/fbb6vrw8nGXR/bGU6eEKe9PUdJMW4Et88pVK8OSxUvUhhkZ2FOuJw48vECMly5bGjp37hwm3nSTKhD69esnJL2/kmrSjVICpQby+r777lNijZyHXKtWOEbUtf2KssxxSTCOFvuFbIuFZMKJsSOxiCv0RiexSWMpbgQwZLJF8+ZKGiDLaMxWr1mjWjbMJxoKucVUAu0bGtM/Pf+8CMLFSj4gq9kNG6rQfHPymyqcB8lxBBpkEpLIPoQRAU7g96KFi5QII7gRlEuXLFVhC0HBmwAmFh07dRQyukzjGHf55Xoss3ZmYZxFwTuSPuLlmmukQcFueosQprfeeisMEIHbBttguW7jpo1h+/YdQsTHK2Gi8cCEol7deqqhgUg988wz4dVXXw2TpYF6/fXXdWIXJGvDho06oYtjkyZP0i3HO7TvELIbNdJ3tPx2JA4lEWNIwbvvvadldtbs2WHWrJlKBugcUeZWSAdt185danLxwZwPpAw3UHdQdN5oRJgtz/f0b+qoCGjZki3llQnJjOxNmjRJzRJ69+6t2mEmxnEOO+O83Dwlmlq+5cbjx45rZx95C1kG6zesD5MnTQ6rVq/WMj5z5kw1fWOf0TfIMeZgdPY5zhyQ4cOGq5xGa8zI29siMzmPPCcNmE3gcQfFAXIapUjffn1Dzx491csQtvmQXdoR0kGAGL/6yqsil3er7TCjN0ywRqlCHeT3PqmH5MFNEyeGCROu1fuY8wFon0Bh/fM6WA4wjhb7Fctbzd8kwomxI6GIL/SQW/lS+n0glxzH3AA7ryaNG6uJA3ZgaGkZ7oJoMgmDa+nB07N/QYgxAhNt8MZNm8LiRYvUY8O0qdP02qNCptFWIHDRbnBdPRHczPqHvMybP1+FMwIU8whINdpbtARorpcKIWdYj4kaCFaG6tAkN8zO1gYEwamNQhFASIn/lVdeUdu6wUJ4EeZvCVF+4c9/DldceYWSbd4ZDwYI5W5duymZxVMF9qdKuOUhuAeCYCOYeT5a75YtWyj5hWxDntHWYNaBxgMtJDZxmIeoL1BHwlESMeYbQm75tnQC27ZrG03mkbLGt+V6RgAoK5j8UPYYBWEEgnLBfeZD2+GoCCC7KKeY7DApCmKMVwbse7GHnzZ9mm7x/sPEN+ZIMKGUkQ/mYCCbKcsQW8otWla0vhxDniNb6fwjO5uL/EJzizzDA0WXzl10VI3zpi3mGTwP2dyje/cwcuTIcEKO08nEphnFA8Sd0RWuZyIgPpMx0UPBQDwAcwnSDKFuJ/UOckzbgAkFaaUutpfrUagwCbtf3346ERvtOfmhdU+CcgrUOvJu1pY5LhZOjBMGGqGIDDsxTjnEfQct/Ppbvo/8mUA2u2JsgCF+LJKARgChiiBEUKJlgHBCmiGKaCnUgbzci4BEu8vxjh06REJTiDBEBHtk4sGO7sD+A6qZY4LdRz/yERXGTLbArg5iSV1du2aN2vniSaKdBOyCIdckG2LOUKES2GKACQikFVLPJKqs+lkqzCHBxI8meLIQ3iVC7Bk255q1a9bqxD/uJT0IYMwo0Ciidb7jjjvUjo8JXQxpYipCw4JWkRnYaNUh8DfceKPmHWSK93C/molFScSYYWJIMOUG0oCtO2UXzRiNcz3t4KTpUDUN8xXSWaOB5ztSR7BtNO8jDkd5A5lm7aZCii0aUzz+sPAStrl07JDTeNtB9lGe+c09dMRbSYcORUNEjAv0PGYSmHQhn3DxxqQ34kNJwYJHeINo2rRZGCWkF/lGnQA5uTnRpD2pKyg5kL2YtyHjMZtg7gZKDgKykrTSJrBlRA6tMccZkbQ5H6xM17hRY51gx4gg7tbojGK3jLICkzTaHFyx4Yee+1XGa5bIf7GtV8HyQFTWYuKxsOwRkgknxo6kwAq+fCF+FApWBBDB7GIhyGgS1P5YhCtkjxXzIMgrV60S0rlfiSwmEGOFbPbv30+9TmCb3Kd373D33XereQI2awg6TDGMQDcS4YjPYpb0xJ4XwowwRaOBYGfi3RtvvKE2xxDj5iLg0YbQOOgwnwSdCFUc5LWwgW7Xvl1YI+QaDxq8C1psJgISH3EznAjp7yqCmLRxHlMLtbPr21eJNX41mQ2+XUg7NqgL5i/QYUmINdpytNpMFly1epVODkSDMmHCBNWWoF1E61EoeRwJAR0gbB679+gR+krZ5DtAhpnBjjzCth1g+kM5ocGHAPPdOYZ2Dc8plEcINOWV61SW6Z0OR/kDGQWQFpQzbHOzRfbijxuyiExihAPZgv1xy5atdFIdnXJMGrp17apeVeJNKZS0SrmFzCLrIcMQXyabsqWsI1ebNmmi5b1RY+kICpGFpGNORrlHDmLywHbUqNHh5ImTYc4Hc3SSK6OMrH6H2R3yE2K8b99+IeTNI1dtQrqPHz8WVq1arYqQDRs3aHtz+Mjh0KVLZ3WTifcY5D4LPTHRkHdEMcHzMPUzzTfvAZRbeE0sB0guSl7GsjXK11hIJpwYO1ICVhFM8CCZOaY9ddlny+QICIRNSMPbw1tvvqUaZIQuRBYtMKRk/vz5SkIQaHiBQMO8es1qnaSxevUa1ci1aNkyHDt2NKxdu041sGgOmHWsC5PIfXjHePZ3vwtbt24Ll40dq6Sc89RiNCNKWGJr9BcFz2ayXJ3MOtq4IGAh5Ky1/4lPfEIbBIQ02oh777tPzThYuYlhvOnyXuxD1rlHZ1BLWugMsNIUz2XIcN++vfreaIPRitNYoK3BfzGaZBocyBjpS7agqW6gvPF96fQMGjhQOyu4rXrv3XfVy4nZLQK0xYAFbnSBBCkvfLOj8k3pCOEHdr809HTWIBD+LR0VBcodEphOP+VsjchKTM1wL4mZFgGTNUa4Fi9arDa5J0+e0M4/ZR7Zi8ICwgoBZjQO8wVseA8eOqjlG0BMkeGQX0wdMB2iWOPre/269drBx8SBMg+BZiLg9GnT1dRs3LjL5Vlbwy9/+Us1G0OhAWllNAUSjL0ydY93wQxp79496iueuRecQ/PMZL/evXprWwIRZl4LozPITsg4nVQIutpZS8KoceSH173yhnG02K9YHic7n32BD0dKg+9nRdS+J78RxAhG3O8ACCXDdIeFTDDUh8cGvEEwlAZ51J6/3AshgZROvHliuPPOu1SAY/f70MMPhaZNmqp2laE9iCdx/+Y3v9F7Pvaxj6ntG4JaybpAV4YS4km8RRG/4AbPhxix6MOMmTPDjTfcoFqNZ599VonON7/5TfX5ybKlmFl8+ctfDuMuHxcee+zT6mOT+2mQ8HmMHTEEmZUC0Wiwj9aboUDIOO7eyAc0Owh3JcaSXtLiSBzQ8P/ghz8Mt916a3j44YfD/gMHdJLkU089pRo0TGOYmc/oBuWJBptvyQRQFhqACKN1gxTQIWTm/IPSoUJrJ4XKdVWOCgHyCllFxx9bXeY2PP/882G3yBXKHLKX8soWmQQpbdqsmdofI8sAbS+y6rZbb1M59/LLL6s8xqSMe1FI4PIMm2FkFcSUMo6pA24NdZREZOGQIUNUiYCpGP6Uv/vd76q5w+OP/7MqQ771rW9pffjHf/xHle+082ipmU9CPWOE8SMfuVs7lozC4WuZkUMmc0OCJ06cqKT/xRdfVK30448/Hq659hol0KtWrlI3ia0krcRJ3I6KgHG0qI2nM2MhmXCNsSPlAcmk145wQlvKt8RHJgKUNfMRZthxMlmPBTyoVAjgocOGqU0uZgXY9OJNAoHI5A2uh0yiZV4vAh5NAZoL1RbLc9DuoXVmBjSzsTFTOHUqJxryE3IMWSYtXFtcJYaco+k9IoQHYgsZIs7ZH8xWH8SLFi8WATxfTUSuvuYa9XABiaVxePOtN4XQd1JbO94DrQiLRXTs0FE15osWL1Lfn9juobFBuwJJ530Ybpw7b67a8HGe1sztixMPSIOaUnTvrj6mabgpX+zTMYMw4Hbq/vvv17JJ54Uyc88994Rrrr5G7eMhC5dLeb36mqvDmNFjQpeuXTQOtzF2VBSQZZQt5CBlFoUD/nzHjhmjo1qYqzF6hmxC6YDJAf6ILxfZOmbsGC3TV151ZRg8aLCat0Fc6cAjixhtQ+5+9KMfVdeVyDZk3qc+9Sm9nxGuVq1aq6kEMhuf8/hQJh2HDh/SCX7162fptSyMgyYaQsuoDOmmI4lcZpL2e++9F9kQC/E+eOhA4ZwU/L4zusZ9rEpJutAgc+/gwYNUOcKkPGTuDnkGi5CwuI7Xt4qCcbTYL9m3kEw4MXakNNCC8ulMYBPMbhZtGho2CDIug3DR06Rpk5CRnqHDcHiSsMUu8H+JvS+2vcw+rlu3nppTMHS3cuUqFfAMq+lzJKCRgHDSAGDSgBZkwcIFOszYVZ4DQWYInOPFEWOE/jEhxX976aXw62eeCVOnTVVbOEw2SCtECA0K5hnaKDRprHbVEOOpU6aGTtLooN3gOaw8tUBIeie5j7STCIgXWkfs8tA0slwqwp48wfUbmmPyI7thtpZ/R2JBZ2u+dHy6d+uuZQ9CS6eG70sjTRmgkaZ8Mqlz29at2hCzcMKIkSO0w0SHisadCaOUQeLA9tLqgsNR3kBbrG2m7GP2gLebLl26KkGECCNrkaOMdFA+me8x4boJOjrHQhvYHquckusguhBrrsMlJXMoIM2MvLVo0VzNLjBXe+CBB9TkgevRIiN7WX4Z//Hcn5uXq4s9sXw6E+O4H9nJqAxykFE/9qdMmaKjcsznYP4FJLlDxw461wTZy7ux9PT69euUEGNuRrqZ39G4UaPQqmUr9ayBf2ZG3FjsA9eJkHvqnqMikJrEOLn6aofjAkBzAbHD7hKSDNDUMhRnk98Y6soSoYvwZsYykykQztilsRQz/n8hKbm5eXoPGrssEfhaAeUPjSpEG/MJBOtvf/MbFZBoOiCuEOYxY8YICS7QYcWf/exnahJx5PAR1WYUBwgzAh0zB54JWW/TunW45dZb1Szjvnvv1Qkf2OP9+S9/CX/4/R/Cr371K/VDjFshiDWkmCVPWSWPDkBLSQvphdwzqQTH+TQmTBph+I8GguM4rydP0LBg4+dIPHDxRHnBhpwOC7PrmSiJ/TgT7G6UbzRg4AAlBi///e86OoEJD0PQ9erVD4OHDNYO0wHp/LDUOY26EeLiOmIOR3kAAojsSBO5ioIAMJKh3iNE1nEepQKjGYxKMVFUXUtK2aVcI4ehNMQhhVU97kBYYdrXXXddGD58RNgoZJbl9nGrmZlZW8szAQIKUV20aKGatyH7AJ5b0OgiS+FLyFbAKBzaX9UKHzyoRBs/73/+85/VKwzys0/vPur3HoUBbQNeYhh9wVQDN3SYs+FXed/+fWqXjHkePsZJR8MGDcPcefNUq+2oXnCNsSOlUdhz1M3Zj2jfmD/Ion3j2rUzVXhDfFkVDtKIqyF8BUMcMW1gogbEE8LKuezshqrt4PeWrVvCpo2b1HaO5abRutrzWBI1EvghMOOZCRsMeRdnv0u6SQdElaFySA4aCswwINMIeu5Dq02jgHYjJydXGyGeyZAj5B6yDinq0bOnEmLiJe3czxAfjQlpQhuJZpz3hSzTcHFdo9i+I7GgrH0gDW2P7j1UG4bWDHJMo46PVMoFHSc6QSz6wgIeaKm6y/UNGzaQb5cedfakM0QjzbenoUex4sTYUVGgfEWyNTLBUvmr/2qoYkLlrFyDBhb5g2zRkTa57swZkYNyHjthJsEx/4KRK+QqZm09e/VUcotXiM2bpMyLfMSTBYsl4eECuYh/eEzCGJXDmxAja8g37J15Fn6Pe/XqrfKP+5GrjOrpCJ48h7pCfcNc7hZdRXS4XJsnxLiZXsvoDKNxkF1kKx6Hjh07LunK0zrKu6BVRq4SH4SaidB0bh0VAeNosV+xMqflLonwyXeOKgMV6ghv2aJpgxiiyWAfJ/TYjTE0jQkES+5iO8xQHcOFCESALRuuf1jdqWHDbNWUUJYg4AhQPAXgPYBhQTQkaK6Lg5U9roXssg+h0W1aTRXEaDkQxghg/H1C2Gl8iLOBEHPc0HH/4UOH1PcnaaEs8044uEewM/EFu2qGFiHppIv35hwaFdJoDuodiQOTen704x+FiTdNDI888kg4Kd+Ib4JtMYvXsIS3Lnwg35/ySbmAAKgtpmwZ7ZASpN8QEsBESnxvo+mCmXCvw5EoYObFCAgEGDkGsaQsQx+YPKfzLZBzet1pHSHjnLlPo/xCZI2QMtkUmQThRP5yTj39yL2MciEDkXmQb+QjfuiRvTynSeOmKjeR55hSYG/MbxQCEGPMPSDZyHSUHrj0JE2Y2dWsGdnycz3poLOKNwvei2uIH6UKBPygyFTSTnyuNa4oGEeL5Blly0Iy4cTYUaXAV6avCdHU7y9/CDtmTTO8xoxl7I+ZcAEp7tC+vU6ww+YTAgL50Hu0zESaaLVzln1QtB9rxz8Enq2n+C/SanMA4k7cpIkzmkYRApiMqGCWcwgFnqvpgdxL0HTIeW5KE+Gu1Zb4YvFE+5FGBxtsHQaVfb3OkXBMgRg/9ZTaDDO5iO/K9+Tb8j1paNnS6PNd+Uo02PpbruVb4oFEv558Q+63b6llRoLDkShQ3kwOYmZBwaTcGolBg6wmaVKmKecGK6smhUzmWblW+cXvWBk3bxiYbehvqQ9ombkeUyOeuWfPPvXeQ2BkBmLNHBEmukJi0SybLCWtNYWso9goTIRA6xJp44dsFXKMd2H0jueSLn0XOY3MdVQEovKRasQ4uU93OMoTUsEQgmhZIYfIPgDpRPuAR4Bbbr0l3HXXXToJbueOHeHdd98N7773rtqnIQTRxCE0uRXBSgVF44roZKUmoEI3FrmRlaKAAOPjuKBAyKxcooJf7mNLnKTJbPiIG6JEvDQ+DEUC3HnxW4UEwlnuyciopWlTF2zEhXBHsMt+pPmIVelYuvg/ehtHQiH5T67jeg37eDpq1sEh0PDyTSmrRiT4zpQ51bzJn347+W33oAWDOOj3djgSCMocpY7yiOaYcsoxyiWkWHZ0JCx2sZ6jPBO0HkiZBnq9yDqTrSgitJzLca0HxIO8ky3FnAmAxIXbSkZPUGqwKBLzRl577TW1MUaxcdVVV6lyA5JMPNxDfeE5xE3qqYMad+x5WovkP5XLpIeRPDqsUjc5D9h38Vn94DbGjioFiC1kUW2BBRAPhvcYmkPoMcTHsB7DbthtMoSHQ3kELpM4TKBCXBCUSoApQxp5JCE5B0HhuDUQH4Ic0+OxwBVWFvlNGi0+CDIEmHgjEh67Tv5BpiBXNnSOEGd5YAgw96iGm04A8RB4lgTSreVe3r2QLDsSBjxPzJ07J/Ts0VP9sdr34Xvy/RX6iSMiQLBvZ413fJnhvmgfO0497XAkDCa3KJMUPy3P8lvLM2U4Vj6RT0p6uZbfKsci0hzdHdUBruc4co17kNdczzZ6Fv+i+HkWSoxZs2eFqVOmhXnz5uucCurVtddeq3M3MMlAfuq9AuIioCghfTpChxyULfLU6mHsck0Zz7PRO+JRLbj8NoLtqAhE36nwO8S+GyGZcGLsqFKACCJJTVNQSDKkACA4OQ6ZxM0QBLllq5YqJHFAj6kFS0ljr8t99eUaK0Ncg0A1kqkaEIk/XhjHg/LGfZoYDYJYXKYFtAZCtRUcF9LDkBLXWLppUHiWDeUh4HkmYGgRW2XuV3ItghyiRXKIjzjkifZ0RwLBSmFz5wgx7hkRYyMIoLBc6jeXjR6NjheWCzlv5YpvS9AhZbvX4UggkEHayaYsSrnVIPvIUzroWpBj5dfKNr8p25EcjKDyT47Hy2cmoTJZj+v5TV3R7enI/Gjf3r3qMWLunLlh//4DoWvXLmHMmLO+lCHFxEucBJPz0T5+6ZHbknYJKEpQkqhcJH1yzOob15MGnommmOPIViXVsfQ7yhuxNjESdbpvIZlwYuyocoivXCqYo8OFZcK2aIsbZDVQl2xokE+eOqnkGF+z+w/sV28QLFUKAeUetM0AAcpvg8UZkWezw0OoIlCjv3houmL3nBNP3JV2XOOQaw0IdwPXINDtvO3HX+9IDvA0gW/pPn37hv4D+msjD2i0KSN8XRptvqd2fKS8EMysgrLHqISWg1g5if/WDkcioWWviByjXALKsJXL85VPynCkuY2RUWQkfyLjVHZKPcBLEPHit5jV9vBpPG/+/LBq9Wo1pxggden6628InTt30iWbM6QOyQ0SZ/QM4uY5/I72zx3Ri69DtuX66J7oPbiGNBD0mF7lqBhEeU5266/YNyAkEz75zlGtYRWQCRfMlD52/FjYvWu3rp6E1o8Zzd26dtMFFnC1xoQ9NBQIeNXUyv2UNUqXEWjKG8K1ClYtRymBn+sffP/7uroWCxhAiCkrmPNAeNW0Jx9tfzQCQJnBUwWEgKFbNFaMADgcVQUqa2PtsclOyDGmYdBPZCZeWlatXKkLdDC5DhnK0s59+/VTt2koMKgfBKCmcrJ1eVtZYRwt+nZ8RwvJhGuMHdUWVEULVEQIL7ZrHdp3CG3btRPhmxH27duvE/NYiOPQwYN6bb369QorLlsV+LHyRkGLL3+O6gk0xgz/qp/WYUN1tAFtMOSXRgDNGMewqeQ45QjSTINvGmTr3DscVQFqTiSgU1goN2OgrGPCxmI27773Xli3dm3IrJMZ+vTto/6HmTjNQh3UF5O9RrD5TUDmOiobjKPFfsm+hWTCibGj2oIiQbmIr4xM0MBdEMSEZU+bNW+uAhgN8t69e3RBhsOHDuvqeTilJwLzMKGCmjhjds7E56ieoDM1d+5cJcaDBg5Sf6hM8Fy3dp36V6XMrFy5Upf1xtYdG3d+oz1evWaNzsBndIJy6HBUBVCWkYjRCFvURtMpxHsPk1XnzZuny/BzDNdrE66doAsdYeqGbIVY41+e+5G7BJPbTokrK2Lfz4lxxcOJsaNUoHzoH5CaGauc0TDdGSEv6SFbSEvbtm10KVEE9lYR4MuWLVMPFvXr1S9cAMS8YFDD3QuEQ71SSEPfpWvX0K9vX11MYI0Q3mnTp4Ws+llKenE5xZDxwIEDwzvvvKOLFTAT/i9//rOWL1ZApAPmcFQF0BYrKRYZCUlmhISO4Zq1a8LsDz4I86W+MO9j3LhxYfz48aF1m9YqYwHXRzJW7q0ZEWxr3wnIXUdlRPT97POd802TCG/BHdUWVL3CTpT84a0C4Yt2D5LMPu7TGmU30tnPDOndcccdqsVA+8ea/H9/+eVwmBWZYkN6VqFdTFdvUB5U2kugsYcIoynOrJ0Zpk2bpuWHlQ9ZoAC7ymNCnFm1q3mzZmHb9m1h7969SW8cHI7yBHWCMo1chSBTB15//fXwy1/+KixbulSXs8f92pgxY7SuMHoHITZTCWqD+VCmA0lAdnPOR1Yc5QnXGDscMahPTRG6OuQXKzfABG/tzEwd1sO8gmOHDh8OO3bs0JnTe/fsUU0zJIhrGRIvBHGxJb4iBZFfmGHoOUeVwUYhvLNmzgy9evUK/fr3V7vKxk0aq9kEIw+tWrXSmfb5eXlhrBABVvpqIOR5ptzDstBDhw5VP9uUM5Ywxy0fZZKyZeXS4Ug2rI2ND5ROPFVQVuPlaWQCEcLWrVvDlClTdNl05GdjqROsXDd27NjQvUePUKdOpo7WaVxxZd3adEC9IACOe52orDCOFvsl+xaSCSfGDkcpgSBG25Gdna3Ehsl6eA7Ytm1b2L1rV9h/4IB6t6AhoKZja8z1NA4myJUIx8qlBUfVA+Vh+owZoWu3bkJyh+iw8Y7tUScK4BYQ4nzg4MHQpHHjcFDKDu7dGFJGa8wIBaYVmO1wH9plyhuT94CXG0cqoGg5lJa3cKvtMPuyPXHihC7Djykanb+FixaK7DwdOkg5v/GGG0K/fv2i5Zzr1oUqRXHIfY6qDuNosV+xNjHZ8s3dtTkcpQTE9lTOKbUhRjPMBKlDhw6pmzd8HzPhaqcQInxntmzRUk0uOnXqpERZSXGsPLJv0MbDG4Aqh2nTp4ennnwy3DRxYnjwE59QYoDZBGYUlJWXXnpJSTKrdt19991hxcqVOvFo2LChuloegDzv3LlTbS5Z7rZv377qMhB4mXGkAozAFC2PSowLImLMAh108Jhch/kDJhPt27cL7dq2C82bNw/16tUrdGeoq3zKTfG+kR1VGcbRovJjCqT4NjIZcI2xw1FKMCtatcEi7nUFJRHmuHfD0Xz79h1Cu/btQ2ZmZti6ZatOtGLIEG8DlMEGDRsW+jlGBFAepXRqvI6qh7Vr14Z5c+fq7HqGiWn869evH5o1bxb27tmrRIByQJlgBS9WyMuS82iYb7nl5jBi+Ai1dae83X///ToRj/utw+9wpALiy6LJNoQbpBj3a4uks/f2O++EBfPnq8a4datWUraHh8GDh6h/YkbU8GVsCxehdMC0zH47qjqMo8V+yb6FZMIn3zkcpUQ0Ke9MqF2rtoRaajdKY8As6RPHjyvJGTxokGoA0fIdOnxIh8cnT54c3nv3XR0aJw5sTFkJjXtBTCY4qhC0wZfywWhV/ul8nVyHyc2kNyap678777wzXDZ2bNi3f394f8r7oY50qLBHxvZy8aLFhYvI4J3CFjRgeXDiVJt0hyNFEC/H8CuMu0uW1n9fyvJbb78VNqxfr3bzN954g46g9O7dW+2IMS/C3Aw5avcrJD5dZtrhSBJcwjocpUT9evV0ix2xLeurZjsFp9WtVr369VVj3Khx4zBk6NBw9113qysuPAxMfvPNMH36dCVHx4XsoHFGv2KNiiqPJajWRULUi5ZzRTvOKdCbdlwY2J7rqEJaWqhXt54u8bx23Tq1KWaSEcPJjDhcMX58uP/+j+mKiwwzswoY2mTcWPGVGWqGDNsQM8BUx+FIJEzmFJLXIiKIDiCk+KR0/BklQ1P8wezZIedUThg1alS45ZZbwqBBg3RuBgt3YF8crVoXybkoROWaDiDLpTscyYKbUjgcpUR8mTIUNhixMkfAxRseBpo0baKakoYNG+rQIA0GxBgtIF4IuA7Sg6ZZzTRkXxseuZbjSqxqSgNhj9NnR8/kOY7UBX6MWfmum06+G0oBUbdsaH6ZXPfqa6+pRwr8tWI7zBAyv+d8MCcMHjJERxdWrFwRBg4YqL6QrWywjeZMuEBzJA7Ip2i0Ihr2NlmHxxTKLtpfRkIWLFig3iZwxYYHnzFjx4RRI0fpxLq60kFkYRvMLCi/pik2QJKBxe2oDjCOFvsl+xaSCSfGDkdFQAoc2kL8cXYVYoM9HcPpTNDbsXNn2L9vn5pa4JeTiXxcD0HmHjQvlFuG47XsxoSHSo9Yo+RIbWzbvj188MEHoVv37mHQwIE6soBnCVa3e++998JrQow51rBBA7VHpwzk5uWGzZs2qzZ58ZIl4dTJU+GKK68UgtFcywlEQm2MixAKh6OiQWcM2QQJZvQCmQQpPnniZNi+Y4d24mbPmq0TSBntgAhPuG5CGD5suCoGMB+TWyI55nAUwjha7JfsW0gmnBg7HBUA803MEDoNQlZWg9BWGov2Hdqr386jx46GrVu3hW1bt6p2kYaHYFpk9oGUZG2EgJZlZcbRviN1gcYXYty7V68wQIgxQ8yHhBhjQ7xixQr1MtGnTx/VtOF5Iic3N3Tr2k2uO6mEGE8n/QcMCH3lGkwxCoQQp0vZwERDO0/WkjgcCQCddMqqdszkj1Evyu38+fPDHCnnq1etVhMzJo9ePm6cmgsxIZmGl7JPmSU4HOfCOFrsl+xbSCacGDscFQDKHOYTpvWF2GB/3Kplq9CuXeSqqFmzptrY4L1i4cIFYf/+AzoJCz/J6rVA74sIclFBkWzB4Tg/cLU2e9as0K17tzB40GD9rvWz6ocuXbqqmQ1LRA/o3181aww7Dx8xItStUyesX79Btce0E3zjbt3k+oYN5VdkaqMdJv/0jiSATjlyibKL+zVcDzKyQbnF8wreVbAjxkUlHlSQX/KfjoTR2dffDsc5cGKcMFABCZbB0X7spMORAOhEEqnsOvwojYI2DHIcYoN7Ishvm7ZtQ4vmzXWoERderJ6H9nj/gf2qmcEe1fx7qn0fhdjLcaUA2jQW60ALzOIFTCiiLDRu1Fh9Gr/w5z/rt2ZEAX/YuGtbtGiRejsZMXKkugHcuWOHkmTKCDLMygCdJS0LDkeCUCDy7OjRY2H9uvU6ErJ48eKwe/fu0KVz5zB6zBj12d6mdeuQyaJHIrukwOp9Kr+k3DLSYW2yw3EWTowTBifGjmTDyLC6ZhMyrGVRftuEE/VqIeUyU4hP48aN1QaZY1u2bA4b1m8Ie/ftU80MJBrtSy25jrgklsIhSS3b7MSVdUdqAFtyJt/hx3jYsGE6C3/Tps1qT7xx08awR0hFXm6udpDQtuG5BEIxZuzYMHDAgNBQjvNtGU3Qc3J/lpBlG0nwb+24FCCLKEFMqmMH22G29tsmyBHwlrJLOnpLly4JU6dMle1SJcpdOncJ119/vY6AIceQc1o2JV5kH+A3AblnxxyOszCOFvsVK3OEZMKJscNRQYgvg7EDegzYMbaYW+C9oknTpqFpkyYcDJuEWEUTWfbpNY3lOO7guB8No2mSrcFh3+J2JB9og9Gsde7SOQwaNFg7OUuXLAnf+MY31IXVhOuuC1ddeWU4dPhwmPzmZP22eKjo369fqFuvnvp5xfSGe5577jn1ZtK+ffvQTMqI22o6LhkxWYS5V1paetRhl31rJq0zj90wE4VffuXlMGP6DNUS09m7/PLxulAHcgvbd12kgzgkTu4DbDXoL4ejOBhHi/2yMiMhmXBi7HCkACindevVDa1atVZfn7Vr19JjeDJgCWEWBmGYHRKN/1vIEVobtMg6dCnX+mpRqQOWf547b17o0b1H6D+gv34nZvDDEjCtGDtmjG4hwSyHOnTIED2G6QTXZqRn6CIfrJgH4ejRo6dqkrOysiKtnsNxKZByGE9ZIcI6iiXBQGdu9erV2sHbsGGjlj1siFm8iMVo8NdeUxfoSCsk1gqXQ45SIzWJcQ0hjVVOykIUCJbBUe/XGxNH6gKNC42SNU40SocPHw7Lly8Pa9etDUcOH1GTCzSQnTt11n2G27FDxn6P8q4rozEk6kg6WPXrJ08/HSZOnBge+MQDSh7wNIG4pVODxl+EksgmZFWBTlDC/VVebp6ex3QGUws0dvizxv8rvq+1uUCu6VMcjosDZYyyiLyxDjXtJAG5wwgFnlWYRMrSzh07dlTvKr169tSyyXWQYR29kNspkcSnrWzVoxSOCoNxtKjMoASwkEw4MXY4UgAmCCi31tBAiii/m7dsCatXrQrr168PR44c0caoZcuWoUePHqFnr16hSZPGSrzQNDpSAzNmzAhPPPFEuGniTeH+++7X4Wa+Zc6pU2oiATHGIwni1+w9ISmMClAG+Ja6eALlQkRXXr5cK40HHSEjMA7HxYKFOmwSJ2URl2r79u4N6zesV1/ayBpcsnUQQszIRk+RNY0aN9Ll8LVtjZEXvO0UBS2td9wcpYMT44TBibGjskGHz2Ou3SipNFY0Olp2pRE7fux42Ld/f9i+fbtOyNq+bZt6N2jZqpUOw+MWrG6dulreHcnH9BnTwxM/fEKXwv3Yxz6m30W1azGY2I2+t+zLPyXIyCv57hzXMiDbSH5FpjJmRuFf2XEpUGKsZOSM2rwvX7EizIgtWY9HlE6dO+nkOiYF0wmnQ0b5pTMHMOeinBKPCiwguzV0xEpKdIzoOBznR2oSY7cxdlQ5FBKN2PePD6C4Y1Ze5D/9XRwgJVRfCKxpc9NY05975BzklgYEkwYakOIqN40LQ+M8BcLDb66LTwv/kx59Cd5D/og3u2FDbai6dOminiqwP2a4k6WmWRSCeBmSZ6hT4yE+izO2b3WDhxCv41KBxq2Wfvua2FqmRZpgPFAsXLgodOjQIYwcOUq/Nd+ZrMcuk7JE7kOGzQMAsHLI8dgB/V1oP865aM/h+BAoZ1aGIhkSM5uQLSMSuiQz+yIrMMFilTom+c6cMSPs2LFDl3EeOHBgGDN6jC7WAUku7LBb2YyVRS+HjktHVJ5iRbWwfFkZSxacGDuqFJRkxipbfOWi3mG7S1lQLZwEGgcjpmeHB+WeWCUtCotPNXkQHSXAQogoY3IcUspx/cHz9epzwXmCDYlbOS0JRc+RVobls7Lqh6ZNmur9O3buUPdge/bsLrQZJI3YpNIQKiGTP2JiH3tmuTGK0HFJ4HNThnJyctWGGHtM7MNXrlylxBiiwSp3dGKUjBREtuBaOuQ7FU5ain2PkkuCw3F+IAtU/hFicoNjhIgQy590wvKl44ZJ1qbNm3Vi3YKFC1QWDRgwIIwaNSr06NkzNG/eXMumxelwVAyidjom/nTfQjLhxNhRpWBks1hoeRByWCPyJ4zAN20K4Dda10LtXBEUavkoU7LNyIAIxwiNxl1DyY/+1v8/DJ5HPDyLtHJPWcEdmbUzdVY4HiyyG2brpK2t27bpCnqYWtA44voNLwcMd/JH2ix/SPXFPNtxLshPwIQlZvDPmjVLfRXj65UFO/jeuNdbu3atEuZGjbLVTpOhaF0ERj4B36bEMutwlBJRxz4is1rP5Zj+li1lDbl3KicnbNu2NcybNz9MnTJFF+qoLbKElRchxYxw1K9XT+OwOQvE4XBUDKJ208SftaPJbpvcxthRpYAzeiW9ppUTFDYUsaKu5UKu4TpMIiCquMbiONqUkhA1Mmhf0tW+F3KjcXFOtYY5kSmFHANGkuPB9bhew9yB50OczG6vLLB3gvjm5OaETRs3hTVCvlatWiXEeIuusDZkyJDQp28f3a9Tt46SaWAE2XHpOHMmkjGsdDd16tTw/PPPq2kLeQxRxvSlCT6ohWyMHTs2PPLIw+pRhHJSWD6kuLg3EcelQjvbQoDNvpdRI0Bd59yBgwfDEiHC8+bNU7MJjlM+WYAGN2wsIAOBNtMe7rHRpeJkmcNx6TCOFpVZLXOxkEw4MXZUKUBcIRl8d4o2pgWAiqZF3Yq7nGd4EWKMDR2kds+ePeoCDY1JcWCWNtc1bdpU46eM0fiYbS8zuyG7uhhDh/Yk5kMgDdxLengepLx5s2aansK0lQLa2En6oeBodugQQLCPHD6sE/QYJmV1NYh3mzZt1BE/w/psIWmqKS/D8xzFA7tihDplg5Xuvv/976vWmPxFQ0yHi+/TtWvX8NBDD4VPfvJhyf9okiRlk+/Hd0h2Q+CoApAyxYQ4IxaUO+QbZhN4tlkjHbXtQohribxjQl3HTh1Dp46d1I6YDrbJSJNPbJEzyDkvn46KQWoSYzelcFQpyBfXBgJhTqOAdpaAmyyII8f1uli54FoqIf6C33jjDbn2pA4nFlcxJ02aFNatWyfkuWHIqp+l93Nd1PHSJ4edu3aFKVOmhI4dOmpjUxSqcRYSzQpSkydPDqtWrwptWrdRsloWQLwMaMch9zyvbt26Sn5ZphWH/BB5JugtWbpE037i+Al9FhpkXLw5Lg0IdAgI+Q6YyIQpBSMKlAkbEejZs2e4556P6sTJ9PSYOQ1lT76dw3HJQOzJn5p7yX5uTq52vFdLWXz33XfDzJkz9bJBgweryQQu2CDFyAhGvpi3oPJQoLKRP+KSv2STFEdVhnG02C/Zt5BMODF2VBkgzHWkQP7Q4i5csCD87re/DUuXLQsL5s8Pc+fODcuWL1PNaeNGjXRyGqSZosHktd/97nehSeMmYeiQoRJTNJmO+JgwdeLkSdUE4/B+zpy56tcTTQvEk+toPCBA+AL9wx/+EK666iolnzRUgPRoCuUnxIhG64UXXgjr1q4LY8aM0Wt5KPFQZrlPtcIlNErWiCnY5bcE7IlZNQ3yi2YbG2T2IW/79+3X9O/dt0+O1VfNOA0iWm7OW52J1yabgDLyX5XA+xQXeFc9H/sWBPlPs7ko+D5MvKNTQp7tle+POQuT7ThG+UFrzEIfLKPbqHG2xs+1hHgbdb6BjgKQBrU/lmfrWYfjXFCGCuUD5VOKEeWGUYgTx4+HDSLPpk2fHqZNnaojSHSUR4wYEQYPGRxat2odMjNr6/WAbdH67nAkBpF8jRU/3beQTDgxdlQZQCPQnEJoDhzYr/aez/3xjzr5CQ3tkiVLwvIVy0N3IbVt27bVe9De0rigTWWGNotmMDsbbR4TqphAtXrVar0fkgO5nvTGG0p6ID8HDx3SOOpnRRrkw0eOqK3pNddcE+pk1lGb5R07d4YVy5erJnHjho1hw/oNSp4+mDNHn9GgYUNJ70El52vWrglbtmxREta4SZOyESO9mPIeNZikC1vWFi1bqmeEbOkMkL4trGZ1MPKeAJmvUydT30frikYUQYWTBLbaAJv0qiLQ9ysGSohj++eA9yc/ZFfzRO+PguaPgFEK7DcJ5C+LefTt2zdcd911aseZKXnNvfFB/tNvph0S/uQ5mAOVNAnUUb1hbtdsjgNgq6YT0lFfumxpePedd8LKFSt0LsOQwYPD6NGjVbYxskH5cjhSA5EMtCJpMtHKdbLgxNhRpQDRM7+b2Hpi+/nYY4+Fm266STWnEGC0xewflXPY5B4ScosNHmQ1q0FWaN6suTYyuEF77bXXwhuTJilpZpicFaEWL1msz1gmZBfvA5Bi8zZwXOJ88803ww033CDH62v5mysE+C9/+UuYOXNWWL1mdVi0eHFYtmxZWC5h37694dDBQ/psSDgBrxKko3379qr9LS1MmKhGkt+xY2whvq1atw7t27XT82iqN2zcoBpu8gx/zJhW4GnDJoKRh2guuR+tMr+rC5SgxmlzbWt5ChGGuLKgAR0Q8oZjDaWTQycKzTw+Yplox+jBlVdeqROdatWKVsCLD0RKzNGiCZEmkOP2DR2OeKh8ky1+iJFTjFoxorV/3z7tuM+cMVNl20Dp4DPhs79su3TprKNEVrasI+dwJBeRDLSmxWQiIZlwYuyoOpCPTKOBZvfY8ePh/fffU63dXXffHbp37x5OnjgR3nvvvbBSSOjKlSvDrJkz1W74rbfeCnPnzQ2zhfzu2L5dZ23v279P/QS3FSLZv18/HYZE0wyJxFctQ+NDhw4NnTt1CnPkvpzc3NBJ9tFOT5o8Odx6661KRq0hys7OVvvSzp27hG7duumEu+07tquniBtuvFGd6qPV7Sbp7Nunj2p3mso1F6M1pNEzwaLaJdzKCeGCZUHUsEHGDAQXb2izyQ80nAzjk07VHhOH3E/6QbIFVUIh70q+K/mNy0szi4E0I8mRK5Q1AEHhOswmGAXYtGmTlhPKxI3yffEQQmeHTFXSHffHQeLKkzKE1tg0x9EqYg5HEUhZyT8t5Y3CJGWOyXXU3+nTp4c50gmn7o4dM0ZNtDp27KheUTDZiZ+YF+MhDkeS4cQ4YXBiXH1h3xySsXDRItWIjh41Smdho+2l4WjXtq2aUqA1xt6Yc7QxeHGAnHbp2lUn4DFRBa0LDu+bNW2qGhk8T/QW4jpi5Ai1Lcbc4X0h2xBI3B5BjPmNxphhdAAZhbCvk+dv27pVNdS79+zWRSCIr0WL5ro4BNptvGIw9M6SrLUyamnZLSsKyZwEI9ZGuDgHeeOd8VbBkOwRefa+vfv0/dBy4twfkpwpBJl7qmrlKSlveV3zbMJ3hfSyRWtOOYFVcC9EGS070Wh+C8hfvjW2xtzXv3//MH78eM1rRhT0fv3vbGDhGVy87dq9K2TKtyHfT0tHRhdluIjv76jikLJGOWOCJzJthnTwWc6ZUQpkDYSYCXZ0gCmXWoelHFGn2acsa8dLy5/DkUwYR4v9kn0LyYQTY0eVAvUL4X/i5Ikw5f0pYdq0aUpE586bp7a/aPLu/sjdSm4bNmigpGXCddcpiaVhGXvZZeHL//IvOrkOTQsNEIT27bfeUu8OaHvRBqNxRtMMyWZCH0s0jx49RojxCR3KvOrqq4UIRUsFU/7QIm7bvl0n4dWJEWaG3LkGX8NMlEO7SzowoaCBw15V7Qj16guDss678zw0mWiIgGl9aQxN0wR5wwSkY0fpAAwcpMP8R48d1UmBuB2jQ0EcxEkeEJItrM4FabmUEJWVuP/0f/IuPy9f3z0//7ROzjx+/ERhZ+bA/oNhn3Qe9kkngsDEJmzHKTuY6dgS3ZAW7oGc0NFAqwdZttXxioZt27ZLHFtUk49tOt+eSZpRygxRus9+hvj3KWtwVFZgOoEXHUamIMSHDh5UWcUIFnMb+ohsMzmAmQ8dOOYa8Ds3L1qq3v1mO1IDqUmM3Y+xo0qBYUQIIQTkiSeeUBvhT3ziE6GNENhFCxeGqdOmhs//0+fVrIHJeDt37Qz33nOval7wQcskqUceeUQbD0oMpOf//vAHNcFAwwxpxR63Q/sOoWevXkpof/L006Ff/37hkw9/Uhfb+OpXvhp+8pOfaLl7U8gzE+8wtTgq5Ig4sQ08eOigHF+hphnDhw/XSTIch6wyY7xBVgM1/7h2wgQhyY0QH/p+NHgRaYqc918KqBvUE0QAaUVbjNZy9eo1umAFDS5O//v07q2NbRN518gF3CnJH+yRMzT9SrW0sY06oXpANuUlWtSEQeOlPke7NWtE2i/tPMhWvxeLE8g51YjJjj2fdySdALKZm5un2nkIKdujR49IOKb7aPzz8vPC8WPH1QyHe8lrAs8xgW1b8oBz8Z0HngsRJh2co7PDcdIAqSkKriO/eT4Ep1mzpqFu3Xqq2SeQ53S8mDhFoNNUv349iTtDn0/cJAfTC8sLEB03xUCUXvYtf9LTKePkrZ6Kvhuw347EQPI9Kqt0QqnpUb0EHLVV6ygfdK6WLF0a1opc4jt37NRJPU60atlSV8LER3FGrQw5J8SY7yx/xOdwpCYiGZVqfoydGDuqFPjWVCrMA34q5BR74a9+9auqIX7n7bfDb3/72/DAJx4IY8eMDe+8+26YN3duuOfee8KhQ4fD0z/+cbj66qvDAw88oISEsgN5xg8oJIoSRIP09jvvhP/6r//S2d5vS5x/+etfwm233hYeffRRbbz+8z//M/z0pz9VbTH3ol2GOEJ80dygUSQOtNc9hPyi5UF7fPjIYSXcaBkBvm8nCDGOPF5EpI/hdeItD8GhdUMiNXta6gxEE1K3QtK8VN4dDTLnGjVqpNp10oRnBeyTAeeIB+iWOGnU2S2HBhnxRLz2DL4vMaelRRPe7Hsb2YMYEgDvgVYXws/34104hhaY9yQY7H7LV5MffC8jqAQQnx5IK8eNkNpxtsRh6eebQYpJS1FwDR5O6MwRD7+519IC2I//TbqwB4dIEyDOBMoOxJlreSbxANJg91saJff0C/GbclBQEF3r2sTEwsgr3wEZQ11nh3JqZYuRCeZBrFixUuVHV+nYY+pFB79RbF6A1YXC7yvflOBwpC6icu/EOAGgMbCGLcp0J8bVBdooSMAU4MdCdPH28I1vfEO1r5DRX/ziF+H+++4L119/fVi0eJEQ43nhaiGmkKYnn3xCSOq14VOf+pSSWCon2j5IFUPlhw4fDvPnzw/zhWw/+OCD6lbtby+9pOT5gQc+LsT4UzrBj+fxbAgK5IRhdRoucOjwoTBjxozw4l9f1GF3ZozfIGmBJOO2bczo0aFT584aj92DVhBfyjSWNJKU5/KAVX1tQOUPQhQtOBHZaEPUyL+Zs2ZKh2CtprVHj+6hW9duoVnz5tpoa3bLH3GQLtLHN7D0XiroUBQils5whnodHTcBqou4MDs/ZsJAgGyy5dvxDdG2seU60tqrVy8l/Jg6QCjR/uNVgnzn2/Hb7MQTAWQWGmvSTN6bm8F4cm/vwzlGMEgnAYKO3by9D2nHLAMNMySafLJvEwHynR/txr6hfkxQ9ZqElAZ1R8u5bKk3ZD8dYL4ZJljIGUzB8MVOWWCEadzl40Lfvv2i8ik3MBrB6ITWZSIwyDe1L+5wpB6Mo0VlljJvIZlwYuyocqCRYSLZj59+Wn15ot3FywMeKH75y1+G++6/X4jxdUKmclQT00WI6PwFC8L3vvtdNaV4+OGH1bQB0weICOYU2CrjRq1L1y7qoYKh91UrVyopef6F55VQP/Dxj4dTOafCf/zHf4YfPfWUDm3SaFHJabQYLn/xxRfV9Ru2zGh9IMcQZcjYbbfdJg3e5Xo9jVmhcJAyHA2Los2LmrnyqLb6nFh81Bd1zUZ9OR0RXICGlYYZH8tz5s4RUpmrLt/69e+v6UdrCfni/ViWmvSR/6S3PGDvaXU5qs9nNB0QXLS+kEjSaf6DCXw33g/iYIucQBQhkATSzDtC7rmGzgcEki3P5HreKRkwgg9M0wzxYZ8t72wEGrJsWnA6d9xHHkH0jSgz8Y93NK1yRJYZbo8WhOBbWd5S8NSDiSNhiK/LfAN+02bRsWOyMC4c+c7IGkZs8I5D3eNbUhbsu8kX1HsJ9j0tPocjNXFWpgNktoVkwiffOaoUGBLmW0MgMKNAuzZ02FAhQw3CylUr1YfwoIEDlShnScNCYNU5iN/cOXNDZ2lwsKllghyE8K9CZCHXDFniYWDI4CFqZ/zB7NkaR2+5FuKMdwvIIqQC84mJN92kRAtPBqQJIoO2+aWXXgoLFy0Mt95ySxg9ZowSmP0H9odjQrRHjhyp9oJoqyFtEDMaSGvY1IZXtuVVlK2eWPymtWL2OoKJZ0PYIVekE7IIOYPgr161SicTolmuK8dppFWgSRotneUB4mQCInHybPIR8rdv336d7Eaevv/++9rZQJtGfSe9uKlCI8w3w2UakyYZNeA4eUzgm2GGgJaY9EOSeV+CdQySAb47RJYAiYXQ0wGBGPEdSLdpuc2rCiSY92XLu1D+0TZbxwvNP98NImXvyD7f3hoiLQuxBsqROFDW9BukRR1VJsHSuaNMU77p9CBnhkuHfMTw4Vp2+X7aqYnVXSMY9i0djsoB42ixX7JvIZlwYuyoUqBRkK+uWjYI04KFC4T8ZoVdQgqWLFkaVq9erT5lmUwGIFlMptu0iaWe56hGeLCQX7xFsDrcEiHSaBGvuOIKteljQhraYyap3XTTRCUvkDUaK+yFacTeeuvNcNNEOSeNF473mXzHYiPMJIec79q5K9xzzz0hu1G2LtPMcyChps0kTsqsaf80xCblFEqQcgBxqmWCxKn5ZvVF0sKjIPn8Zuls0gQBg4xBoPfu3RMO7D+g705e0wmA0On91DeJ2+ogWyYfAt7TSCfH2Tfyb8ejzo0kIPa6eXm54eSJk6oRXS9Eb9XKVfot4z1AQBTwrNG1a1f5foPVdV6/fv2UFKMxxbSAvIX8np2wVnJINopLU3wgryHNdAIgx7w7gQ4crgYh+1xDnlImGREgnxiax6SEfOMYXlL4nvbG7FMWKGV8EyVZ8jxH2cA3AlYH4vftt+7H6ol2+ijj8m0YicLVJP7F0ewPGz5M5M+VUpY7avnF5AnvEsRC3Syuw0ycGuTPnudwpB6i+iBFNfpFnYiFZMJNKRxVB1KXGJKhSjEJ7umnn9bJcWhiGU6HVEGmPvHAA7pAB1oZNMrthUhs2LA+PPPMr8MV48eHj370o6qlQ6O2/8AB9T0MoWY4k7LE0D3lCmICycLmD//HkEPMLZh4h50x19DArZF7afggZtu2bQu//8MfAv3R5s2bhU0bN2nj1rRJEyHbu3VJVybh1atbT30ZXykNIhpZ3gn7Q7WtlSqbDMGBqIDgQoYP7N+vZii8D5pIiCnaSjSyaNTJPwgus+TR5K5YuUIbdLyDYIoBacP0Ag8caDdp2XknnsGW/Doq3xCTGOKnI4KvZb5JZmadUF86O5BCm3xmC5MQL1u+S3XUnJF/yD7yycwvgNkoo0UmnDp1Ur7jCSVaTO5sI6SaERA00eQdWnpGA/gW5Kl1XhylgFRNyjp5pj/j6iplkuMEOuRazo8eE1m0Paxduy5s3bJFTSjo0DDKgU9z6hNlmm9io0kOR9WAcbRItlA/LCQTTowdVQd8b9ngq5fvv2D+grBdyO/gQYOUPEFa165dG3r26hm6dumqpI5hZly1UU4gc9j44m2CMgMZnjJlipJjiCslqFfPnmHAgAEaF2YWTMT7h8f+ITRu1FivpaGDIN51913quYGJeRBA0kCcmFLgteLy8ZeH/v36q1ZzyNChoWXLFmH1qtXqXu6VV15Rzeedd94ZLrvsMiUvgKFT1Q7FyGPCEctfGmbyIufUKdVCkhfYQdLxgNgz5I9GnoYdwopJC0tiQ85YmnvcuHGq2eQ74VYK8kx8TDiElOHybuWKlaphR7MJMUNjTbxogFu1ai2dknra0bCJZckWpJUFdOogyHQcDx7crxrKnVJHcE1XW/IYgswkS/xzk+/UI7Z8eDezKD3oFDKBztofbWZj9YdcpB7TeaFzid9w5BIjL6x2iQ916j+jHNQf+w7ExdbhqDpITWLsphSOKgUzD8hIz1C/uwwrM8SMb0/MAFjimaFnCBWrzNFAQZBZrveqq65WO838vDzV4p4QsoBtJmXoMiFzl0vgXmw4MYPAlyx+fnv16q3mEFs2b1ECh4u15s1baBxcD9mAxNFAMnQNKektzxk9erQO+TNJj3MN5BoawuxGjcKIEcPDyBEjdRJg/ApoNrGNNCUc1CV5tjX0pIFGG80tpiRs0VLu2bsnbN6yWc1EGLafGVt6G1tsiBmadrRgmLiY9w8afFYSxPRk4cJF2uGAwNFZQRuPfSV51VG+J3mExthIcVLyopICzSNmFvjGbtuubejUsZPWCcx+9u6LFixBO893oixTbgGk2PO5DJC8IreoK3RopcKIWJI6LP/IRiZM4hJx5qxZYcWKFVLPa0nnebCuWIdsQHbhFhHNMx1r4kk2WXA4yh/G0WK/qDexkEy4xthRpUAjpFVK/mMBBDSYkDcIaUYGQ8LSPMk1DGOeOnkqpGdkqKYSbQ3EDnA9ZQaNDhpR4szObqjL/6q2VKoMjRQN1qFDB1V7ybB07dqZ+jziQXNs17LVIW2t7GfCxo2bdNU9yLgt+8w1RhDxNgCBqVuvrhDNfCXGURmOyjPXJKOR5JmklaCCi3+ylZ+SVzmqISftq1avCnPnzgt79+xRgkXDj+acdEO0rrn22vCpRx/VjkEUT/RO2G8vXrxYzU/qCXlGc9mrV08l0JBg8igC+UiIQHqAxuUoJcizKN8oW2iMN2zcqPbwy5Yt02/NaAarqWGjzTC+2p47Sg20xnS8td7okTMh51SOmnAxGrJk6ZKwe9duHYFi3kP7Du21w0c5pyQjm6hcfB+9X/Zt1MjhqBowjhbVEOqKhWTCNcaOKgUjmDTibHFBBkHWBkrOcRwShkaZayHBDCEz2Y6ywlB+bl6uNkAM8aMdhqQZ+YLgsodmlGMNGzbQRgyCi4ZNJ8fwfDmnPkmlwms6JD4WvoBco6muyyQwSQMFE+JLmpgkRRpJA8QYbRGIBEeMGNeM9u1cImF1ihdmYt7pWJAT+l68P9rIpk2aCplqrZOJGCZGM3b02DHNe96RgC1r127dNL/QpO3evUt9SjMLH43wyBEj1OQlu2FkO3yuoCTHz1ZozRfSVQT2zYo7VxVxse/L9aZJJu8bNW6kZWzP7j1qH46Gn47cud/AcSGo7EmLJqQelw723j17dbEfRlDoALIC40AhxUOHDYtGULLqqxcbZIB8Ta1byAz9nhL0+8q2epRmR/WAcbTYL8p3LCQTTowdVQp8ZupYPEngGMRTi0CsTBjQJCthlcaI41xHY6YkWuKgcQPEhjslCANkOk1dK2m11utMm6n3yDVsze2ZpQWtmz5ffwli95MGc+hvLpvs2ZzX9Mau5U9v5ViCQZp4LgFiro04+2wlkHd0BtDuYkKCS7X33ns/bNywUTOQ+8kKtPMQYpbUxuTkyOEjYdbMWToREnMX/ET37t1HNcVRvvKuRcOFYWmtLijb+9p1lp/SKZSOGhr91q3bhEaNGku5LFAt8t69+0LrVq20k8hIi3bSpINWnfL2fEAzrOVUsgPNl9Z7yZv8vHzNI8o95lqzZs8KU96fopMf8fCCaRAmQpgH0fnWayU+clXrmuZx5DEkqjuRHPF8d1QdRHIkVrR130Iy4cTYUSVhFUtKQLSNKwBF9897zu7nP6m8qjWjFss/zlk5K4qix873m/3CeOIFROzZ4Jz9InElCoXPjaUxHvH1jXDixEl1qYZ2DIKMFpxsU418bp5eA3nOrJ2ppIEJkC1atBRSPFIn2KGljFa345lFg6N88OG8ZTIk3wi/3/Xr1VcPJLgXxKY+u2G0KmD0rc+6eKvOoJMAkAuWJ5RtRkUgzIdjCwThk3jD+g0hM9YhHDtmjPrYZrKdmqlQOWL3xm/jwbHijjsclRdRmY4V/8Iynuxy7jbGDoej3LFu3frw1ltv66Q7bCohDpAsbI7VA4IQLFxRMWkPsxRWHGTiEe7eTPvuSC5oGpgAOXfu3HDkyOHQq3ev0Em+DxPFGDGogk1HmaEjS9K+0N6wj6nVsWNHw6GDh3QxIWzrmcPA4jJ9+/ULzYUIMweBSbs0/eRhskmAw5E8GEeLZImNPqoCKolwYuxwOMod+/cfVJ/RmzZt0kmMRoyZzEiADLOFNEO+vvSlLykxxk7ZkVpgotikSW/oREh8dmOLjFx1YhzNOcBTDGZF7OO6EDePdCbwVIM/clyvjRg5UshxN53vQHtUUIDbtRpnO4Gel45qCSfGCYMTY4cjuWBIHo8a2BPT+BMgyIgbhB7EeOHCheGNN95QAv3YY4+pf2MnxqkDvhXykwljzzzzq9C3b59w7YRrQ/NmzQvPV3dEK9cJQZbyvHrNmjB92jR18YjHGrTEeF5hRUzKNflV6N1D8pVRE26mrXI4qidSkxgn9+kOh6NKwjqmTLIjMCGPLQShXr16GriGRT/wfIA2md9ms+lIHWAvy2psmMDoIh/yXZ0UR6Dzt2/vXvW8Mm3qVLUnRqN+yy23hNtvuy306d1b7eUp//hSp4OIb3I0zJBiyrvnpcORWnBi7HA4yh2QYnr9NmITjdpE7vAgwJABiDJEgQVPMKtAu8w1jsSguE4I38WImnVU+D58S76dav9ln2uq6rfivXhPXUxH/nQr78tkOgyDOR/ZEh9TX92snvnCC8/r4igsP3/vvfequ0GWodcyHje5TnYK64K6cyR+L/MOR0rBibHD4UgYCgmCALd3aI6ZjLRu3TolFhAOR2JQ3HAlJM2IGsR4586d+l3SM9JV66mmA3Ku8DtWMU5nBLhw9CJ6WZ1Yx1ZyR6/bI4R4wYIF4X9/8Qv1vIKru8GDB4cRI0eoTTGr1mk+kp96B4jtWd5p3NGuw+FIHTgxdjgcCQNkA/IBaUArx4ISLNvNinmsuMYsfpaRdoKcePBdIIQElizGr/ScOXPUlZ4tYINLMrWRBUqgz9K+qgDKpa4sJ//Y0iFAq0ueUCZZ7nze/PnhvffeC9NnzNCVLtu2bav28WMvGytluaPewyQ7yncUV5RHVSunHI6qC59853A4KgDQgA9TARtGRuyw+tf7778fDh8+rMsPQzywOca/8cCBA0OPHj30GEP4jooHeY15AF5C0IbiYQFtPlr99RvW6SQyyF+j7EaFi9JAGquS1pN2A2A+YYvukCeYPaxetVpXckSLDhnu0bNnaN+undoUs5olK2VSvlk1M4PFfGIgewo7Ew6HIw6pOfnOibHD4agAlEyM0aRRPyFf2GfireLmm29WTxW4ukJjDNlgVn+XLl10xTWG8RGW1GdH+QHxz7cw13m418OsBY0xq7PhVYFrJk+eFDp16qi/Icvck+zGqyJAK4ENNe/H0vDHjh0PmyVPFi5aGLZv26528JTLUZIPmEzo6o8SuI+OhWqZhRRzf3Gogs2tw3EJSE1i7KYUDocjoahZMyK3+HKFKCME2UI4JkyYoIQDcox2Do3yokWLlLSp5q4EwuEoO8hLPE3gFWTt2rW6OhumE/xGg3/llVeGzp07q1eF4lAVSR79Lt7rqJS1LVu2hPnz5ukiNTNnzNSOG36cr7r6as0XSDD2yBBiNMJomAHkmThY0p3gZNjhqFzwJaEdDkfCACk+fVrIQigIe3bvEfKxWetnjx49Q9OmTUNWVlZo06aNHmMof2rMBRbu3NA0Y1Zh2gR+Oy4Mk4W2D3GDELMKIR0O/EmTz7t27dLOybXXXht69eoVmjdvrnnNtStWrggN5Nu0a9++0NVesrU6pYK8tnW8bF9aBc0HJtSZdljfRc4XSNnMyc0NGzdsCG+8/kZ486231CfxZZddpoR40MCBoWGDBloOobvkanzeAssXnsOfw+EoCcbRYr9k30Iy4aYUDocjYbD6iCYNTfC0qdO0rt5yy62hS5euajLBeWyNbWgfgozdK6IK++Nu3bqF9kLQGNLHHRYLJTB8zflkC9RUhJJCARpP7LnJ023btmmHAy08JK9JkyahZ8+emrfsmys9tKHY1P71r3+RPG8Xxowdqx2YPCGPlaVjEsn/WAMMnaUpkH00vpQZyiJLXJ88dUqXb161elWYNXOWjlq0bt069OnTJ3Ts1DG0atlKteeUV96deCtF58DhSFkYR4v4GfXJQjLhxNjhcCQMVh+LEuObJt4cunfrrsQYIJYIaDfRZLI6ntm+QuQgwmiXIWnNmjULDRo0UKIMceE8xMWEa3XSLJNnEGAILYF9PH4QcDFGhwNyzKId5Av5yEQyzFcI6pItJjcBcZD/EON27dpWSmKMizmIL5PiCmLtgpYNfU8WMMlRf8SYTlDG6JBxTfce3UP/fv1DUylfdaWjQN7kn86PEWM6YgUhraaPWjgcFw8nxgmDE2OHIzVh9bEoMb7xxomqsYTUFgfEFKQY0gJRY8tvW2aagDsxiDET9zADaNy4sU7cg8BBaogbgQsZNPJcGUH+QXgJ5B3klS2/0QBDftF2ssVcgs4F78q7kz9o3ZlYByHGLIIOBnkCrDngOwHTGL/44l8rLTEmvwoh72WaYjMlwS0dWvQ9kmdyQkcj8EnMxE86XFxrcehW7seemH3LL4fDcTFwYpwwODF2OFITF0uMDdxrpBBPCphYoA1lS2DpYggP5yCJEDuIIOYBEDr8JkOY2fKb5xlhBqSPe9hyDPLHfkXDSJaRMLY8l+fz22Qa+/a+aIB3795dSIDZ53pbNIUOAmYmvDvvzDGIHkSYToS93/lgxLgym1Koma+If0sv9urk4dKlS8P06dPD/gP7Q+tWrUPvPn1C586dQpvWbUK25JV8BM1vvgNa50IrDI0l2odkOxyOi4UT44TBibHDkZqw+liUGF9//Y064ctMKS4GpgE0G1pskzmG2QBk0LTHaEexoeVZbCGSaFIJEEk7ZxpothwvStp5l7LAyG5RkctviBpkn7QS0PISbKlsJsAR7DgBgse1aM0JHIMMd+zYMfTu3Vs1npiZXKizcT4QL4S7MmuMyV8Ck+1yJL9YyW/d+nVh3rz5YaeUl46dOoUxY8aoLXE9+d40ynYPeWfk2LZ6TuLl/THNcDgcFwsnxgmDE2OHIzVh9fFDNsY33aweES6FGKPdNG0ycULqzB0ZGlbMC7CvJaBNhoxCko0MEyBC/CYdbG2f44R4Msi9nGPLeyHM2QLSwrVKnuR9Ia2WNn4jdk34k1bSxD1GcrmOLeSXe40sc0wXlJCA1hviizYYco/5CCQ+nsjzDLYXi8qkMeZdNW/Zj30HpbDyj3zje69ZuzYsXbpECPFO7SwNGz5MXa81adwkZMr3x0uFw+FIFJwYJwxOjB2O1ITVx4ogxsWBZ0HuCJBLtkY6Ic2QJTO/YB+7ZQgoxJlj/CYYoTa5AhmGGEJGIamQT44BE6lcB3iekdqNGzdqmoCdpxFg4huEFq02hM202JBfzB/Y8hzOcdyIO/ewT1ykga3FWx6obMSYFetgwrhdo4zR8EaLl2wP8+fNV9OJI/Jd+/TuHcaPHx/69usbsupnKYGmcS6/nHM4HBeGE+OEwYmxw5GasPqYKGJ8PiD6IKsQYLNJRkNL+myf8+xDbiGCbHkHBDfphmybrCE+QiRvzlIs9u0eiK+JXH7bPfGmHQTT+kKQIcZ2zEhwogAxxjwFU4pUJ8bYAefnn+bDat7yHeiQLF6yOEyfNl3Na9AK9+7VKwwaNEhNTehscB1LXJOt8qVisTkcjoqHE+OEwYmxw5GasPqYKsQYaHokGCB8pMlg57k+/jqugTSbJppzvB9CnXMWP/HxXmh0mQBnx7mWfYIR3vhg56yRsP1ENhqViRiTHgguq9AdO34sbNm8JWzesjmsXrVaRwfwwoHtNaYTEGI1gREyTb6mp6UXfmPy3uFwJAJOjBMGGiWCNTBRg1XlXtPhqHSw+pgKxLg8UFbxWdlIV2UixidOngz79+0rnHi5e89uJcRdOnfRsgUxRmMPIaYMmg02yzrjfo1ySLmUViMWo8PhqFikJjFO7tMdDocjASiJwF6qXsA636UJpX3W+a671PReDEh7MmDP5Z31rWP5qI1mXJogtJhMLJg/P7z8yivh//7v/8KcuXNDnTp1w8gRI8M1114bBg4cqG7rajGZUgJmKsRDvJB/7uc5yXpXh8OROnBi7HA4qi3KiwihgbwQykMLUp2ImxFVNNN4i7A3V0LLqIMEzrEwx9vvvB2mTZsWNqxfr2YSY8eMCROEEI8ePTpky2/rUBDH6ZjZC4F40BYXar8T3+9wOBwpBjelcDgcCYPVx0SaUvA8I6U8a/Xq1WoOwIQ27IPxutC3b1+dWLdeiBVD7Qy5cw+Lg5RERpm0x1LVeJRAA4m9MXErcROxiiaS4Xq1fZV9NJbYtwJLU3Fxk0ZczBE/q7Al07yEdCfLKwV5pKQ4ln8EfBHzbPKNb8fiJosXLw4zZ84MGZJPffv00VXrMJvIrMMiJmluGOFwpCyMo0X8DJloIZlwYuxwOBIGq4/JsjHGJdsf//hHJbG33nqrLvawYsWKcNttt6nbtilTpqiHCkgsBPmWW25RF2nFAQ0lcd1zzz1h6NCh6grsZz/7WSEpBiZe8SiBe7DPfvaz+huYOzjyhGdxLSSQY6Rjy5Ytki83KZnGOwbXka6KJqTx4D2SZWPM+56WsoJWl33rSJAXhw4f0kl17095X8lxz569wjD5Bq1bt9b04bZNLg0Z6RlavhwORyrCiXHC4MTY4UhNWH1MFjFGK/zGG2+EzZs3K1nFtnTdunXhjjvu0AlbrJqH5wI0thA/CDM+hIvD3//+9/DjH/84fOELXwhXXXWVktnnn38+DBkyRLXRvCviFdKLJpoh/scff1zvZVLYq6++GmbMmKHXQtghoWieWYhk1apVmtYBAwYo0YPIt2nTRtODqzHiTASSSYxR9Z6RBrNmWk31GkF+QIJXrV4dli5Zop2aHElH+3btwlVXXx26de0a0jPSQ80asYU+JO9pYKtgE+dwVBGkJjFO7tMdDocjwejXr1/o0KGDEia0jwSG5SFeLEuNoIZ0QVghy4Q1a9YouWUFPUgs2lyugdTze9myZbrt1q1buPzyy1WDzDLDI0aMCGOFTPbo0eMc0s+z0VQTN6YYV1xxRbj22mv1fhYSYfvFL35RifBll10WrrvuujBu3DhNd6JIcbIBnyWf8Ce9ddu2MHv27DBp8iTtTBw5ekT9EN9y883hdunUkF8QdRb2iFeKsO9wOBxlgWuMHQ5HwmD1MZmmFC+99JKSK0wZ0ByjjUXLC0HGJhh3X+wzLM/iGtjYso82Fw0uSzBDhDGdWLJkiRJfVqPDFGPPnj1h2LBhqomG4GKrjGYa84z+/fsr2bV0PPnkk6odxryC56KdXbt2rR6HSD/66KNKzskfFvqAuLMEdEka7IoAaSpPG2OksNn8so+ZBFsm1ymxpWxI4Ln4JD6lpHhrWL5suX4XvgEa/VatWqn9N9+HvKMZM3MUbdLkISL9o7l0Va+JcziqCFxj7HA4HEkFpAmS26dPHzVtYPIcJBhSjgYSLe6uXbvCNddco2QZMvree+8p0UVbizlDy5Ytdau2rCLUiQctNLbANsEOwb506VIlwPxGgwyhM3AfcX7wwQfhJz/5idom/+53vwtvvfWWkuXly5eH3/zmN+G5555TO+Zf//rX4W9/+5tqqSs1YiSV94cMQ2bxCsFR8jpXQuyCsEPelbx//vkXdHIdnSa8TAwZOkS/FXkNUTaY+YRCNrrvpNjhcJQRaV8XxParDExrgPAlRPuxkw6HI2mw+sgfBJTVyfjdvXuPhEwsQwOLpwe0vhBTyBjk6oYbblDNL+cgutdff73aDUO2Fi5cGP7pn/4pfOQjH1Fy265dO/WLS1rRYn784x9Xoo1dMue5Fi0x2mPixAZ5+PDhajJhgIyjtYaIo/UkL/CuMGvWLH0+GlFI9e7du/UcWlue17NnTz2XKI0K749GfeXKFZou8gfteMHp0xeVhvh7lLIimCkTkFr5Q8tLPs6ZMyfMlrygc3H06JHQo0fPcMX48doBaZDVQL8ZZck0zNFkOxfyDkflgnG02C/Zt5BMODF2OBwJg9XHZBFjiDBkFFKKZhYTBcwXMKtAAwyxNTds2K1iS/zKK6+Em2++WYktw/aA9+C+d999V4kt9sfz58/XSXXEs2DBAiV3kEiWgSYengfJxLwCMsd5zjEhD+IMIJ4PPfRQuPrqq/UYXjEI2BmjLTXXcIkC6SQ/Vq5cWS7E+EMNnnx7nqFlouCMmrbwbVigg4l2aPfx5mH21bSfkOjo1picr1lDJ9w5HI7KhtQkxi5NHA5HtQGT5yCkaGMhWxDhkSNHqikFpAybYbTJ2LhC/BDQ+MSFENukN85hM0yA6DIpDIKGuQS2x9gIv/3220rAsUN++umnw7e//e3wwx/+UO2b0QITL4QQV3CQXUwksEnGPhlCjikF5gNotbGl5RoCRL4yQ4msvLvmbRyxpsOyTjoXkydP1jxjUQ4mMaK5x64ZgpyWnqbfwBpN4tB45I+OlsPhcJQHnBg7HI5qA0wpmLwG+YRgQUZHjRqlXh+Y2IZGFDIK+cW+Fa8RmFAwGY7rmQgHaf3tb3+r7trQpmLagAs1yDUkln3iat68uRI6Fg9B28vkO+JBY0w8gC1peP/991XjDLH+y1/+El544YUwadIktS/+6U9/qscwMajsIA81HwtOh5xTp8LhI0fUHOV9yetXX3lFterk0+Xjx2uekaeZtWtrJwJSjF2ydVg4VhBTNaXVrGDXcQ6Ho9rATSkcDkfCYPWRv2SYUuA5AvKJL2O0utiwosGFlLLt1KmTEi589+LTmLRhQ9yxY0clZABzCQgt2mfIKudxy8ZvtM333Xefkji0wGg977//fp3Ih70xNsJofbExxp6YuCZMmKATyyDNEHNMMyCLaFGJFxMCiDYkG2KfSJAXaMXXrFkt6coKHSUtmHJoXsTkq4aaImCFo5JfkFUjr9YBwBcx5/W4XHv40OGwdt06NUWZNOkNNTVhUiPaewhx586dQj1WH4zFH+U9zzhXM2zPd32xw1EZEau/sQps9ZmQTDgxdjgcCYPVx2QRY0wiIKXYr7LCHCSMiXdoiTnGecwZILwQVJYXZqKdDeETOA5JRVvMxDwm6WFvjOkDcbz22mt6HFMKyDZEHBLM9cRFHJhhYNKBj17SACmEAEPMMa+AlDOB78Ybb1TfytgtQ55JO/lFPhFPRcOI8cpVKzVdpJGlli0vOK/fU4IBE4kzZ1jOWfJMD0iQ02jhSf926XRMmfK+uurDfzSdBcxQmMDYqXPn0KhRdqHZisPhqMowjhb7FZMrhGTCibHD4UgYrD4mixhDuJhEBsnjueYLF5MJM4OAgEJsIctodyFs8elCe4nWFPLKRLErr7xSSS6/mZiGFhp/x2YKgBYZcsk9kG7ygN/cg6YabSkeKdjHtzP3Q7LRGpOG1atX6zlcu3EeMgpRTsQkvEJiLCQfE5AOHTuGOjFiDNk18D35BylGy6uT4SR/uV+ksGq/6YhghjJ1ypSwecvm0LRJ06jjIXneWToETZs1C/Uk/7gXEg30OQ6Ho4rCiXHCoA2vBMvgaD920uFwJA1WH5NFjAGaWEwWIHxMnMPjAgSYYXzIMUs7kxZILuYQEDrshSGi8QIbTxSQVQgwxBpiDAmGeOOi7aabbtJz2DBjAsGEPzSjaI7xWoHnC8wveAZ5weQ/3LKhrWaZasw+IJbEzW9bbY+048eX9FU0eH7klQK3cllqUgIxBtFyzWnnmlXomcgdHcfpiJwScs+78s7kF9r1dm3baYcCDXp2o2y1EcZ+WOOR+012OxyOqgzjaLFfsXqf7LrvK985HI6Ewepjsla+49mQS2x7IWqvvvqqao/xfsAWTTFEELtgiB1aXSbhQXIhpBBkiDVElnNMmsOtGgQXYowmF8KML2Psgnke8aARZmLZY489ps945pln1BwDMwwILgTSroUQ/+lPf1JC/rGPfUwn99k58g8Xb8RtruMqEmhusbd+8W9/DW3a4DrtCp28iMu00xJoPuInxGmXR47VFKKLtnuXEH003suWLw8bhRzzfekckGdt2raNtN5xTdA5zRHyO7brcDiqIoyjRfUeOWIhmXBi7HA4Egarj8kixhBYPEpg88tCHSwYARFGkwmY7MYkOex6SQs2wphLcB6NLedx3wYhhtRhH4stMaSZFe7Q+rKKHb8hsADtKQQT7fG//du/qVkEA3X4Jv70pz+thDweeKn4+c9/rguE4OMYYlwU5GMiYMT4b397Ud67Tbh8/OUhu2F2yD+dH07nn1Yb4XQh6LUlr8wumG+bl5sXVgkhfuedd1RD3EjINPbJ/fr3D506dVTNep3MaCKhapdjk/NgwjVqQLJjfLnqNU8Oh6MQqUmM3ZTC4XAkDFYfk2VKgRaTgGkDdsCQYAgyghg/wXiPIKCNhcBjFsHEOEgymlImx2FugdYYLxKYSaBFZp/7AASQuIgXEm0r5eG2jfuxt4U445YMrXHRiWZ0FCDLEG3Oo1E2WWYhUSAPMDmB3JImlsLG7OT48RO6CMebb04WgpyveYIG+dDBg0qkly5Zqp4sDh08pO+AhhhTFey1sVXmO5ucJu/lraJ3gxkD58MORzVAVO9FDES/kiDjioNrjB0OR8Jg9TFZGmOAJwi0lJBfCDJpgvyxRQtsRJV0QeBIL14kAOc5hikG10GQ0ThbXJButKhK9mLyx8gf1xDQwhIf+9zPNUVhWmZ7HnEUd11FgzRg9/zSS3+TDkIL9S9cX4jx3Hnz1I/z3158Mdw0cWK479579XoWSEGDju3xUOkoMLmucZPGoW6dupHZhMPhcBTCOFpqaYydGDscjoTB6mMyifGFkCwSajCRbGngN3lUVLOcCBgx/utf/6LEGJtoOgUsPPLHP/0xLF+2PPTu0ycMHjRIiT5aZTTCo8eMUXMUNOPyAiFHiD7bZLyDw+FIVaQmMU7u0x0Oh6OCcTF9f4io3cc+ZP5Scb50xJ+joYgn5pxLZkNhz4fUYqM9d97cMGv2rLB923bVZmNXPW/ePPW6gQ3xHXfcEUYMH64TBDEbIaTLdWjHHQ6HI9XhxNjhcFQ7nI+kQkohglxDgPyVBzGFYBcHnhGvHS6aNp6dTGJswEyExUrenPxmWLxocTh2/LiQ3tPh1MmTZJraUvfu3St06do11KlbJ9SuXSvUwnykVi19J0xMHA6HI9XhxNjhcFRpxGtfDcUdM61wZHoVkeN4wnqpKMmMIF4bzfOKSxsojzRcLND6sqofi4/MX7Ag7Ny1S4l+3XqZSo63bd2qvoqZbJeWJkS+Rk0dHuU+7KV5J9cYOxyOygAnxg6HwyEwrWxx2tmSyGp5AI10aVCRaTgfeC7kllXr3nr77bBx40YhvPm6wt3JE0w0jIgzi5DMmz8/7Ni+Q72OCJPXe+kQkKd4rXA4HI5UhxNjh8PhcJQINNUsNsICJSzs0blzpzBi+LAweMiQMHbsmDD+ivHh8ssvD/0HDFDXcvhfPgdyv2q7k6jxdjgcjtLCvVI4HI6EwepjKnulcJyFLfDxxz8+J98uqB0xfpuxG87LzQ21MzPVDRsaYb5rg6ws9Ued1SBLzSn43vGogs2Nw+G4aKSmVwonxg6HI2FwYly5YMSYle/ad2gfxoweHZqy1LV8MztvphK6Gt7pAjWxMNlLADQzSODkGIM4HI7URGoSYzelcDgcDkeJsM4MK9ydLjitZBgPFWwLzwlRRkOMWzZt4opjwK4tdjgclQBOjB0Oh8NRIiC/qhXGbR3kV/ZtRT72OY9GuCBGfNH21IAZy3FQSIdjvx0OhyOV4cTY4XA4HCUC0otGWDW+MRKMthigLQaQY6O9hfRXrlNLPYLAabHD4agMcGLscDgcDofD4XAInBg7HA6Ho0So1tfhcDiqCZwYOxwOh8PhcDgcAifGDofD4XA4HA6HwImxw+FwOEoEE+scDoejusCJscPhcDgcDofDIXBi7HA4HA6Hw+FwCJwYOxwOh6NEuFcKh8NRneDE2OFwOBwOh8PhEDgxdjgcDofD4XA4BE6MHQ5HwqDD8iwfrEsIR94OOFSzZk33fpCi8O/icDiqE5wYOxyOpOPMmQK3ZXU4HA5H0uHE2OFwJB2nTxfE9hwOh8PhSB6cGDscjqTDtcWpC/82DoejOsGJscPhcDgcDofDIXBi7HA4ko6iE7xcS5nq4HtZcDgcjqoDJ8YOhyNxUAJ8Rj1S1ExLC3Xq1AmHDx8Kx44dCzk5OSE3N1dDXl5eOHXqlB7Lz8+P7nVUOOiQEMh3tngLibZpcrZmOJ1fEPJy8+Q83ylPzoVQUHBG9vPlOzGBMiLLHAPqfSQWHA6HozKghgi9KqeaOX36tAYTyAUFBbJ1DZTDkWykpacL4T2p5Grx4sXhnXfeke2ScN1114f27dsrCYYUQ46pt9nZ2aF///6hTZs2hSTNSVbFwZoD8j5NOi5g+fLl4U9/+pP+5js0atRIOzS1atXSwG++U0ZGhv6uW7eufCvp+EiI/1ZVsKlxOByXBONokWxAxltIJpwYOxyOhAHylJefFw4cOBhef+218OLf/haWLVsWunfrHurXzwonTpwIx48f123t2rXDsGHDwl133RUGDRqkhIt6bYTNUXGgc4LsJL8XLFgQXn755bBly5awdetWPQcRzszMVFLcsmXL0LhxY/0+nTt3Dr169ZJjLZwYOxyOC8CJccLgxNjhSE0UiLipJeR4165d4Ze//GX4wx/+EDZv3iykql6oVau2aowJaCQhWB//+MfDtddeq+QLQoy4iidbjvKFNQfkMQR4x44dYebMmeHo0aNh37594fXXXw9LlizRb0HHhQYsPT1dfzdr1ixcc8014brrrgvDhw9zYuxwOC6A1CTGbmPscDgSByFHeUJ8a2dmhrZt24YWQnhFMobDhw8r8Tpw4IDaG6ORHDlyZBgyZEho3ry5dm6dFFc8okaqQL/HunXrwrx588L+/ftVEzx06FA1a6lfv344dOhQ2L17t3Zw0CKzz71ojgkOh8NRWeHE2OFwlDsKdYNFiCw2qAWnT4e6deqEPn36hL4SGjRooNcZ8YV4DRgwINx4441KyDC/QCNppBjilgogvVVpYiD5evLkSdXgz5o1K0yZMkX3u3XrpqR4+PDhqhHGvKVJkyaqMQZ8nw4dOoTRo0dr4Pq4ElAI1xg7HI7KgLSvC2L7VQYIYGtkCdF+7KTD4ahwUOeYaEe1g3BBbDGjgEjm5OaGNatXh6nTpoW1a9eG2kKWT52KvE8Q0BZDmtu1a6f7xMXQmpFjI8hFYXW+osFzSCda0g0bNiixh/CnKkjr+YYmOY+pBBri6dOnKyk+ePBgaN26tRJdTFowbcFkAm1wVlaWapF37typ3iv43bRpU/1W5EVmZu2QUStDTWbAafn+JofPSYd8KspEor6bw+FINRhHi/2SfQvJhBNjh8NR7oBEUeWwUzWbMdyvHT12NCxcuEgJGGYTaBdHjRod9uzZq6YUEEw0kx07dtTzq1at0ol4aJEhZ/Ga46JIlDBl/gLEkEmDhHr16ilhJG2pCJOD8YDQmmyEBDPBDg0xE+zQBvfu3Tv069dPvVCYLTGBCXcEzF22bdsW9u7dG8aOHRsuu+wyjQ8N89q16zQvsrMbhoYNG4Z8KQN0jriPvBPpLEJam8TCeB0OR3WEcbTYr5isIiQTTowdDke5AyKE94m0mmlKkrBJRbs6dcrUsHjRIiVWffr2DePGjQuDBg0MR44cUQ0sROrWW29VUwpI9Z49e5R8oZ0koN3E+4ES7yQKUIgx7uYg7thKY0qQqsTYYLIQcwnSv2bNmrBIvsX8+fPD6tWrlbR2795dtcRsIchn5We0Jd/REPN9+R7YF992223hjjvuUFtwbJOZsLdnz269tnmLFtpxgAyfOHEy1mGSuOSPOGIJi7YOh6OawTha7JfsW0gmnBg7HI5yB4t3pNWsGdmsbtkS5nzwQZgnBGzFypWqFR44cGAYO2aM+i7mWshuXl6+aignTJhQOOkOcwq0m+vXrw8bN25U7SYkG2KHBhqYDXKigEyB2EMst2/frmYf2EKbMDfZk0qgQ4EbPIgsfokh9BB79snLFkJg6aRgP4xZBGSWd4C8QmbjtbrkN8fwNc274jUELT/fCvOLZs2bCWneoRPziBt7csh0rdq1lBTzrWrWiMUn2VTThbPDUU2RmsTY3bU5HI5yB0TqyNEjYfmy5WHGzJlh3bq1oU6dumHggAGha9euoWfPnqqRRPxA2tAmbtiwUclbjx49lKhBiCHWpuHctGmTajgZrmdYHlLdpUsXjQ9SZkP+8USZul/epJk0Q4jffPNNJZd33nmnmhOYMOd8MgU774y23VYQ5DcdCvIPV2to7slzzCXoiBBatWqlhJi8s7Sz5V3sfTjHffxGvmIfTpx0YvhenCOvDx48EFauXBFmzJgRtggR5xuNEOLctVs3Icj1Q2btTL2OOADfjDQ6HI7qBuNoET9DFlhIJpwYOxyOC0O4Elo+xAUTpkzLp+JD9qlvaIjByVOnwt49e5TAYoOLLWpWg6zQr2+/MHjw4NC4SeNQV0iykja5Hw0yK+EZoUsXAgYJO6P1lmH3yFb5yOHDqqVdu25dOHb0qD4TMsY1kGI0zJBt7H1ZeKJ+VpZO7Ksh6WLLc0wmEIpD9DrnJ7Wkk3d66623lBjffvvtamNbOgJevBwiHy/0XBPVXMf+6dMFIf90fjgteaAT3OQvJzcnHDxwUM1P9u3fF47GTFS4k/zkvnr164emkk+Yf7Rp2zY0ys7W/CNeJauyxXOIaf2jZ51WLTFb3p9vdPzYMTWdIN9ZMppvVKdOpn4TOjNz584Js2fPVlIO6eZ5vfv0Dq1btdbykJ6WriYV/Cv67vqO7MTe2eFwVEU4MU4YEN4EMjzKdCfGDselQgkR5Kgg0vRBxKhnaelpQqQKwiEhSWhSGa7fLsQRU4cGDRuGTh07hk6dOilprVO3rtxVekBqIeHq0UKIF1pQApplM6nAPplnQcAgZBAz0pienqEeEtCIZtXP0gl8EEAm8REg36pdlneCAPJu3JOTk6saaa4tCbzj5MmTVQOLxhgzhNKheM0o0snyBT/POTEzEeQXv8l7AnmAJh0CfOzYcX13CCq/9+zeo/mAbTcNS62MWkrWmzRtEjLkverVrxeaNW2mRFZd5Al4Z9MS0xQQ2L9U8L2YNLl7966wYf0G1Rwflu9F/DwfG2ZIcqPsRnKt5IlkAO8HjCyD8kiLw+FIVTgxThicGDsc5QtqD3Wqdu1a4XR+pDW04fCTp06G3bt262IQEEXIKUPzuPlCQwwxheCihSyTuBFOhCbSNJ3U5XiBCYGCkKOpzJUAWUaTDGEmoM08LuQMks45SCTabIlM42nVulXIbpit2mU0mJC0hvKbFfiYBEgw0hgfIN6YEEydOjWsWLEi3HzzzWpKwbWarlha49+VfQ0lEOMCIfJnpHHgXUg3NsykeZ8Qf96F38eO8W6HdUIixBkNOLbZ9bPqqwa+mRDOLCH/jaUDEmnOG0XePDLrhJppNQsnQtp7mIyU/zRPovRptl8ytHxIhyktTTpSkl87d+0KO6TTtHDRorBq5Uol5kzyGzBwgH6DGrpKXtQJIk2klzjIE4fDUVUR1XcnxgmAE2OHo4JAfZK6heCiXkE8165Zo66+0KLiyxYbYUgxw/SNhXRyLWSSrRKxMoB7EFE8C2h95rekAeJl5h3U94jYyZ8IWU2bEMvDQobRVEKKbVW9E0LcIZaQUI1LrtWgcUDqzh6DSKJdhoAS+M1xTBWwsWV75ZVXqr0uxNjSwnXxohVNLhrUw0cOya9zZRHP2yfxoAm2fFICG9vqb/JOAsss01mAFEMuyd+Gkuf1JG1MmFNCL7/RBFtHBJ/C5BN5x2/emc4G5JO80tSQVjlfXhPhSDfvQl6RfoC5B6R+4cKFYfmyZeGofAtGEyDHnTt1DtnyLuncdzqf5lLTo+lyOBxVFE6MEwYnxg5H+QNRYXanuXm5Ydeu3WGdkEPcfeH/FnMJlnFmmLyukDSEG0THAFmCHJWF7BixMkFJGqjT/OYcJM/ig+hBqBia5xoYH+fVBlfkgV4j9+XLPiQUTfKBgwfC/v0HlDxjloG2tkaNyL0cZJr7MKkgcK/mgWw5T0eAhTHw5MDkM4NdFw81AZE8y83NkV/nnuPaY0ePad5AaOtL3mH2gOaafWymIcFZEOHGjdRGl99cqwRc/kgn5hJqFmJ5HksD53SP3+QdeYNcjOWJInactBRN+8WAOArTlh8RdPIFsxDMQebMmaOTF/dLZ4VyM6B/f+1c4PqODgak2uS3w+GoqnBinDDQEBBMsDoxdjguHdQltKzY8m4VUsnqdRs2bgx5QvpYDGLwkMGhaZOmIbNOppI6ozQQPjUVkCpoE/RKCyW5xKT/oq3uSVrMxEKPUNclbk5zDGIFII8c5+F2rRJqCZBVroMokz72IzORiMjyrsgR84xBMDCxkIl3TGzrL6QOu1l9FumKPQfYPsQau+XGTRpxVI8Z0OZmN8pWm+CMWrU0HjoUbNEMM9FNNcVyXXoG9tCRFplgJJgYeXe0rZiXxDcupCE+TUDzS0I8il5zKSB/CzX68js+bt5l/779YeXKlWHe/Hlhy+Ytmj94rxg8ZEjoIR0rtPTlmR6Hw5GKiOSQE+MEwImxw3FhaN2Q6m92nexDlSJSky5EMU+H2k3zh59hhvzREGNfe/DQIfXfO2LEiDBo0CAd1o9FXEhQAVuri2UVN3oPO3af/C7cNyi/O3s8ugcyGO3bcbuLyzlu76txson9b9HrNZIXEGQ1u4AxC9jiHYM8wFfvVVddpeYjRowjeXPuu3IuQ0gtkwGLgmshzeSzknhQJM2A9PE70vjGLpH/7Dk0JrZPnOC8+R27RmON/ins6KXA0mIafU2PPi96EHmEecnuPXvChvXrCwlyl65dw7XXXBO6CTmmU2AdKeQ531RNQtQeWeKKxQN4nu07HI7KAuNokfQxUkxIJpwYOxzVFGhKoSqYR7A1YoH2DrEQkZEQjh49Enbt3KUaPiZRMcEN4tyhfXslxm3btQ0tmrc4ayYBZ4kJusoHcoJwLsgPE5XkEyvFvffee7qM9cSJE3WlvkLt7XlEqnJDzdVzoUSvOkDe0zpilD+09CdPngibN53VwGMrzcRITEbYUrYgyeQrDSbafO4vbDxjcZ4v3x0ORyrCiXHC4MTY4SgdEECqXY0jstQXAgQE4gchXiVE8OSJE+qLFq0ei2tg5wohYVIa8aBVNcJiJLvyoWRizLsBZAsrx73//vuaP3ilgBibV4qS311zOrZfBNWI1Fk+Gsgv8jRHytvWrVvC4kWLw7Lly6T85Wk5GzJ4sC7iQnkjj+mAcA85ZtpzzEeKxutwOFIdqUmMfUloh6OaQgkcQklICWIJW1aF1BfsiNHgoRVlkQ6GvUeOGhVGjRwZunTurBPBWDTDhFhkp4ung8gdWOXtbyMoPiwsTJbYu0GIWaIazxdMNmTyHeeAdcqLA4ftCfGhuoBSgXmFElvKCHlKIyjbjPR09bncrFnzkFm7tk6G3LxpU9i4aaNOisS7Bq7dlBifOXs/XjrSYh42HA5HZYLJ1Ngv5EEsJBPJpeUOhyOpUGJWk+V+00U4FajZBMsuv/POO2HSpEnqkgyfxNdff716nGjWrFlMkEWk2uyPkWNqYyvxYVJRVSkKZCw+6EQ5CfEaDvbjBXx8qO6IJhFCZiU/yCc5RrA8Y8sqeZS1O26/XX0d5+flhw/mzAkzpkdLTEOq8cChnkLkHrUBz83T+B0Oh+NS4Rpjh6OaAmICEcG7A2TjwP4DumAFk8qYXFZLiAcaYhav6NGzhy4WgUs0JYHCfHXyGhXLtoJIC82/ylrhSPeH044MsS3vuHfvnrBhw0a1kcXNGF4pQLzM+TA4VlW7DKUDJg/A8slg+cXkOjpbtTIy1E1du/btdLU+/E/jEvDY8ePaEeF6G7EgHsplNc9ah6MSwuRl7FdMLsTLhmTAbYwdjioCFSbyTxdtKJQ00X9o1uKFDaYPHKNuHDl6VCfUrV23LkwTUsyyzvjmHTVqlGqLsSFm8pMS4mqB4oUymnV8IpO15pkD92kTJkwI3bp2izTmkqeqTS8hDmdvZQPlmAVZ9uzZrQuDTJs2LTTIaqA23ayq2Lp1ay2bVs7Z4LIOW2RI9v9v7z4A7aqq/PFvIKF3CL33KjX0JPQmKIqIbXQsYwXbOOpYx/HnjKMzllFnnJ9tfurfAkgVBJHeu3RCSSiBUKWkAAngf3/WvTs8ni+YkPJuXtb35eSee8o+556z9lrfvfbaaz/z7LMvyaWdSCR6CY2jdfQiG9OWwcTCYukSiSGPUC3+Q4J50ixdDxyCMSPlWJCIjufTbGz33nNPOfnkk8vpp58eJOOtb31rzOYmr6yZ7DrEY2ZEbyjCQxxoefF/fz49lc6T6R4zowHe/f4XS2JWwWCKWdcwW2ONNSNX9qi9RsW03mLfjz/h+JiCnDe5TVMesl//hF88/8Lz0VhJJBKJ2UF6jBOJoYTK0oIa9CGyqrj6gCAjGmZ5e+jhh8oD9z9Q7rn3nvLIw48EudB1vfPOO5eddt6pEorhkUO2DZTiJu1b5sIIDY2YOKQ+i6uvuSa86zyTPMayJoTHeNFFchDYXETIXP1ngJ0Z8x559JFy4403lbvuvDOm49Zokylliy23jM/lll023oP3xOtkkhGkOZFI9CIaR+vozF7xGCcxTiSGGJrcQ5tgIap53fbYo4+Wq66+qtxw/Q0xOYXBdFtvvXV0Ta+51loxCA+xdnyLIVZS3zIXViQxnr/oPMUqu/V5atTJnR29HlW3C5Ew2YyMKTfceGN56skny16jRpUNN9igbLTxRmWpJZeKcCHx8+k1TiR6FY2jdWp7rxDjHHyXSAwxNAIrpdXzz3emRhYycff48RGnKUfss89OK1tssUUZs/eYmLVOyERM7FGPjcwB3UF2UZJ6FB8LOTGuvz+85xUPTJwYISgIG1LM2x7PyzNKXjxX4Fl6vtBxbnTkj3zqzTARSPMSS+124003xkQ0zzz9TJDhJZZcoiy51FLRkEkkEr2IxtG63+p6WwYTGWOcSAxBhMe3tsJ1I+tyvvHGGyMu8+KLL47UVqbdPeTQQyqp27QsvfQyncFKWun1PPGZzesZjcr6mV63xPwGMtwcHJ0WWjVYdX1abdTJmCKMQmNus803K2PGjCnrrrNuzMz4+7N/H+kG77j9jhhUmkgkErOD9BgnEgsiqjzzppHv5sUUT2lQ2PRKbG031e748XdHt/+ll14a5HidddYpbzjqqLLdq14V6dcaIX6xnnRyyTb43vYt1KjPgJfSp+75e+69t9x3330xMMzsbHLvev4yIbQwLsf2X7yfOKaWYVIKsdwzjk+8BPFMunLXZNBC7r0DIKtLLrFkZE/ZcMMNY7+ZGqUbfPrppyP8Yrnllgsi3cqb4dmv8OxBCEzdGNuV/5I6EOsvL//2dvIzLxr3oKz+i7LVVSFKZCmuXbe5RyE6ZGOxRU1e0rlHvTbOsSizr9d8IDjGfuMI2kDb4bXx4HPGfdVFnY8Qq0Ri0NHku/utK+8vJ+fzAxljnEgsaGBn69+MAUaIQq3G7TuD+tCDnfRWJuuYMGFCGbHaiEqGtytbbb1V2WD9DcJ4BtFLzDI8W7rEc76kNjQuv+yyiNEes/feHVLWJS6ITmc2wb/UOd4bAs0rr6wWKjDYhmAogM5//IknYkbCW26+udxx5x1l0lOTysEHH1x22mmnTrjQkkvWZ13K01OfDrLs+XsPQo40WLwx9UJ9sl1PSbMlAyHi8OtnEOu65ryOSR343ce/WpY/5JVM+e4chBWmTZ/WuRdlO7Z77Va2cwbCS4631O8NzvE71Pv4vVWGm+wlEoOHjrzm4Lv5gCTGiaEOBllXMjLGwIasV+P85BNPlrvG3VVuu/W28tDDD9ftpayyyipls802L5ttumlZpjtqX25X9SIxG6gP0/M2qEsO4ysuv7ysvfbaZfSYMTFNdt+BdzNT7EFaKugnaOTEO0zMGZ6Vs1ijpL6jBx96qIy97bZy9913R/zx6musXtZdd92yxeZblDXWWCPeg/qjkcN7H95eHtr65514H0yjY4JIdt9Xfzj2mWefqfVpWBwLMzOpriOzBg+06a9BzmUkGNp5fRuttkTu7Pqnd8EWjaqB0OzdtGmVWHfLCDLsepV02x7yVo957rlKyrvXTSQGD0mM5xuSGCcWBpBtBnPy5Cll4gMPlPvrcs89d8cMdjxjG224YeQiNgmCgUqOb/WC4hmCVX+ewzPzDMVrX3HllUGId99j97LOOusG6YjGRj2m0/3+l2jPPyad8D4q6YFGkBOvHGTa8/VcvYNnnnkm0hBefsXlZfy48RFaIfRlo1ontth887LqiBFl2Vovhi8+3OHh5e/Yio5XXw5w25Q5s/cTnuJ6rvc9vRJPNWrJWveQ0P5ok+xE2ES9YBDpuNVaiysxiGvXctrEO42wq+NCLDok/NkZpLo//P5Wxw28leKufo3rDR++eMiafY3sJxKDjyTG8w0qv8UD7zz0JMaJIYauwZs0aXK5fezYculll5a77hpXlqmGP9Kvbb99kLblV1i+1oUXwtPJsDby4NwcUDfroEegEeM/nHNOueqqq8omlWSZMlt2hGenPVueeuopqn6mz7avukV8llpqqbJ0XZKozDk8Tww3DGuV9Q7hfCE8yTzH119/fbnyqivLU08+VbbYcouYxGb77baP45588smy/PLLx2A+5NM7di4yvcIKK0R5yu4PcvFEPXepSoYR4slTJpepU6ZGOf0RdW748LJiLa+vjeKpVjcNKjTl9QsvmJWyEgMiVy/pPOUtX88LORngPmx5eurUKNNxTkXOlT+pNg6QaaEkbZtlCJr+xAKHJMbzDX2VTuehJzFO9DiqnA5k8Branq6tDE+WEfjXXH11GHzp2AwAY/BH7jwyBiMhCrxEjHF4vGr50+t3UxYvzoM0EyObGAChS+rjqgqcbmnEGCEeM3p0xBrLqcuT/PAjj4SnL07wtma8vE4oBlC7yM6OO+1YDtj/gCBliTlDDD71fiqxVFMi7WAlmIgxr+vjf3q83HzzzeXaa6+NuPu111knyLEcyPfV77vuskuExtx229jy8MMPV0I5KUIq9tpzrxhgGa8zDHn3ldb/Hnnk4XLOOedGA+dVr3pVzMR34UUXxnUZd57bOK3+rw5uv8P25ZCDDwmS2rcxhIAbHHvxxReV++9/oDasFouQnRdqo9Z522yzTdl7n73LBlXeVNmObSNH9eT6Oa3+Rpk4YNfddi0rrbhSbahNi/u74PwLQjdowOk5Cl1QEdfv3NyLMppIzFf0JjEe3KsnEokZQJZmjBYP41v/6vdQHNVIIlUM7dQpU2LUvQkmbrnlliC+Zqx79WGHlT332LOsvMrKQd6al1hJrRsVYdMta71jVROzAs+yqvBoTDSvnXciswRSRJH7RM547XkPeRFNNGGQFxLs++JLLF6WqvtlC0Ckr7j8irLkUkt2r5KYE7Rpob0nfK+R5GHDxdQPi3oxcuTIcvjhh8fnuHHjys9/9rNy/PHHl7POOrPcc8895Zprri1XXHFleeKJJ8tNN95cTjn51NrofDqqyp//rFRGXMNU3VmkTJo0pZxfiafzpkyZWi655NI4z/HLLbd8GT5s8SoLS0d8MMJ92aWXV5mRhYLsiIcWQvHn2Hf11deUyZOnVjlyfJWTet4tt9xaifx1VQfIvrHUjHuwLLqoXgnkf7E479rrrguPODJ96WWXhX4Yd9e4csbvfheN59AlVU7d+Yyl/td5WhXdj0RiYUema0skegCdXg1Griuv9a8RWNsjpdP06eHpuvmmmyMfMXI8YrXVyj777F123XW3staaa5all1m6E7tYDZ5yokuf8Nf1xBygPkJeQATZk0SqJtw/oay44kpl4002rmR4mXgXO2y/Q9lxp53KnnvuGcsee+5R9ti9LnvsEd9HjRpVdt9994hx5ZVEqPfdd79474l5A3VIPfCsNVC8p5VWWqk89NBD5fLLL48GijCYtddau9apO+IcA/Xk/3a8d7daPUcj09IGuxrQpqfm1FNPDU+siXKUZd/HP/7x8EY7d5999onJdIRrPPHEEyEDjhciAWTp/PPPj7qtgfu6170ujtloo40iJaBzX/va14Y32/X9FvcQoRl1XRz1rbfeUu68845ITSeUCtk/97zzYoyBwYdCKTbcaMOyUniqq06Jv6oWsPwKz2YGQU4k5hsaR+t+q+ttGUykxziR6AEwTBa2CaFtnmMKYvpz08vjj/8pjO4fzv5DOf3008OYbrHlluWQgw8u2223fXTFhzeIl0xMcT0/siR0GHKUlZgzeKZAZcsmwNO3eCVHPHT2IB8+DaxbsRIv3eW6tFdaeeVYfF+uviekTKhLI1Y8z4l5h2Zo1amOR7mUpZZequwycmR5/ZFHxnTokydNjlzfiCYyiRR7P1K9ee/33ntvxClbEFGLdV5mBFW4xv333x/EF3k18M92IRJTpkwJcm4dWl23TePo5JNPjnUyIb0i765zEPfddtutvOMd7whS7D4s4oQb2fd7NJBPOeXUyEt+8CEHxzahFUvX3ygG/g31N5oB0IQn9UFEGJVnobHtNzYS4rxEIpEe40SiJ8DQhZxWgxnhD1VgxRg+Ww3sHXfcWa684opy0803RxjFqiNWLbvssmsZufPOZb311++kXqvnNpB5Hkh/LY64Gb/EHKA+wtAtdXXs2LHlgfsfKOtvsEFMmqJhgszw/IkVlRrPe2xZCwJegfdU38XUp6fWd3plxIEecMABnUZRYp6g0+B80QuFxN5xxx1BhK+79tpy6223lokPTIz3hSiaFEesOHKsXmqQnn322TNik53vk7dZnPmVV14ZRJgX95JLLgkCjDhrvJ5wwgnlilp3EWvfEVxkt2WGQKadu8suu0QaOcdcffXVEQvN00uuTDkuTIf3Gtkmg9bh8ccfj/JPPvmksu2225b999+/XFnvCTHmdRb3LL7YdPBPPvVUNOSQ90mTJsVvdR90ROiL1BGJ+Y7G0brfunI42LKYxDiR6AEw3k1eDZB76MEHy1133RVG8rZbb42R7yOqgXvVdq8qu++2e3i5jJanUZzDyAURq2XF0hV4sk/4U/znDO0Jhm6pn3LkTpw4MQZDrbnWWmUFxHjqlHLWmWeVc885p6y++urloYcfCsI1oZIfROr+CfeXRx99NEiSd4tUaQjpcuf9S8wbBJmsn81brD5Mnjwp3oMY/T/9qZPeELHcfPPNo+54PxF2MWJEEF29NEjqVlttFQPxWly5enfnnXdGXRRuYV3ecOTXMQbEIbhCKtRZoRIaUq7hfPeGUCPSyCr5aOUhxDzKFmRWKIZ0cy0dHHLfPMzX/fG6COVwD4ixQaH77rNPWW755eJ41yOvJ554YgwQXGJJv221CL0IHVHhftp6IjF/0Dha91tdb8tgIolxIjEP0QxN34re8WDVlbrrRfnszITFkzhx4oNBmi644IJyczXcCPGee+4RA4Y22HDDsvJKK0U5Bt0hVK0MA/M6n8hbn+um7M8VeJbR3Vyf7208xg88ECRJPCry8czTz8TgJ2Ro7O1jY2Adr+Ill1xcLrn4kvBQnn/B+fH5x0pmbrjxhiAyhx56aLzHzhurstB9Yb7nq5tzeG9twgx1j9d0+rTpMRkOEmvyD4PU9LwgtPvtt3+k3dMr4L16N2J999577/L617++bLnlluH53XTTTSMsRg8B0qwx5Bx5w9/+9rfPyFRi31FHHVW23377CHcgQzy1wmhc56yzziq//OUvgxQj5sjzmDFjQq7U59tqIwyhJUsrr7xyLDzF5IyHGe4ef3eVxXXDw/3kk0+UTTfZtEPqpz4dE5Ag6U9V4k32xDeLc19r7bXK0kstXc+uklavE7oikZivSGI830CZNLLReehJjBPzF+q5tGhITiTtDzLczS5R982IS61G2j7beYZM43zeueeWW6sxJLJbb7VVGDFdoowqDRJlQVfO+yNFfd7Ac0c8gMdYN7hQFl5jBIpn8aYbbyq333FH2bsSG9NEI85IlGXdur7hBhsGcZLLdsrkKeHZ0+XdZs1zjWjW1NeaA/LmHsTTNlswtb4nBFZ4wdbbbBOTfPC+IoqeuwwQPLS8ssgp7/Gtt94aRFg9REyVgzAjs7///e+DvJIBXl0eaOVdc8010cAVK2xBSi+66KIgs85X10866aTwRl9xxeVRlvfvfJ5gRPjBBzuNZOvKdAzPr2spwwA9MiaE48GJD8T5yLb457P/cHacK7zHvZDX9euxwi00AAwYbfpjsIlIYmFF42jdb3W9LYOJJMaJxLxA1HS5S432rkS4K5O8UmQRCUKYHcdzdN+E+yJW8aorr4o8uGtX8rTnXnuW0aNGR9erlF9ImXMY5BwoM/8hVKXlyG2hFIiTfLgGc3mPurW9n2OPPbbsVhs0O48cWXbaccey0847RX7pnXbeuexQv+uS112++hprVAK9QTSQqraKT+9WtoDwIoccJeYEHSPLBnTClRBejVDkUtq82++4PWLFDzrwwPDkmjHOu+Rx3WmnnSKciZeVd1g8sPOEO5xbG7DCEi677LIgpOKEAelGVtVXJNc7FD8MGk/CF/QUKEs5wmzWXnudCIWwz3bEmJeaR1tIh+OFW/juWjJPjB49OrzXYqFPP/239R6XjlzHjhETbdpy8cXTpvOOP1Hur9dxDmLsNyQSg48kxvMNFFGHDCcxTgwOQvaqASN2DGTkwa3bOpNuvJg+SvfmhGoAzz/v/HLzzbdUg7VEGVXJsJhE3aEMZYc0KdR/SHWS4sGA99XRLS+UW2+5NYgxrzByjFCZuQxJeroSm/0P2L8st+yyEROK2MhfLI5Vl/6S9busFbzIvM2rjVitM7NaReirIHGdGFTXS8wBunVG3mD1RuMmGji1TvLiHn/cceX2sbeHJ9j7EHKgZwYJVUdtkxrR5BjeI++xQZY8yC1lIg+w/VKq8dQKnfjQhz4Uk3KMHz8+CPUHP/jBCJmRsg8B5undoJJxizIQ3Pe9733loIMOinvhKRZ/rIHlPF5qBNpAzfe85z3R0xBjDCpkxtCo3nXXXcrRRx8dZSPsZPKYY44pr6n3pdfp0ccei0a2bDZNHyUSg4veJMbdPtlEIjE3EZW7fjYvL88UgrtE/TTw5U+PP16ur8brjNNPL7/5zW9iINCWW2xRXnP4a8ouu4wMLyRjGJM/1LIiPdjz3cFDifkOZDUIa/2jxDVwkFYkKzz4dR3x9a7FiusRmPFX91mEy5j+l9cZMRErvsKKK0a2gEcfeSSO6WQR6Xins1dg7kBdHG6Sj64HXlYJoQ8//elPI0RBA+eMM84o3/nud8sPfvCDCHngUeXdRXQ1fBBa8cUIMA+t+HLe2B133DHSuyGpTR6k5UOuEVPXao1gZBu5Rmodw7NrHVnlkealForhuu5ZGcix7bzIynMvyLR9ymxlE5rVVl8t7gkxj1SBXfkSPmGA6PIG2tUjHe8+E4nEwEiPcSIxD9DkDtFhvMjf5ClTysRqUG+44cZIv3bLzTdHLCMjxqMj7o+3Z9lllo2cuB2SVE2ZRZnVoGVapUFCfQWeO7KqsSOd1gOVUBksJXuAd22fKbp1W5vUwax3w4d188R2XmEQa7Og9c1dLBsBghae59p4UlZ4NWt5+a7nHJ6huuO5xve6LhWilGYrV3LKuy/TC+8+rypCyVPMayvsQliEMAnvGpFFbnmWlSvjBI8vkovA+rTvxz/+cXiVkVwNJQTbYDmhFYi0MsgRImxgnRAc6zzM0sIh5zzBCDESL7RC2IWBeZtttlmQZNf3m3iSlb1plUPeaB5snm2DAQ3Y1cB2HxriBvIawJvx64neQONo3W/qancZTKTHOJGYE9T627q8GbrmxQlDXHcjQAzjpEmTy5133FFOP+P08BIzcgwWAnXEEUeUXXfdNWIaG8FyPtVAQYSHZ9hiYcxi/5/Tkzi/0VHenXdTvwRhMs02guP7888/F2TWuw6lXv95/11930HdRkbi/dZjfJIPn8iN9bhOPdS1xKcn5hDd9+AZ+/R+vCfkdL/99otDrrv2uvKnx/8UIRKjR40qe+y5ez3OwLu1yzrrrBWT64wde1uZ+OADZdlllym77DqyHHjgAWX06FGVQK9VS/hzJaJ3xgC65194riy//HKVeE+P/V/44ufLl7/8z+XoN72xNoBXqPX+DuIS5/BiD198WCXiK5bttn9VOfTVh5Q3vOHI8prXHF622+5VZaONNyyHHXZoOeqoI8uYMaOrflg1ZGIYXbAoGXy2yskLsS5Ux+9C+A3SE5N80MEH1cb45CDsMtjopSB/9aSQr0QiMTBS8yYSc4JqXxgjRgmBZXh0fz733PTYbTuvjwE5Jg3QBStMYtTo0TEQZvMtNo/uz4gjrhZTGUGOuuSJAYtF13zXmPE6JgYH9S3E02+hFBaEVtorU3Y3T6J0YDySPHWIibjjZ595tjxjm+91O7mQSovMeP8Klp1CHHIQ8MSco1YZdcmK5yo7hQamRTjCU08+Wc4599xywfkXREjDDjtuH5PqTKmEUno1A9W23mar8tvTTwuv/mOPPVqWWnLJssYaq5fNNtu0bLvtNmWjjTYsj9btEyc+UCZPmlQef+LxILBrrrlGEPANNlw/JnxZc6016nt9vhMeVe8HeSYzCPKqq6wS8eabbFKP32D9qhNWKatXcstDrQwEXAjWs9OqHFVC7Nxhw4Xx1MZY1TXK0SAnc7zSEZoxZWq58IILQ/dMmTw5vMwgnKfFtCcSib/EIlWxD7mmI0NjYaAsHQ9NtpAT8wZkDKE1MUdQ1vqdMUaIeAJNIqDrnUxuscUWMShn02pUkSnnMG6mF64sK8pL9CaC8FYSopHy05/9rNx0443lzW95c9lyy61ioJ0YUl3if/jDHyJGdUYjx3slI3WJGQrr4k2TldBR9Tjx5fvut19kFiALzXucmDuI91D/ZJzg7b+hviczxslO0UJWhLFoyHpHO++0U8QTG/wqO8SZZ55ZHnn00di/1ZZbRk+BAW4aNxo5whccJ8zhwYdMzjMuvM/quzhjZPb6P14fvUJf+/rXw6tMLh588KHyxS98IcI2tt9h+7L8cstHedKvyVVsMJ57uLeW7XoG6L3xqKOC4LcG1Hnnn1/+vZa5/wEHlN123bVcceUVEXJhOnKp2oRrIc1CRfRQmchkCJr9xAKJxtE68khntmUwkTHGicQcgny1LnRdljxOZj0zhTMDd+NNNwXRkWliz2psxS8usXgnxjCMci0jxbP30VHg4r5LxGsiVTtsv0MlICvO8ER6t2QhctBWgvTQQ52ZywzYis+6+Hz4oYeCaD1WF9N8H/rqV5fVKmkKQajlu85gG4ehAu8NIk90XY/Bd2PHRoPV4Lk3vvGNkR5RrPBdleBusvHG4SnmdfUeDKyTNUJvj1kokUxlmNgDyd5n333KNltvEwRWSMOE+yZExgv5rL133lrHI9MyTvBELz588SgHWZdfWHYaE47cX68hpEMPQht857rOFzM8ZvTo8CCHjSMoFXogTAy08UYblSWXWqosucSSldjvHN5mA/H8VjHO4qSln+N57jiLUuskBhuNo3W/1fW2DCbSY5xIzCGaZIn1M/uZgS/XXHtNueH6G8q06dPKZpttHrlseZMMzlHlGLwIv6hLp6s30eugS/p7jKXHQq4QGYRYKIWu7EmTJ9XG0AsvEpC6RHhMJbviQkNo6jYys9hiw8oqK68cuZCfr+fwBIZ8VOI0w2IkXjHUN88dKW7fvSNkFPnUIEE8TZ7Bu6qOCm9iQ7xXx3sL9gmV8I6RWt8dY9Ck8w2es1zbnaRHA2jTWud5n7eUt7qSVF7bderx4tN5pr1rDaQnHn885KQjFu7TmIXOwF0yMHzx4eW56c9F3mu9EWSJ7nA+ch45j+s9O5PsGL9gLILUkPbxQkstqDy/SaOLbCYSg4vG0Tp6rlc8xkmME4k5BPlieJ6oRlESfV2evEAMFWNkxqx111nnpUn1yWb9mGEIh141HHLwnvoT4ze9+c1l9913q+9fOq3hQUSk5vNmEWNo3fPIkPW+iPdvhQjUch0nIwmyE6QoMWeYUcmq0V2kQyIRwzaAdbFFO2nxmMFGFj139sO7EgKhpjZj3chkW3cMIup85FX4FII99raxkU1C1gqxvSZ04S2mE8y0h9TqWUKU0W6zIPLk8iS7R7Hmbtr/7sX1XEvoFV1h3TEa4jM8wHF0PYs+6awEgXZv7Te1fXqqWkMhkRg8NI7WsX+tnlkGE0mME4l+EA5hEAswQGGY6ieDZB8SzLiSLUaQF+mGSpLuuvPOGN1uyt/Wlbl0NYJLL71UGbZYn/RriQUOyAsSpQcA4f3+978f6biOOfbYGDAlLRtZAeQ2KcfCCzV8eiW3Tz71ZLnv3vsiBZulKoyyw/bbhxd5rTXXfIk3mrzQMT5jW3dJJIY2khjPNyQxTswJVMpOpgkp06Ti6niPgthWM8YrqOv0vgkTyu1jx8asU7rOTesqZEK3qa5xXhplkcGOxYviEwsgBiLGt1Ri/NGPfCTyGLcYY0hinBC6YVyB6ZiFXNAT1113XbmjNp6Fboj15UVesxLkSPnnHLYKIQ571bFdicTQRm8S4xzdkUj0Q99uRqRYwyoaWvU7cmT9xptuLKeddmo5++yzw7DtusuuZe8xY6K71CCZxeu21hWuPN3kUUDauiEFDaZhwzsZAhqRyVecoCPMcLjEEouHd3jrbbaOLBfbb7ddxDdL3XjWWWdFzmGZLaBDhjufg00MEomFGVn7Eon+0IlSDRQyqx3busjloJVW6ZprrikXXXRxeeThRyJcwnSxBx98cHiBDHqJ42sZvM4ww2ussE7DODFEEN6NRVKNJl4KDWup4QyYQ5JXWXmVIMfSpdEXBvBJ4XjRRRfFZD8G7YlVDj1R/2mMJxKJwUGma0sk+iHkxeAXxq0usg08/sQT5Z677y5XXXVVuboSY92d0i7tNWqvssXmW0RapBglXpcwbhVIE09i8z7jxCmGCy4QYF5A8nH11VdHNoE9dt+9rFQbQ63N4/22959YeGFwn5SML9qfaouqLpDSzRTTepVsk0bt4UceKc9Omxap3kwjbjxCeowTCwcaR+t+U0+6y2Aia19iHiJowiwu8xoDXXPgZZFKgJAg33hxdH2azvmEE35Tfvvb35aJEydGTtADDzyobLTRxpHvFBDgIEhdb49PXmMeI+jb3Z4YGtCnECP/20LD5ztOVDGIcIq6dPqdOg1lmSukiNOofv2RR5bda8PKZCOnnHJKufqqqyNn8ZSpU0PvJBKJwUF6jBPzCJ1WoMTz995zb1l66WXK9OnPFdOfPvLIo5HSjIEAXlZdh4su1vHORsaHRRcJ4+A7gyJNVpvv33eZISToZ3iWX2GFiONFPJvHNt55/Y6sCuzXVXn//Q9EyrTFF1+ilj29TJo0OWassm2JJZaMlFstx+eTTz4VyfnPOefccumll9Xjxkei/w022DC8PbvttkdZccWV4nfyDknR5X6l5Fqiltfuu8kgBGlKLJCob7GzUl+hdyuc5sknnii77rpryIM0WuJJpfcSh/7kU0+VW2+9Jc4zMM+7l8LPpA/y5JJ3stoIEBnpO7V4kKmu3CQWPLxod16s/z6jwd3dtuQSS5RVVl0lpqKmCzW4b77ppnL3+PGh38iCdG7kgZ6jm8ie7R391imnaZWUlsSCh64Md4W41Q3LYCKJcWKegedVuqLTTjstlL/pUJ955tmIq/vhD38Y+Trl+JSAfsKE+8pDDz4YcbymS51cSas5/u+9997oahTb+0AltpLy67q+5557ykknnRQGZKONNpoxnWsQ5PrJaHRihGuNq/9uueXWmB6VATISXPJ8A19klHBPUqyJ+zOC3KxVSLdZ66TkkuxfqIRZzdzTZZddFmSasXrsT4+VB6tBY9RM/yyX8RqVKCWGHpouQWavufbaDjHebbfaQFrRziA99pPVy6+4vFxWG1TkwjZT+p588snlggsuiHImVTl+7E9/qjJ9f3ySvZbnmsy2shJDFNUeGZyrkb5G1UcbbbhhWWmllUL/jRs/rtxUCbLwLcTYdrKgAU5GqlWbIRsa/yExVe8NNplIJGYfvUmMM11bYp7A037+uRciJvf0008vb3vb28oWW2wRpOJXv/pV+T//5//EQDWk07YXXvDOniujRo0q7373uyN84Tvf+U5MqxvlVZLrXeqCPPbDHy6PVrL81a9+Nboi3/ve98b7Vk7LL9zeO2+LmcUMlkPIx4wZU3bYYYfwvMhBbJtzXVf8H1IT0zjfeGN8N5Ic8XHPSLL7Ehe43XbbdaeM5ckZFmRcnCDv4ec///mYntW1E0MIZKrKisbYD37wg2i0feiYY2IKYbJn4R0+o8r7BRdeEI0t0/xeW0m0RqDjydfIkSMja0kLvVirNrg+//nPxQxqKo5GnYkelJcYYqgyhAW0wXVNR/i0TS/VzbVRfsftt8fgvM033zwG65kkiBNBw3+J7qfeqU5GlE7PQ+qbxIKHZqs7/IwMt2UwkR7jxLxBlXOeYMRT5oZtttkmPCSUP4Ip4b2pdPfbb78glffee09ZYYXly9577122r8S1pToTw7vpJpt2csXW4+T53GmnHYMoX3HFFWXNtdYsW229dbxnpFj5jISBLHG9erzsEZdffkXE75mu+YwzzigXXnhhdIdfeumlsf7HP/5xxvq5554bHj33dvjhh8f6cccdF56b1772teXAAw+MGOMNNtigvOpV25aNN94ovNbSLk2s19i/nrfGGmvE/SeGDlovRIRSVLI7efKkSnJ3LqutttoMooOw/OHss8udVc6OqLJC9smh6cAdw+MnM4EGHtKD8GiokXG9EuEBRI6rPBvo5zMxNBD9V1UfheGvukzDKLbXbS0UTGNcz9qIVVcNfTb29rHRSCdzJgtaqsqP84WV1RNnyEqzd4nEgoXG0brf6npbBhNJjBPzCH+uBPi26DpGAMT4mhSDx8xUqboId9555zJ69OhQ+ryvhx56aBlTibF9vCII73bbvSq8s45FKh5//PGy5RZbRnmXXHpJxCs/UbchtjffcnO5/vrryz133xNlrLDCijGD3fjxd0cIBO80YyNUgpe4xeuJ/RQGMXny5PDK8NztscceQYCFXegOR5rJkSmencM4ITpCM5rH2PSvjj34kEOCRNuWGDro6JIS3l9e4KlTppaRtYEkZpg8kQex87/73e/KY48+WnYeOTLIj56EJbvpuYQFbVHrA/lAgjauDb4xtQ5YJy9hEOo/RKmRnsTQgNAyAkSP6FnwZhvJHVbfPfmxIL/GTaxZG9dPPP5EmVD1k5AbPVz2O0fojQYXPqGctj2RWLCQxHi+IYnxfEafZxvPu/5NqaThiiuujFg5pFcye55XxJESR3Z5lHlwH3744cgBrMtwxWoQlNGJpStlySWWjPfHw6Ir2sAU3rcHJj4QnmcEBNlAjKXQmjDh/vLM00+X9dZfP2J9J0+Z0plx6o474xq6scUKI7/hmamL7kuxxeKghWbwEvvUFe4+GCSjxt0nMs3bjQQLqRg37q76G+6M3yGOdGq9nrAR5brvxNBB1Sb1nb5QifH0ch1iPBUxHhmeXjOckYlTq5zoJdFg2qXKml6KM888s9x+x+1VZieWx//0p/D8jR83roy/e3yEE5HLRRdbtEyv5TadpWuRBzExdBC9Ad5tbURB2Kn6JySCfjNQ2ADMsFd1P72pN0LjXLzx2NtuC8eCxruG/zLLLjNDRoIgk534lkgsKGgcrfuNDHeXwUQS48Sco/uMhS3wej37zLPluj9eV370wx9F1gdTnxr4htgKPxCi4L38/ve/D9Jptritt96qrLLqymX48MVrgfX9VWKAiE6pRJOxQFx5TqRNe/qZp8sZp59Rdtxxpwht4HHjtePJO/CAA6OreoMNNwxDxDv9nf/8TiXkD0Z8McJqENSJJ54Y8c88fK6D5LiW6/DmIcZIMRKPzJupyn0edthhQa4Re9+t77jTDpHL2ABAv8dkHzyA6cEZOmiK2nTQzz77TLnh+htCZoT9mP6b3JN1MehIsd4HvSGbbrZpyLxQIrKk1+S1r3lN1IFttt2mbLHFlmXVEauGrIgVVQ4boQFGntSrxBBB9102vRD2qRGDKhveNXIc2+uCLPMMr7jSipUgrx69Do8/8Xj0ftF19FSkiqyiyeOMZPuijNQ9iQUDXflPYjzvQcF0yHB76EmM5yU6I6Mrus+dojbjkxRoyIP4W7M7iRMWV4w8yAghDpe3DKHg8UUqkdRJTz0V3lgDnGS0uKkgYdEAAHpTSURBVOrqq8MLxysrzZok+AbISQWHdBggZ8T2Qw8+VEaNHhVlMhQP1bKUe+0119b3v2iQE4TlnHPOCeNiKuctt9yy7LvvvuGt3nbbbWOAIA+gdUaJgeGlcX0kWigGj7F78d3vuOnmm8IzaDsv+Bvf+May8iord55JYkggFHVXh/DskqvJUyaXkTuPjEZZC8vh4dNL8fDDD3V6NqpckNWxt99eLrn44iqTD9VG0/LR0yAFoJRdSI9MLM8/1815261Hct5qICYWTpAFPQnhOR6xWmSvWGP1NSI0p+lQ+lKDixeZvmqEIs6tOq/Zv0SiN5HEeL6BIuiQ4STG8xOIASCcSy29VJn27LSIq+TZEOaAJCOORvXrQpYXeOutt45MDuutt255/PE/RciFwSZPVXKMTLzpTW8qBx90UHhwN6+kFXkQkrH/AQeUuyrZXmHFFYPM3nrLrZEqbcMNNyhrrrlWmVJJywUXXBikmzf3qacmldtredKwuQcEl1wYMMfIILVSwDE0YqIRbvsZHPHHMmsYMOU+7EPyN9544/AIblrXhWcgR/LXHnLwweE1bM8jseAjFHVXh/D6Cs/RMNMIW7HKN48fYrJcJbg33nBjhPmIRyfniPPaa68VJEcd2Heffcp2r9ouGoyrrLpqdKWTHXGlyiGbrsc7HddNLJQw2JMM0HkMmHEXGtx6q+gXPXDX1Qba+LvvDqeCOHd61+I8zgINe3oskehNJDGeb6AIOmQ4ifH8gGccgz/ESVYj71EvuqjBaH8KzxpyYMCbEAehBxQ4smlEPkJgwByiufIqKwVJftW2r4pJMsRh7rvffmXLSnyRaAQW8dx+++3KBuuvH1kllI1YXHzxxWX7ajAQjiAW9R7ck/qG3BoI6NOgut122y0814guLzKCguQixEi2KVttU44BLmJHXUtIBcLOU+M7gn3LLTcH4UbieZE9C6EUBvolhg5CUROqKlAaduRarPEOO+7QGTg3bLFInaUxiBQbrEnmpd4iH+PHjY9PXeDOd4zlptpwvF5ZtR5svdVW0Zh67vnnYlrguGZioQVySx6Q24hLruKgF852udwNzhNrrDHPAaFnC5ZfbvmIY48BfUmKEz2NJMbzDUmM5y+MsCbZkWKt+9wJPA8s0iuul0dDKjZEVtyvwW/WDc5z3pZbbhFkGWk2mp8hcK50aLyxvNBIxaKLLhIk2gQg0rXpXpQVQrwwossD/ewzzwSBRqRvrcREBgEz2R3U9TwjsEIp7BdTzAMtxALpRYIRaCTZNXn4pH/jDRRi0Qgvkhxkvv6G1VdfLcJC1l1v3QjB2H6H7TuDB1Pohg7okvqhsTW1S4yt8xjLImCiBtDQ8+7JTgzurPJCNoRYiHtfNbzHa8d323n+NPo0yNQJ5Frd4TlOb9/CDbqQ11iscdiy+tfCJuTBXqHqIzKkp4Hc0GdmVhSKRk9psMkNL6QikehNNI7W/UbOu8tgIolxYs5Rn294jBny7iYsYuKDD8boffmJzWzH04toir/UtXzffffGuxHfK/2abkFT6m6+2WZBUIVfjB4zOtKuRd7PyAgwLbJFMBoPPvRQpGPjgROHt9eoUTFKW1iEcIzLLr001pHixRZbtBx++GExWcf//M/3gyy/8Ofn47qPPvpIeaQuEyc+UC677NLwFEvDtVwlLe6V5w9x5+HWPT5q1F5BfPwGYRX7H7B/OfCAA8o6664TxsgocnmUGTK/rxGckMO6nlhwQb5lHrnxhhuCvO5QG2ORfzj2daSfPNI7Sy+zdMiDUCJy51NvxKqVMCPEiDM5O/roo2M7OYHm6SPvZCixcCIcDRUylIQtqyS5oekTDXbkeJONN4ntvMZCLDTQyJjxGEhzI8etDPIV5KP+azqb7mwynEjMHzSO1v1GzrvLYCKJcWKuoD3nBkTZAKM/XnddWasSSF61PffcI7r+/vSnx8qVV15RVlhxhTJqr72CLF911ZXhTTOYaaONN47YYOR25512jkkSHq1E2eCl+yZMKOusvU4YBLGeYobFFm/3qleVEautFh6Ts88+u9x6261licWXKLvuumvZYovNI5PAZptvVq+/VOy37QMf+EA55NBDygGV2O63377h7f3T43+K7svRlfwuudSS5aabbiwnnHBCNT6rl0svNYjqtsipjEzLbmFg1YYbbRiEWZyzvM2yW2y8ycb1mSwaBsqz4VVHdNJ7s+CCfBvxr3fBgEsyvvU224RXOLx79U886AUXXlj+7//8T/RMWMii8Jtbbr014uJN/nHLzTeXyy+/PGTfBB+8gOSkXcea8hILL5o+nSEF/ThrkxcNKg112StWWXWV2jB7JnrrTLGvkUYPaqjH+XVphNv5/sixRl5sS5lLzFdUiaty2KhDyGR3GUyklU7MExDsZZdZNojwNltvHV4xnrW7q8JGaA886MCYhhkxMJApUqTtsXukdqPkxSvzDvMKyzN8wfnnR/e1GGT7jfa/4cYbyjrrrlvWWmvNIBmn//a35fdnnRVeYLHGQid4o5W5XL0277Jk+kgIYi0MIpaVVg6PHg/LMvV+eeyGIyr1dzzx5BPhdRZmMfHBieXhhx+Jc0eNHl122nmn+H2MjRR1I1YbEV3i99d7u//+B1i26FavDyPKpAQYocQQQlejI8YtXeHDVWa9c9lSTG8ur/Wb3/zm8q53vrMcddRR5ag3vKG8/sgjI5xC9zdZSyTmBPTtiFVHlO23277svfeYslFtqI8bPy6y+hg4fPvY26ORroFOryLCjXzQteR2sMlIItErSI9xYp4BeRUOsfsee5QtKznVzWegiIFKyKj9PMO8rUiEAXBI67RpzxYTcsgd/OQTT8Rxskdssummkd5KaMOVV10Vg1A22mjDMmXylBjIZPuyyy0XE3UY6LflVluWpZdaOuKbeZYNqDNo5aSTT45UbmKRke0/Xv/H8PaKfb6sEmxk95BDDgnP4K11G0ItX62BVdZ5aHgOEXTHumeD8e6fcH8M5hOzbGppnkQZCVAn4heGJ+VwgYZ3qEdAbDwyLJe1Rh2y0fTN1VUWeOvs27DKnAaiRqEBUctX+RReoQdFnLvjyVrIRiIxB2Dnlqr6aKUVVwo9ZxCeWGSOArr3kaoHEWLypzHWPNKJxOChNz3Gi9TKMeRqB4MVXZvdB8xLt8giqQTmJ4gV0vmzn/2sHHnkkZHGyoQfCCQvsUFyb3jDGyLUAZldeqmlwmthKtw497rryg9/+MPy+te/Pogu75qZ5X78ox+Fl+11r3tdfMpG4RzlGKX9s5//PMgzL52UbgaoILd/OPvsGCglrvO73/1ukFnXX72eYyIFA+zkmD33nHPDO/yRj36kTLhvQmQVUK5zH6vXO/N3vyu/Pf235YH7HwiCj5SLb3aOYz71qU/F/f/4Jz8ubzzqjZEFA5GWacAEDtbTa7xgwnulTzTAfvmrX0ZDSTpBDTv6hvySbQ2vL3z+80FAOg29aeGV05BraQL1OiDYejS++tWvdnoWEok5QLN5esXQCnLHocAJcPVVV8W4CvK3z777RqNN7mwzi9aTynPTp4dckuFEYv6hcbQOPwunU3cZTCQxTswzPP744xFbKXYXMbzs0stialPvgwdNhoiVV16pHtmZrWna9Gkd8liV858eeyxIqTCMluuV5/iMM86oBPneIBnKWWPNNSJPsQFvUrxNqOSZxxZJNUhP9zbSev/9E8raa60dHhTpsQyA2lhKtkpc6qUjNnRKJTWmXQWGw/273zXrNXhhyJSBLSb2cA0e4yC5tQCeGLHQwjZ0WfIoCqsQ+gGOa+QpsWBiIGL81toAW5uc1fdLmSMi999/f8i9kKE2xW/sr+c6RiPs+Reej96MdddbL2S1xXgmEq8IVYeRzeeqHkOKW2gE2bPoqbviyivL1VdfVfXQC9E7t9mmm8aAYuFk5NI5Q5AOJHoaSYznG5IY9wY88enTps3wkiEEtHaMsq772vbI1FA//S0+fPF4X8hlHF/Bm4ZIyAV73vnnRbycmGChEZLdS3PFA9dIh8XAub4D3aY/N70MHzY81g1IcW2DUEL8GZVuBXWu69svQT4CHkamlo288E4j6Q2RRL9exznKa8S3keBWwZuRSizYIAf33nNP+c1vfhMyEr0OtfHTkSPv2ECmjqx39E5Hrtp+cg++8yKTnUZiEok5QciZla5O63zpZKCgh4VUyKUt+88DtfFGHoV+7bXXnuE0iBj5Kt96OehiBFoxLa92IjH30ThaR1iTGM9DJDHuYXgn9aO/2DVyjHj6bJXD++OBEw4hib1sEGLnpEgzTeqqI1YNwusdB9kY5AqVGNogX+PGjy8nn3RSNMaOOOKIGb0CiUSvoZFl+pHsTp40KabbN/bDuAvTS8vHvuuuu8TAPccLEdODhigLS9Nwa06KRGLuojeJcQ6+S8xfxHvovBdk2KcuZpuDFFc1Hoq4NmxMvnHnnXeWa669plx15VXRHbjZZpuV/fffv2ywwYaR2H541+urHOdZTyTmFciZ8BoDNXmMhcvIZpJI9CqQYgbQ5EhSt5lQRs51A4P1nglRe+LxxyPfsX30KGeDHjDyHucnEvMEjaN1v9X1tgwm0mOcGBT0FX4iyDuhdnhLU6dOKePH311uk/d13F3R3Sx0Yq211y5bbrllxMfF5AdCJZzTFeHmdU4k5hXSY5xYkBB6tjuph9CI6FmrC/Ib8fCVFN95xx2R9/iZZ5+JsLS11lyrrL/BBjFQWZpJ+rXp6kRi7qJxtI7d7hWPcRLjxKAgFG39Jx7Tu0KJJz01KfIc312Jx8OPPFyeefqZmNVJrmID5QzCi1nB6vts3oxwNddXS4yHoCgnegxJjBMLEjoa0cQ0nVntmopEjskyZ4K0lOPuuisGjFroVd5kU9ybUQ9JFnucSMx9JDGeb0hi3PvwXihqg9sMjHvqyafKbWPHlvPOPbeMv/vusvVWW0V+V0p5ySWXiMEfRFXGClzYoDekuhbUuDF2HOUmEvMKSYwTCxJCH1qqbqQjQ1fSk1WOfTbvscHOLd+xHPFX1UXO9l132y1ywnNMJBJzH71JjDPGODFvUB+4WZY0Sl6ojZTOpk4cMO0sx6Y4NrlcDQQ59dRTy+VXXB7H7bXnnhFHvN5668VMdK2ShJLvvtv2vb1Wn7E/kZhHQC0Wqw00MzGKfZctRViPfMVkL8KBQgQ7cmmbuPno4Rg+POqDBnsc0ZXVkOG6NH3VZL19T/QG9FBJv+c9ttR6nQFpnRRpnQw7i1S9Nr2+w06vllCvDul8vpvPenrIiBSR8gbb5zsZiR6wRReJ8IYlllxiRjpKx8qCE8fW7zSfY2XpIUvkxT6fzz/fSQs4rOpV8lP/1X2dTDxNxmzr3N+f6z08F9cnre598cVNWLRMpBBcdZVV4/7/eN0fgyyvvNIqIedLLrlUmTr16VqGHrvOGBFTULsH3599dnonq0UtzzXUF88p7rvei/vsbF+sPg+/a5ibi23OF/Ns0qSwD8M7M0L6vZ7dIossFufJ5tK5586zU0ts9z2xoKHpv+63ut6WwUR6jBPzDJSWyTNoLqOciVrnXdSKUPdLHSTx/H333RcTI5hBTB5gccRrrrVWEA+xxHFwIjHIIL8MsBnrzvjd78qKK6xQDj300IjF1IPRJnChexjzZyqRQhKo+Lvvubs8/NDDZccdd5yh9GcofzqqS5iRbxpZ1zWiFL0iiZ5AENWqz6ZLxVffl/jciy+6uDz66GNBaMmG9+44MuC7d8wbi1Sa0XODDdYvr371q0Mu2jFgsLF3TsYQcCnVkMQdd9gh9GLIVL02Qg0IbcuLrQeDc2GTjTctO9TjEdEOQe6Q0r7y1nfdjKBm6KR/XbeRbPcmjZvJk0455ZTYLue8+6CTEVcT0zimXUd5BvFdf/31kaNe7nrH2q4RKQOGPO8GT7fUmvYhwK7n+Tned/dsGv4rrrgiJnFyT+7PcZ7JC39+vqy+2mpl3333rc9zgxm2PrEgonG0jp4jF20ZTCQxTswb1OdO0VNyTTlToCBFEGUsbOLGG2+MkdDyERvhT9ExIjwiJDNj2xK9giAjVR4NCj3rrLOCEB944IF/MUECTUPeERzG3MAmMz5aP7TP9M/ts8H5jdR0BkxV/dXZlRhkaOTLgOOdTavk9IWqn665+pryT//0pbp3kZj90vv1/k0ChNCZEdGg4Y79WaQ8+ODESly3L1/8p38qq666apWPZ+Ic5z89dWqEiUmPJqThzLPOLHfcfkc57LDDYrIhhDGIrpzCXcLL47vU0kuVCy+4sPznd75T9t1nv/J3f/d3QSpNQuOaSDm4hyZfyKlBduKJ//mf/zlIq54Pxzz22GPx+f73v7+ceeaZQU4da5uekokTJ8a4j0984hPlne9854xypdQ0hf/vaoNRfTjArKNVr7tvM6AKzfA7dt555/jN7svzccy4cePiN5swyfNzDrvwq1/9Kp5TO4ZdMFvflCmTVZ7yib//+7hO3wZGYkFDbxLjDKVIzDNQmhaKUG5MrX0Km9K75NJLwoO2yaablNGjR5ftt98+ZqpjYLAB3Wqd7sls0CR6Ax3CW4Ig3HXXXeEZ26Aadx40hnnylCkzUl/JF/vkU0+VByuROOP008vllWCsVwmGY6UhfOLJJ8qTTzwZn09NeirIDnkHOksl0GXfWU8MNryHRizpJIYbWbvyyqvCc/k3f/M3Ze+99w7yZ5/ZNo866qiYAMZ2PWFPPfVkkL799tu3LLXkUlEWPPboY+XhKlOPVzJNNuhJxylfLDAP6+NPVJmaPLkS6KfL0888U5ZbdrkZupWT4YzTz6jX2DocDJdddlk54YQTym9/+9sgpJdeemnM1onknn322SFryLHZO88555xwRiDUm2++eRBj6QdN2S8lIS/vscceG8fTzbzM7gORdjx5Vh8uuuiictppp5ULLrggiDmibApqM5XaJ3ey2UB5tm+tDUs56XmJPYOf//zn5ZJLLglS/Yc//CHqlvtChN/+9rfH9P+O5bX+20rGl15m6ZigRO/LJptu2iHG9TfVFxPPM7EgoXG07re63pbBRBLjxDxDe/aTJk8qd4+/OzwHFPSdd91Zpk/veC722H2PULBIBsPj+AbdlfnaEj2DKs96MB55tBNjvNzyy5UtquwiElJd3XnHneX8SgwurcTkwvp5bjXuCACCgyAPX3x4eOduuvmmcvNNN9fPm+vnTeG5Ez7UPGbtOk2HJQYfwha8l4gv7r6TeyshvaYSPWEFY8aMiUGYsjmIyeU1Pvjgg8NDus466wTJQw6R3tFjRgcx1iv27DPPBjHUAyE15fU3XB8EEtlVjt4Gi2033HhjkF1yIVPPY5VIy+CDwCK/K620cllttdVmyIweDR5VBBIxByFrZE3vHILLy2ssB+eE6zgX0eepJbt6PUxZ7v413BB25Ll59DQAhBaZPh9xVhfWXnvtMnLkyLgXnmETiHhGPM1IvmdiEW7Ba+wcRNt4E/s9N4QfcXfvpvtnO3jf11ln7dr4vD/C8NyX81zD8X1tR2JBQRLj+QYVpBmVzkNPYjwYoFR5DngJeC6kYuPloAz33GOPsssuu4TSM5hiIAx25Ugk+oI0IgQ8ZMjsspUsbLD++kFoxUciDjxgjDTPnwlpGO7XH3lk2WrrrcuylTggJLqmkSXkZl2f3YUnrMUU8+qloe8teB/ePznwnpHf8867YEYozYQJEyLUQNwu+eBtRSTJAVJ85ZVXBokbPWp0kEi6EBk8/vjjg1juUXXittts25GPuogX3niTjcMrqjdN2IRGlzJ4dG+pxBWhbo0teYpdjzzSvRbe6r322ivKRISRd9+VR0bPPffcIMF0Mk8zAnxklVe/j86+7rrr4j7dP0KsDOeJN9YIQNRbOJz7RWz1CjZvMHKLiCPB7svvRJzVC7ofeUacLbzRniVPu9/BbrgWG+LZaVTcfff4uJ6eGQTesxG7nb2LCyqSGM83qCAdMryAEWP3u6h77ijfQPc39MLSl8C2WesMjjOwjiGnQG0zkETMGEPBI2FABq/ArrvtGt1hW2+zdXgzjL6uJc8YW9f3WpZXAvcAcX7fJZGYQ7SxC+JHEQVEl0FfvBr8jryVMmLVEdGVjCAd/prXhPdrww02CLlEEqQgREIQlY3qJ4Jg4hrEWr0B0voSOU4MOrwP5FeceUwuVP94jM/5wzlBTHlNhQMgkkIWkDmEmKdXeAEyp7dMjOxrX/va6D0wWJNMGOSGqL7+9a+PUIi11l4rZEZjaeMqX6tVXblpJYCmwuehRj5HjxlTvy9XVq7kFDEce9ttZeedR5bDDz88ykIqyajyEF/XsU05vLXkCumkn5F0co0Uc1a4LhLs97iWwYI8t85FZnlrZQ3addddI/xB6APvNmLtGmTfNg0H12ALPB8L0sweeEZItvqDRPM881DzlLtn6+qRwa2urTGqZ3HUqFGhzpWz88ida13aKGKtZe+oL6b7thILDjq2vr06620ZTOTIpl5ClY5Omp6OgRRa0IxkLyzSEvkEYQ6dUIdForXeiDJlN37cuBhs9Ovjjgsv8UYbbRS5MHWvrbvOulURLxteNef2v8YcLTIDGIRRH1onz7GMFmpcKszEnIN8ty5kIFXkjoy1hjiSc2MlQztUY75ZJRIrLL98kA6eMuSBJ8zgUwOtoiv92WejzFpChE+YwGZGjtmQ3UQvwzTKsjPQbxYhA8IWeGbFG9u23377BeHUIEI0Qc/ADONfPw2qa7HFzfOLMErVRj7IDHLbZENDajNhPJXU3nnnXSFjYoVdU6/EQQcdFPfBe41g8rg6hy52bMhcV8bcE/JMdyOgyCzw+CLZ7t2y2267Rfgbr67YYgRaeIRzOT6EYvgNCOxb3/rWiFs++uijI0yDN5yHV6NAY9HvEwKCPP/kJz8pX/va1yL+Wf355je/Gdkw3Fsj8n6bdcTY8xZ65zkB+2O660RibiE9xj2CZnQtCGPf39C2D/YiXVAY7hnPdJEwDM8+Oy2SwRtIxHtCuV1diTFiSjlTZpQ1BYxIKKshyl6sU/4c/9ZF5MjsKEvrjIjticScAnElU2TVoNFx48fFAKiIkVxu2eje1qg16AkZQRQQYTGjPGTXXXtdufOuu8ITd/U1V5c/Xndd7BNjKhwDCWl1vv43Q6YTvQHvxfvoNFW8oxKk7pabb4nMEW95y1ui4Y+0OZa3GCk0+I5nVc+AtG5Tn55S9t1n3+hhiwGblYyee+455b5774ueiJur/iQbGlecC7zMvM080RbbDPjcZZeRZfHhi4fH98c/+lF4WpdbbvkIU0DKeXbJH6+vGGIeWKEMdHHTw65nkJtjhVeQQWSVN5b88v46T7gHGTaYjlfYMUgqby9Zd01eXQTcM9IbKMwCEecAcT26nWdaXLDGg9+lzvAOI9QajuqGxgCy7d5aQ1LPo/tsISkXXtQh+/LdI+qN6HdfTmKBQuNo3W91vS2DiSTGPQKGt5Pk/EWhsK2XwENMCTXyCa3VLoUVQqyL7NGq4HgRDth///A06Db2S2YosIr2jvqi//dXihnPsJbnmk0WEolXjCqa0dCqcvTAxIkxmHTFlVYKwoNEkDPE4o477wjj/ehjj4bBv+22sfGpG5kx55GTd9agKcTKuRqNSEsMPq1/0Xis67xgc6tOJOYM3sNAxPiyyy6P+NmWjUIPABIp84KwMeTRexVOgNROqUSYF5mXEznmBT7tt6eVO+64M7KT3HP3PRGGoBF1T5Wj2++4PQZ1illGWHlkR1adyuHwUCWOiKv7eKqW457IEWLM00vWkEvkVKgCTy6S7H7IK88wwonECo1wHhIu7hi5NWhU+X6XayPhyDLdLnaZ3JJtsdR+C/1Pz5Jf5Fk5zhdaIaSE19pz9LzECLtHz4JHmDfaPtuOOeaYuE/3jiC7BocL0jxx4gNlUn2Ga3RjpZFo18uY/AUVjaN1v9X1tgwmkhj3CMIbVW+SwtKS7iSR78x0RGrabxrUpXsvFCtlyZPwaFW+RgzzJlCAurgYiTGjR0f3l0EZzvWbeNva1M6dojokwG/uxO7N+SJOsy1iAc3y1Mh4IjEnCGJUZez+CROCjCAPGn22L7lUZzKDVVcd0c22snt4CnkRd61EhgFfZdVVoos5uqbrPoOVeBjXXmed8IxFvap6IFCvU7VXZz0x6PDe4/13vsU/MoAoLrvMskHMkL0WQytrCU+qxhKCZ7n66qvKM88+HSRUXLr3jeRdVQkjQnjUG46KvNi7VdnhDeXdHbnzyCCAZGbPvfYsBx5wYNm2yswSSy4ZvRMypGy+2eaVQD4eXluD8hBhg9pcG/k1qA0QWSTWb3G/tp9//vnROFM+Ui1+GIGlw3lq6WcecUQVmeddFvfrePIvUwSS7vch7+QdAafTZcDwu9yT8AuNA+f7/ci1RoPv9rlnDUoNBV5k4F1WnsF7oD4dfMjBZZeRHSIdvZBLLx31rtXNxIKG3iTGOcFHj8D9ah1TRhQIIgkG4vXKK/IcQU5i98tjMeH++8tNN94Uz3mTTTaObr4Vll8hBnKIoWRAKOHmpRBLF++lj9H3++ZGRVAEIvx8vYapRsXBISPrrL1OXV9KHYz7SSRmF7XZFaSVrCJD0mOJ8UReEAozPDLsurRjRH6VdTHDJobQ4OXx4jE2IG96JcERF1nrRJvJDPFQd3Q/tzEG7XqJwYf3oGEfPWR1XUP+kosvLp///BcquVurkrTNKxE10cSiEW4wfvzdZd9994kGEd3mLV5et2+w4Qbl37/+9bKc9JRVPhDpL3zxi2VEJYrve9/7Yjpmg+lM60xu2IHFlzAtdKdHgh4FYQff+973gpgKa/jGN75RjjjideXoo99UCemU8P5ecOGFMYnSJptsGk6M9TdYvxz26lfX++mE6Yy9fWz50j/9U9zLe979ntCfESoxdmw54rVHlB/96IcxiNCgQLp0WaFDG20YOecN/GszACK1P/3pz8o3v/XNsmUlq2tXfTt58qTaUOAoWa6eu0wZN+6uSuIfLfvvt188s5VXXil+h99HV3sO8iDzMiP46gcSj7SrTyeddFI4WnbddZf6LF+IsJGNN9qojFhtRMRrsy3t2SQWJDSO1tFz5LItg4kkxj0C9ysVz09+8uMyedLkUAwGXIgjo8h6Ac27S5npMuw8V3PlPx0GnfKkJJtQ2zc/0USZ9819uE9d3ccc86EY6R25YTsHdkiy/4ae+CfmBeiRKvvi7HnULqvEmCdLNzByohF4xeVXxGxdjLx6ok4Esamy+GDdZtIP5Lc/kKn99t2vvPnNb444TIQjdFd3f2LwgQjTH8iphj4dI53ZV//t38pBBx4Y+YLJxjNVF5566qkRe2syip0qyUPYTP4iXzGC+i9f+UoQPmUJd/jOd75TCedG5chKQIU1kDXv/uVMM/kSc6tsntovf/nLkZHive99b5z/cJU3qdTuGjcuyr3l1lvjvEMPPaSsVYk8uRTe87nPfz4myzig/gYD+ehwXlmx71/9t69W2V0iPL5m/ePB3W333epzMMCZl++F6NUUYnT8cceVH/34xzGF9Y71OKTe/ZsWnff80ksuCWK8xx67l7e+5a1Rd6R8mzJ1am1MTohJTi6//PIg5jzSehp5s9Ul9kRohnq2+uqrxXUNIjz6TUeX7V613YznlMR4QUQS4/kGSsMSxiUe+oJBjH935pnll7/8ZeT41W1EeRGYJjSDDYbeIAleBDFrusN0lXnGlBKDAX5LI83zG807zftuZLPuvH/8zD+WTTfdJIlx4pWDHqly3Z8Y61JGZs28JawIAXEcqTK9rzosBSOP8bi7xgV5+QtUMRwxYrXwgJHf5klu+isx+KDT6BU9B8OHDY/JNRDjH/3whzE7mxAIKdjMTPerX/+6nHLyyeXjH/94xOKSAQTvuEoe77n3nvLFL3wxiDEdaSAZuRhTj+P5jUw6FeSg9bj1B5KusUVGlHFFlcfPfOYz5bWveU350Ic+VJ586sly8kknRw+FckePHhW9euJ96WuhGitVkink48v/58vR47HRhhuV9dZfPwbGcSaIb/72t78ds+z97TveET0kiOmBBx1UVpUirl4biV66O5CP3dJI0HOyOi959z49t0nVVgi10DhwLuJrNjuEG2n+r//6foR88BS7vlAKDQ+hKT7Zmt///veRBYPHWMahpaotcp8rrrRieIzRGPeRWNCQxHi+QWW0NMPSIWm9/TPd74knnlh+c+JvyjEfOiYUmlZ3WM1YegPNyyHcg6IUyzbYQjwQ3N+///u/xyCYL37xC2WzzTdLYpx45aBHah3tT4zFOi5ZyYFsLc2TGKTGsfWzqVdTQss28P73vz++94VjQl+pR3UdAUOmXKsRpcTgQ4OFDHjHBhmb1l6YwMGVLMpO4n3rSeMZ/t2Zvysf/chHI00ZbycCaBwGD+qnPvnJsuqIEZGKzeQeSPJ+++8fRNP5bBZdNTMEAaS/qmi5J6T1M7Xxf+Trjyzvfve7Qz5vvOnGIJImExELrFfv4ksuKddec03IrPh2xPPzn/98EEx5kddfb72I++UAuW3sbeXrX/t6TBzy6U99OmSSLtWL+fTUqWWFFVcoW2yxZTnwgAOCpP/q178q3/7WtyPcYYtaL0Ke3WzXBpNrIREya4AYe8TYmJS77ryryvtzQYg1NFtPi/P0nCLVGhWe8X7771efTccbze6ItXZM1pMFFb1JjHuP0SykIAiUj24qKdBCqfQgKH/xa7qyKNzBFuCZoT3PjhHp1aeZWOBRZQuJ4d3TaPSdUedZBPLHw4UYzPjeb2Hk1asgEN1jOoY/5bZX0GLFvadp06fFgONLL7k0BsmJhUXO6BuKWw+BSSe8Q40d04WLPedBNahNmICeN0RVeMEIzoVadjS8ahnCFl4OcR2kuJbtGp3zhgXxNHiOZ3irrbYuBx10cIQr8O6aNW+b7sRKSL0wBVkw3BOP8faVlCLF1snrtGenRUiPT6SaN1eIBKfIiSedVK684soydcqUGQ1AZFYDEdE1IYmpm9euy5prrFFWr7/PIDtOlOXrb9cocM9I+s2VePNiy22sEeHZIM8nn3xyNBosZ555ZmT0EGZx6imnlJPqvlNPOy1CRW67rdND06t2KLFgIrNS9AgoXt2wWuWUkEEaHUPZlt6B+6Kce1kZ8byI8+NtkCHDII2OB76LWO2t55roYXT1CA+dUKIJleggGYw6T59Bn+oFUtPqhe/Isq5eRAhxMYLf9r5L/S+ItTrl2Ha+Ml0zMfhoMbOdt/HnSuhuiXhik1cIKUMQEUoxt/dPuD+yK2xbSfB6664bzg7kEjF0PLIq1MuMeMrgwTUAznsPmaifL/fem9y4G7HAZMssfPJhR2Or3sduu+4aBNUx9eg4fpmll4kMELJp3P/A/ZWErlgeq8RcZhXeW+Q25LHi6WeeLg8//EiE95it0RTVa1Vyu8KKK0YjAIk1kFSOYjLO63vFlVeU+yZMiNRsZui79pprg9DylF919VURToRoK8+kJ+qDcI5777k3ZN/1lW2g3f/3//1/4fmWh5lNRPhlPRK+cvVVVwZJllpOr6Vps53X7j2xIKEry11xt96WwUSGUvQI3K9BG8efcHz5wAc+UPbee595Hkrh1c9LAZzX5b8cxKUJpeA9+ad/+mLZbLNNO8Sj3hNJiLvy35CT/sQ8QZWVRloZZZkpeP90ScvA0vaTdyIVXrzhw2ac06bGRUJmBsfRVe0zyhp66nmBRHjx6yed7L0IjXiqkt+Ic11hhRnvy8I7/PAjj0RoAm+wLCQa6AjkmrUhJfacF3ns2NtDBW1ZG0tBiut6vO9aRl2JsgaCY+L4ul+DatJTk2IgnYF79gnBWbtexzFRaP0viH39q3cY9z5p8uRo1D1YyeYyyy4TmXsayXXelKlTIn8ywiktGq+w328AKfK7zDJLVyLemeoceJJvve3W2gB4JmKf49oV8Ru6v6fds3AL2TqcY+DgDTfcGKEUbQIQ96Bh4Zp6XzQ8m2fa9qWWWmKGfXdvBi763QM/rURvo3G0jp4jI20ZTCQx7hE0Ymwa5WOPOaaMGTMm7p3gdJbE7AAx/vrXvx7E+Etf+lLZdLO/HHzHSCQSs4uLLr64GvPry0477hTkmOHujzDUi5KwDrmVvg1ZFo+ZWDAR9qTqEOn0hEoINTAIrD+8b7HEiy8+PAbq0TltoByi2QZXCnGgkzqhc7Oui1qGjGbbEEn2oxFP99gIvGu7n05YTidcw/FxXPd8n5wGQX7Jbf2uvBbvHDmXu2X7zYi+awm7cNsxQFy5dfHZyusPZbr3CL2o5/r9GouP/+nxSO3Gky23MoIuPloMP2+86zTCLmWerBRiiuM6taxhwxaL5+feEwsamhx23l0jxZbBxOBePfEStI46grIgIRVSItEP3TqsLiPIbXBeYsEGUiZ95vDawEHgBoL3zaOKFJMDooAQWzq6shLVSvBkcEA6Z5cEdHoSO3CuxpZ7UZZrtGn7A4hufNZbqR8IK6Jp0JpF+ILzozctDndgh9jKn6w8pBihhYiBdg2yXAuUu9k5jlcWr6978b3/EvtrI9L12DphRyuvtFLENsvCZOIPY1fMdGdGPqFwZgHkNXbPGqAaInLSL7PssnEd96NXJuL4E4m5hCTGPYJQOx3dM8/Qn8D63n/bK0FTwrwPlkRiYUeXlgR4sxAY3q3Eggu6zUQbskl0JmGZie6sm5E1ex3HU8rj6XxbY0bTroeMh7Wtzyoie0kFstopswNlxTYe1abbq26mnzv30tnejo3f4bj6vXNfnXtt200w49zO736u8xvq9hn6vv4Och3l1+2O4VEW3mF7/8V9GUvD28vjzsPsXA0NZFkoiNjlgw46KAY0Clcy+E5PqvAUBNk9xLnP1fXnO55y6JVc/4mhgZSmHgTlMy/QFFpDRym9dNucgHJs5VFgicTCiqhb9a8RlKgb3X2JBQ+N3CGlHR1Xl5dR0953/a9LLjtm1nmyR7RyfL4ShBzVshBM12mEtu1znRme2u792h7HIrmOr5+NKHd+Tafx1rm3zvHOi3usX2J7t5y2DrzXsXTPjevVvyCw/RYNgCjXccNMf94pA+FtZSLHchnLdWw6aIMWpaNDksUkx3Xq7zLxlWfpnKxbibmNJMY9gqjYrXbXij6vINH8xRdfHKN8KZQ2MlgKHwMbbLO8EjTl1pKzU2gGnbzS8hKJBRbdutzqkwURSSyYQCbb+2t67uUQhI0X1jn13SNzzmty4GzH2Da7CMdJnzKV85Kl/s2QuT/LUtHRv45txyOwzncfcWyX5SOs9ne2dLfW/4R+QPNGg89GeuP5KMe+er646b9YhnWJbCPkdb0TAtE5T4gG2C7G2GyCr33tayOTi0F60rYZ+GrGPzMIujv3Fc81zkwk5g6SGPcQKLTQQnOAvsa3KbAGyssAh+9+97uhYCgXrXUK52c/+1mQZucow6fj+5fRfzsSDKHsq0IDChDR/vGPfxxxYq6RSCzIIO2NVJB/nsDwenW3tXonXKJDRGQMeJFE2B8kxXG1mjimlcWzZ71vOa27PNFD8I7qR7zT7nudGYJSvuSQDsls8uCz/c02nNsW3+t9xY1VzNjeXRzQ3dVZcajjA32u7VDnCAER2mFXLJ1juh/19BmlRTl9yfaMPX3KecnSCunCN2exFzG9dDc8hYN9qaWWLGuutUbZZZeR5bDDXl3WXnutcu2118REHzfeeEMM0ps8eXKEVag/cc268HZD85gnEq8EqX17CB210TGQrxSUVEPfcigNXlyEVXJ6gxrk0jTyWH5I35HYs88+O6bflDzduu0NypAzE6k+7bTTyhlnnBGDJFoC9kaA3QPFJX8lzzSvMRKeSCy4qLWz1id1QNe1uqUrF8HVOIzu4WqIG9FFcNUD64w175x8to6rp3SyFCirHuecKK8SBMcFgbAkegYvIX6zgv6vz/f+7zS2dVZfEZqcxNLd9nJwTN/jBjgnZG8gzGz7bEDZM8r30V1HirsbYvGcbVN/DLRbb/31yqhRe5WDDj6ojBy5c7ni8itiltjf/e530dvJvqiDUdfqX6tTtol3TiRmFznBR4/APY4de1skjpec3eAD944od5Y5A2J67rnnlp/85CcRx/XGN74xcqqartR2eTAfe+yx+JRQHfmVgN49mKazPUf7zjrrrNgnwbpk7pKum/TAxCRGJYNyJ0yYUPbdd9+y++67x+AKCG9bVXh9oVzo/N65A4RfKIe4tH322af+5pVnxLQF6upsmrrEQo1OLCX5vWvcuPJ4bVSaolY+1kZ+H37o4ZjY4O677y7j6jETJtxX1+8p4+v6+LptbG0k3l/rxD333lvG1QbnhPs763LJmjEsupLJaB/dlUgsrDCQT11Q70zkse4664TNWmPNNcrEByaWm268KSbFUidXrjatNUSbffGpZyfRy2gcrfutq/cGW/clMe4R8B6NvW1sufmWWyJ1zdwgxu0ZUBzih80iJJTine98Z9lmm21i0gEzDIk5Fsf1mte8JgY9GPxg0gLxx5tttlnZfvvtI46MojFr09prrx0DI5DeUaNGxRTRymrTnbYZihAECdglktfthZwL14C+qY7ae5qbSGKcmJsgKWTUSHhEl7ybWMBMYuqFEfo33HBD+XmtT7+vDUe9JRdddFE56cSTyoX1Uz7ts848s5xTG6E31uPUj6sqif7jddeV8ePHx8QG6gRy3OpCazAmEgslaj0QmhTZK+pXKdukkDNjnwlMVqt2Z9JTT5W777mnTJ06pSy3/HJl8cU7OZf1XqpHjSQnehWNo3W/1fW2DCaSGPcIghiP7RDjkbvsErMDdYSjLbOH9vt1KyHFYrN+85vfxLbDDz88PLqIKmOO7O68885BXhHyqVOnxuxIpjDl7UV8gZJhuNtUuD4tyhQyISG7Y0444YRyyimnxDWEVAjROP744yOMw7ptm2666UvI8dxGEuPE3IYwiOcrAR5/9/ggxmb+MgFBENgqWwyyXKubb755zGa2+mqrRy+MRubIWr+ESmgYmg537733LlvU4+Rw3XbbbaM+LL3MMlEGKFNMckcHJBILH9QB9kQN6NQx41c6eZrVsxEjVo3698Tjj5frr7+h3FFtkFAkNmnZZZftFJJ6vsfROFr3W11vy2Aim1M9ghCD+K9PHNYcgGAhxTzEf/jDHyKsoSVyF3t13nnnlcsvv7yst9565X3ve1+MAGa4EVeeLh5ipJjHt406nhmaICubl1l4BeLAo8zgI+a8Ygi3LjFetsEW/ERidkFiNa466bc6DW7widCuylDXBRl+6KEHQ94fqY1ADUEeLOtmRJOC6oGJE2N0/Vprr10OPPDA6GkJT1e3riHh2Q2cWJiB5MqNzK6wTS2HdHPQLL3U0mXrrbcue40aFWFNES54zjnltN/+NsL8WpalRGJ2kZq3h9DI4tyijMpjhJFj4RAHH3xwtKQpC55UJNbU07xXCKt4SQPyKBixwgbaGdhAKVFEjLuplg16OP/882PQHYJtAJ5z7EOKJWPnBfvoRz9aPv7xj5e//du/Dc/Yq1/96vK5z30uQjZaLDK4n1RgiV6GuqSBSE6tN5k1ra3eHvXDyHvhSj/7+c/LpZdcGgODnqwNxMdqnVIvJtR64bs4/SuvuKKcfPLJ5cxalxpiwF4Q71p+XU8khhLINRuC6EJzuLT6RP5bvZLRhR10bNseg1O7jUfbWp00W95RR70h7Bj7dv0f/xiDx6+88sry2KOPxbFtkKxywLkLwxJ6qf5ez60NEvY86s7OZ3ffXCMdQwQZStEjcI+3CaW4uRNjPKehFISewCOgckK2qTbF/YoPlqFCiIFuXy1rIRWyVfAgO14MpKwTvF5CKYQmqGTCI6R7E6YgEwWvM+Jtuk9KDFE2cM/96zJWlmtpwZvVSAufgnNs5/e9iP7f5wQZSpGYq+jKjnoqxlijUZ0aseqqIcvTqrxNmjy5XHfttWV6NUAag+KGDUp1zFvf+taoj2KU//ad7yx77blneIzFUJJPdSKRGMqg3xFU9aXNjkfum60ygFXjEoRLONa3vgvYx5tsUZaeFvZn5arjV1p55dgmZGnc+PFBxIXsmaJ7icWXiHtovZ/9yx6SS32GGhm+sXfxvOu21gB/Ef2/zy80jtb91r2vwbmXF5Ee455CRzrmhlBEK7BCLJZuJpkolEuBaGXbrvvWwDuZKpDiJ598MkbTUyQG4THsvMPHHHNM+eEPfxjKhgfZ4Doe4He9613lIx/5SHn7299e9tprr1BwMlO84Q1viLKRcKQZAdh4442DYLuH/qTY+tz4zYnEPEPV3CGh9b/mzWJkGFlGRpjS0rXeGCg0ecqUaGxqVKqHGpQIMYMkRvnput3+p595Os5dqtbFRGJhABKLrCHA6g/qG2FDdZH+UF1hHxwzbJgQipcu9oH6p+44T+NyiWrX1lxjzbLLyJFhu4QnbfeqV0UP6LnnnVd+f9bvo9dG3XSNzoQjf1n+UFtC/9Tns1h9tgYvRiOkPjdMwz6ftqX5fSkWqQLY5epDB4xV66KxdF58b/9MBvXUU04pxx1/fPnwsceW0aNHd8liW14ZvF7lMMQm8eDhffOb3xxxxG95y1uCsPICC4swYE7ohWsfcsghQaIRY4PykGBZJ3iDdTIgw1K+tUEOSAACzEMspEKeSddCrp0v5duLv6lzX+3e2ra5Cffw9a9/PbIBfOlLXyqbbrZJRynbSeTrJeuV49hE4q8hDPgisk88H3VCzP7Bhxxc1lt3vWqAhkVjUzjRj370o3Lqqad2DE49Vqw9w7/C8stH3Zr69NSy5pprhVeZ3Ov+/eQnPxl1LZEYyiDvUY/qn/qCqP3p8cfLnx57LOqGXr56UMdxUo9ntwfCQDaDLWHz1UWkd/q06bWuPV1uuP76sFmPPvZoJx55z70im8US3fShQx2eZfChF56vDYLFwwZKeefZWyLPc1VWjpvZ8563aBytw8+Q9bYMJpIY9wjcL2KKGB9zzIfK3mP27lb+tswZEFep2cQDf/CDH5xBWsUVUxynn356DBri+TU4TpwwZSXTBOMtbZuwDIT6H/7hH8r73//+IMY8z8p2/0hyU1jIg0wUPMu8aUcccUSs9yXE0D7nNpIYJ+YmyCxlTc7FL058cGI5/LDDoyEY0+R2FfvEBx8sl116acTvi+mLGL96rkF3y9S6Mv256WGI7NeT43yNU0YqkRjKiFnpquw3GyAU4tZbbinf//73O/G/9U/aw2Yf9LAMBFrbsX01eNiRupg4x2fzTHM4sWWPPPxw9JquueaaUSctjhvqoLM00MMTP2yx8uwzz8a4osMOPzwa656jxyw8pW/89/xDEuP5hgWWGJ9aifFxx5UPffBDEXcYlT2q/qxXYOX0F26/Xwv9F7/4RRDgz3zmMxFCgQjzaEl5Q2lQTjxhzm/5imWlQGiFRrgfWSs+/elPR3iFeeyRZecYaKTCNQ/y1VdfHSRamW1CEZMYDIQmgp3fO3eQxDgxNxHGumtkzPr44EMPlde+5jVlzbXWioFy9uumRX4vvOjCcsbpZ0S9E56kPhncyjsWYRdLLB7dxoccemjZdZddoiGqfiYSQxmIsb+OPe58Gqz6lX/5l7LhBhuUbbbZttqI5WpdkJWlM6HOQFh0UaEWnTrXgEQr0+ySGqogq8uz056N45ZcYskybfq0GPzqtE7+8aGv/z1LGD58WJlw//3lkmr3R47cpXzgA++fEV7JDHpuz2rID5vfYx2SGM83LKjEWBfsr4/7dSWdx5a9K8kMoQ3yNucVWDcvjzGy+rGPfSzyEH/nO9+J8Ae5i3muxGMZLIQIS9Wma0uYhWN5l5Fls+Qh1mKLDzvssPAqm0Jai/Sggw6KnK2E2kC/X//610GQkWikufN75g+SGCfmJnhWQl7qv5NPOjmI8euOOCJ6XDT+9IqQbwRX41FokoGfdI/u3ZD9ujD2jlFP1Jcxe+8dscnUsHpjn7pEHyQSQwlkPMKOQrarDq7/Lqh15eMf+3jYvLe97W0vyVY0N+HaPKLsld4atkyDVZ2bn3ZpMDFu3F3lU5/6dPRUffjDx5bVVhsRei0aE93GyvxHbxLjwb164iXoiEZHUOY2CJo4RgqC0WXQhU3IFCEGWOiDLidxwGbBQ5AZd93GMlQgmg0MNyVjcB3Ps8F4Qi0Ye4b9jjvumDFltFCLlspN5XN9SyKxIKE1oproNm+WgXhtuvP7H7i/3HjTTWF4DUJFfHVZiteXoeWQgw+O3N4GB8k8ox6Y+e6iWofk+VYW4tByGetqTiSGPuY9IWNT2S09mm22yoUPg0F8F0wkMe4pNGo894GUIrM+tZp5s+RTlUqNETcgj1fYdx5goRG28w7bp9sFtLKVIYuFPJEtR7JQC91iJhNBlnnRPvzhD5d3vOMdQYzFNisXYXbdJMeJBQ2dRt0LrGyn8crYViK76GKdHKEPTnywnHXWWeVXv/51OfGkkyJdIOJ7Q20g8iILYxp7++3R66I35Ze//GU56eSTY6poPRumtw3PdFMAWUcSibkGdZb9QpARY9/nhRMqseAjiXGPIExg1w7OK3OIGPNuIbGUA0PPu4UM8xALqzAIyEQcYoKFPyC9ul54gykRBICHWXyybi+ZKhBfE34gxIiytGzCLGSiEJIhTIMX+b//+7/Lj3/84wjPQM4TiQUNnS4/8cYdHzLP7jNPPxP1ySyPa625ZtSvbbbZOibUOfpNR5e3vuUt0TOjHrzxjUeFF1ku8ZVWXinKVOfkD486FqV2SLcGaCKRmPvohe76RO8iJaNHEO3WbuN1Xsx6RQmIqzIICBmWjxhZNZDo//2//xdkVfcuQuxTnLHBcv1b1LqikGWZKhBfkxz89Kc/jfPlL/6bv/mbmF5aXLJzhVIgAY43IljIxQ477BC5khOJBQm8uVE3Kzc2sKd5nJBig38MZNVgXL+S3Le99W0RSrHO2uuEl0ojcuNap4Qp7b///pUcH1bWWH2Ncu0110T2FmFO6mgna8WfY5R4jOJPJBKJxHxFEuOeAkMY5rfzdS6C4UVOzcAln6NsE0cffXT55je/Wf7jP/6jvPe97w2ii/i+XEvaee985zsjI4U0U8qV11i4BTLN68UD1jdUAnFACORCdq7Bfv0JdyLR86gi3Qmn6IyAr/+Fx7hDYP8cs+Fp8B1w4AHRCDRAT+7wL37xi+WXv/pVGXfXXWXqlKmRQ3XHHXaMqdE1GpdeZulorCo3co0O64QrtRHliUQikZh/SGLcQ+hQRSPX581rESfMW8t7xQi3wXc+EVeeLXg50srjvOeee8YnrLbaajGttJCKvuhfBsKw3XbbBWHILqzEAokq0xGr/9xz0XSV5cRgOTmM1VkhFOrSpptsWsnuMmXZuuy4004RTnTQgQfGwDuNRgNUhTXpPdGgfN9731fWWnutTr3QoKz/lDuzdFWJRKJ30RrP/dG2DbRvdtD3/JldKzFnSIbSQ5jhKZ4HBhFRZWwt1i08uQy1uOOWuuavwTHtePDJa6zctq0vWqW137WSFCeGEsi3uHtyLYZ4k003iV6X5yv5XW755coelRS/5+/eU/7m7W+PjC8yTfAIm3FKPTLgVfjRKiuvEvWHB1qZrY4mEom/Dg3W/jH5vqtP8xszq7vt/uakXjci3Oxq6ol5g2QpvYTGizsf8xwqaqtgiURi9hFGqWuYoqG5+BLhUbYt6lb9tE3DkKc4Qi/0Ci26WMdzXJdolC62aHiR7TdBQXz2M/SJRGJgaJj2dbqoWzIvtexJ11xzTeTUl/1Fvv5ZtXuOveGGG2LsQP9zjCkYO3ZsDDh3vb+G/o4jdXzcuHGRyrQvgXcdqVOFVzW0a/clwra1JTF3kcS4R9BXtOeloPc1ti/X2uxb0Wen8jmuXcPnzMpPJIYCyLuQClBn2jS2LxLgzj61ADmW7g0BVi0Q6cUqIXZMNFIdE9u6BjTrTiIxIMwoKaWoNIgyIvk877zzIh+/lKAWqRPl4pcm8aSTTopBrmeffXa56667ZqnRqScImf7ud78b5Li/TXz00Udjv+vfeeeds1RmXyDE7s99Ob/ZWBmbpHq0T8YoxNvg9kmTJsX+Zrdfzn4n5gxJjHsEId5dGZ9VEjo7YKgpBK1nSgX6Eljp2lRy2SosFItWq3tpFbAdL12bFvhNN90URr4vtHJvueWW2G/mvERiKKMZplZnZZNAdBHgmKa2bjOVdHiF66epoJ3jcHXy+eeaZ9h0tp3j7FNexhgnEgODDWJnkFI58hFi6UDNdmoG2euuuy5skexIsigdfvjh5aijjoqJdoyJ6e+97Q/1T9Ymk1Spt45HjHmgTzzxxLiGWWRdR2anH/3oR0Fwrf/mN7+JnP48yi+HNrMsu9tsLbCpbLUybEea2eNG6t0H3dHscZLjuY8kxj0EHqZaJTtf5gCtgvUFJXHttddGxVXZoGOgO95gXUymjEZ2tY6tI9FttHzfRd7iU045JZRS3/1gHyVFOWgRt+0+W0VOJHodVaLjrzUISfEMolplGYlt9adDhDvHOu6FarSGDzOJQCdrhXhjxiw8yrUsx804X3n1M2q+OsLg1SXqTd2eSCReCnXDoG8DXV//+teXt7zlLWXUqFExsBsR3m233SKHuAWQ2m222absvPPOZdttt400pDODsi3q7RVXXBEeW5mUnI+w2varX/2q/O///m857rjjwivNZsrh//Of/zxSl0p/yttrRtioxwPAdh5gA3YNgN9yyy1DH9AR7LN9fovxO8Yi8F6bhdYkWbfffnuQZcQ7beq8QRLjnsOcdY+ocAOdz3irbDzDKh+obFOnTg0yqxLzFLdcrCqnVrljLMqlYFREn2KjHE+BuF67plawuCuk2Hltu0/3kEj0OjryvGh4c4PYBlGVPu25aAg+U2X8ue72WGqd6HzWpR7TiDLW2+pGWxqawYwt3XXbWv2NY7vbE4nEi1BHhCWtu+66QVhN8fzQQw+VESNGlHe/+92RP9x2qUNNWqXOziqBbHWP7WPfhDUg4a6BoMrq9Pa3vz1Sj8rOxBaazOqzn/1s+djHPhZpTxHpvrn8BwLbyAGlXKRelif22e84+eSTyxlnnBHhH1/5ylfKv/3bv4WXGhGX/vHzn/98+drXvhbhI/ROYu4jmUoPgYcKZlaZXgkoBJVHmUhrI6uIr9btv//7v0cXlDgsLV+tUosuI91F3/72t6NCUjBAEVBKbVEWwuAarey2UGC2aWk3Mp5ILAjgHSa/SPCkybVBOeH+cvfdd8ei8fjE44+XB2pjcsKECeW+e+8tj/3psfLC891Bc6aNTiQS8wQanuwLsC96NjliEEx5wWU/amEK1k1CxfM6q1CW8Ay2U+5/5NVAPiEPxgUIxzjkkEMipz+PL4JulljXl5pRfnLr9s0MnFFihxFiE2+1mGI2WOw0x5OZNBFxi3XXMXeAtKeI/xprrJHOpnmEfKo9gqDEc8FB1BRGg4rTKg9Sq2KDljCye+utt4YC4UnmKdZi9Yn0Glxgn5azFnTzaDH+nYFD4iE7rXdl/eEPf4iuJZXaoqIj2W1AhBG+iUSvg3yTa/VmWjWwd955VzQcj+vGEF537bVhJE895ZQIOTq1brvt1tuCRKsLz1eCnEgk5i0QV0SSh1XsrUaruF/2Rj0VOohMIrDN7v01qPfjx4+Pei1sAiE2qE/YoHhihJZ+cC12UgiEmGXgbGIzm2NoZkC83RuPsYVuueqqq2Ibe7z66quHN1qO8w996EPl7//+72NGWmRY2MWHP/zh8IzvuOOOYYMTcx+L/ZNpy4YYGoFrAtpZ7+7sURioIwTh5ltuKSN32aVssMEG3crVltkHxYHoUh6tJWpAgZasXKtanxRHa0073qQDvLta4nKsHnrooRHHtfbaawc5Fots0APFwxNs0hBKwqxfWu72qeygDNenYCgVM95Z5gd4DLTCKbZ99tmn3ufKLx3MVFerdHS/JBIvovXc+P/pqVPLnaZOrw28s2pDDyEm4xqMYv3IOjlXX9erdUn3bUpVIjEwNDZb5ha45557ylln/T5mXTVJlHCFWQV7xK5dfvnlYePVTYRWiIF9ZmKVW1yZSy+99CyRSDaQjWTLWt59vadsidAI98jBY3C5ei+embfYuntxD67Dvjp/IIhbRuCFLwpl5J12r2yve91www3DRiPQri+e2D0YCChcRPnsmvJD38wiuWGjOa94qHfdddeY6AtMTtT40vxH42jdb3W9LYOJJMY9Avc49vZKjG++pewycuRcI8a6fXlvGXEVV6tWZVJxebcE82shq4xiqVS89dZbL85XkbReVXz3xyuMCCjvsssui0prIIPWuJaz2fOQbRVexf67v/u7mO0LtOh1AenWmh9IYpx4RagywlDIJEE6hldDxRCReY1WoRNka/p0qdmeLyutvHLIuO5V9UedSCQSA2NuEONm2xFD9qnF/nPw8A7LQvHqV786vK7idpFY3l3OHTbv5eD+Vl111QiJ2H///YNQI8LqNkcRR8/3vve9ILbuFbHlGGJr2FHeauTY/SDljXy2ewb2l4NIiATd4hpCL9hZ9pMtZqsRaIRbby69w/aaQVY57DobOzvhFEmMZx2pxXsIHaL2otJ4JUCGG1Q6ykCF1g2jIvDwquRG51pX6Xl+eY5VVJXZOfYrS2UClU8lVHkNNlCe460jBc7X6lWxXad5pG2jBAh6xhknZgYTXJARRpOSrl+CnPLezte/KvMG08Xn889XQ7pYGMrRVe7JfKReq9tUVXKuDqhfa9d64zc4B/qUOOh/nefY0Q1NP9iWSCyIoCcQUqEHvK2cNMIRkGB1FDnWeOVl5RCSMUImCZ5kIYQvB7oH+WS72EXeWo4fg+l4dNlDdQjRbhkpOJcMlEOKEWfeZuf1vVYjevQDW8r7zB7ybItJFhaBsLLN7DLSjZjLuGFmzJZmDqF929veFqEVnFGzSorBb4sltEHi5ZDasYfQEdc5ay0FuegaP0COGXBKhILQBSy0QViF4+Q0FuZwwgknlJ/85Ccx0I4SOffcc6MFTDk0qKxa6Aiy1jpvsQqOONjn2j613LWCg+BUONY+95JIDITnnns+5J9HJ+Skyo4MD4stutj8Xeq12z0guvIOL1flnKHcequtQtafm94hv3p1dt9ttzBY6lg7l7EasOxBWtRhdbHdH1IvJVwisaCCB9X4lW9961sxfqUNtjNg3KDyL3/5y7H84he/CKLK9rFvxr3wts4MzfbqWeVd5a3Vg4q0Isymdf/kJz9Z3vCGN4SHW3aKY445JkIOt9566/BS81YjtUhuX7Q6iBwLm3RfiDF7idTrabWPXW7hjLaz0W27T7/VduuviCskL/6rSGLcU+hS41ci7F04t7UiVUSVS+VT6YRCGAWr5aurR6tXa1gLW4tU5dYytqjgvMf946SUqYK2ysvoqqha8BahC1rK4qMMVHBti/Ncz7rjEom+iDAXssUA/PmF8GgicWrEfF268t357KyrI6tXI8ers/POO5UVVli+rFwN5dZbbR3bIi1TnFv/65bR/DK9sCxe79/EI02v6DqdHU9TItFLUL/kLEZM9VSK80VO3//+95ejjz46whLIupCFAw88sHzwgx+MnMfGxxgbI6xPvZ4Z2CdEmrPIoDsD4+Qm/uEPfxjhDbzSQgIRZWEPeoz0isocIZUbD69QDPv7ApEFXmX3Idc/J5UUbP/5n/8ZTinlA+Lr+oj/N77xjThWiAbvtFRt3//+94NYZy/svEFqxx4BA9b5b+6BchAqoUWtxYvs8m5RFio30qzyqlxILGjRUgxIdCOy/UExKdtxWtaUhspr1iGDHwwSMECJIvnqV78aMwJpIevuMr2mLqfWzRQkojGKxEIL8hSNrWo8xO9Or7Kp0fXcfF6ioVcbjdPqJ4+1Rp/MFMixurPtNtuW5VdYIXpOtthyyzDQ7p08O14YhjL8hoHKH5Sl24D1m6bX9eee70w0kkgsiGikl1f2Ax/4QJBhdZPDRyaHI488Mpw6enlsQ5yFH7z2ta8NIqs+vJzNaeUjvAiuuq7+O6/1CFlXhyzKUv/1GrlW3/jdvojemu6ncEVjboQsKo8DiudYWeqqe9D7qhw22jlss2Pcm6WVl5j7yMF3PYJ5kZXC70ZSTVdJcVAUWqu8wy3wX/cTciunokEK4rC0WhECsU5a31rmfUEJiO0S/K+VjOiKqVJOS5vjGF7p1j0EiDSyrVLzUvdVHp3fOvfg/nPw3YIDshohCMO6IQBVNi2LzufFNRkcC2Po030xUivWxuVTTz1ZJtw3oWy9zdbV0B4R8m/f8HqcT+j8jnpev7IHbaly7554jc2451mrk7YlEvMTZG5uZaVwrMHibIqBaUgqsin0wAQZjWxyDiHIekSlO+PdVc9nBuXqBTKexmQhzmEzOZaMmWHbeJFd1zHG07Tr+x1smfWZ2TTHs39INPuqh5azik3mwFI/cQEz973pTW+KayDnbLdt73vf+yJfM5LvXh0Pf82G9h18t9tuOfju5bBIfSBDzl1H6bf4G0tHSHv7Z7rfU049JbpTPvShY8o+e+/dFY62zD68WoMDeHG1fikMMVaf+9zngnjbp0LrtgEkFlEWK6WLCrlUIRl/JIFyETusnGOPPTbWVWr3LvZSy1bssvQ51ltXF0LOO40oN2WmRd9Ix7yAUA4ebN1nX/rSl8qmm23SIQV2Evn6SJMY9w54SeQAJYPeHdl9OeM1r8Fzrf4hlT7JuDrAYIljFHeowSUrhYF6jcirM+S6U3d7A4iIu0EU1FNebo1aXq9EYn5BnVY31K36Lf5dcOGF5eMf+/sIheDVHcjTOjOwKZww7BgbjywivQbcsXHknAeZTUNmeX/ZvZaRaSD0pUN0EseKeGa2S/3nLNK7KrexT5mXEE2xzK4h77C8/0gocq2eDQTXoSvA/XIaqZ9srOv83//7f8Nm8z67tgGGP/jBD4IY85A3fWNR1qzoG06rT33qU0GoP/KRD5fVVhtRX4Hp7Tsz2g6OzmocrfPc8YG2DCaSGPcI3O+pp51afv3rX5djKjE2405HUNsy62gVxacK18IkkG6kVYJwhp2B15qmYAApYfi1XMUiq7jIr7Ja15JtyK+WJwIjVRXyq8VLMYiJEn+lRWzwHkUncwWFMj+FPYnxggWhB7/5zYnlf//3f8uee+5RFf6wMBTNeAw2mh5Rn9RVhlUjT9aK2a2f8xvq3WKLLVqN/KO1obtaec97/i7q5bBh6TFOzD+wR3ODGDe7Jj4X6WXL2CxOHERR7+VnPvOZCFf4x3/8x6ivbJbwPg1DHtiWKak/lC01o95TBNXgOw1IziAEmG07++yzw2Z+5CMfCacRAi1O2HE8vJdcckn0Vh511FFxX/3BNokP5gHm0XY910VYEWGOo//4j/+I38K2ug+/ExnnEUfw3bvxDZxOs2pXkxjPOpIY9wjc7ymVqCKvxx57TBkzekxXUNsy62hCbvF6la3y8hwbTGAmHRUWESaAKrSYYq1SZFbcky4epNh5lABiLFQCcTfTkIwUr3vd62LyD95h5eheUoaKa7CDROmItn1awir17HgE5gRJjBcsPP74E9W4/Dx6ND7xiU+EwWE0eg3Ny6puketOHe1tuEe9Qgy6ev7Od74zSEPVFJ0DEon5ALZobhBjWSUMjuPkaSESSCtCzAnEHn3hC18Igkn3+yT/zjGIzXTO4o0H8hqr34jtT3/602iUs4XK5yhy/7y76pEyDbJDxtlIqdt4r+ktGZ2EiHz84x+P0Ir+cJ/sKE+3Ms1ipwcVaWdX3QPbZbCd62gENBvtd2qQy3gh+wWHFOI8K0hiPOvIGOMegXscO/a2mOBjt9pqfLFF25ZZR//fbyH44o21PMVMMYzIbgvmR2AlLefZ5alTAa2rrD4pLOu6iRBqrW7dVBSByowU8yLrzuLtVnEdT4nxTMsp6bim+FxjXoJSyxjjBQfk9eKLLwmjIUenHgdy2WuLrtG2kOeBjunVRcNWfTABgvrwwgud2P9EYn4B4ZmTGGN2DKFkq9geMcDsDEcIQmqMjNAD5Qql4KTh4GFvkGakF5meWQ5gthIJVjY7yStr3TbXkNoUWRVCyJvreOUgrois8TamdWZXpXYTTtEfQjmkPGUr3T+iqqwW4sGRxbvt3hF4TiwhFBYDDjmddt555/gNzulr718OGWM868i+tB5ByMWL+uIVowl4q/QUicV2CMVUvzfortHipUgMJlBBHatlLS2M9DAUCqLpXCTTSGAjf8VrgYqsy0mMqG4tpFgZFFIbJICU/9d//VeEWsg/2eKaEwlYdNHFQr7IDXlq8pqYe2i6wPOVoSKRWNDAtiGmGnfNAUNX8BIbG4Mka1wjk0in7eAYziCNbjO0NvvYH8pHghFiZQidcCyyjayyWwgrct3KcI7jOIsschzrSWULBwLyj9QKTTQo3u/pez/uFeGVOYrHGkG37jf77r6sO6/Z+pn9nsQrQz7NHkHf9pE8rq8UjfSqMK3SIL8NWs7tuy4aFV0rGCk26laF0xrlYRLDJaOFKTCN8uUp1uWj8ott0oWjfPFXoNWvsqrYrg1ap2KtVG4eK4P9KJkkPom+0DgjE03JN/lJzD0gxJ5txEYvlqmeEgse6AXOGx5bXtemM9g1HmceVSF79ovX5Zxp57FN9sssMTv6xbGuo5cIYXZ96GvDEHA2TpiS0Aie3r4TfPR1Rv01qJ96zPoP3BvIZg60LTHnSGLcS4i6+ufy5268zSsBJQHNM9QqpAokVrjvNmRY4P+JJ54YpFdXDeWi8iOzWqcGIYi2kVBczDAlgTS3Li95jnUd6WZyvm6n/tBCf8973hPxUBTWEUccEd3Q7iMrdgIaGSafSPLsGJLEX4fn2xrEnnGLlU4kFjSQ4zaupRFcdoSjhs3Sm8mO+d7fviDQfy1coz/UF9dDtIUxtBCE/uRa2X1Dl4Aum10Ip+CVRvz7giOrP/rfQ2LuIIlxD6HFvJr165VCRbE0Q9iIsm1irrR2VWxhD6bINDkH4vqOd7xjxmQF4Dhk9q1vfWt0C5lVSBdOUzSUDqItq4UwCTkZhUy06/eHsAv5F6Wa4UWGvootsXADEWYQfM7qYJK5gYEaZjNrrNned19bH+j4XiP27lFdY+Tphax2iQUVrb412wbNjvi03TE++x7zSqG+tGvOrr1quqzdE7TPBt/7b3M8At9XjzRCDgOdk5h7SGLcQ+hWvdmufLMCrVktXt08wiDEUfHc6vrhyRUz1bfbyfG6c9773veWz372s+Hp1Qruq2gQGeXwFIuZakpAhVWhW8VVnpgpZNso3kSiF0A+B6prM6t/tvfd19Znp4xEIjFn6Fu3ZtYAnRuEuC/61+dXQkz764tWht8wkL7QiH253zHQOYm5gyTGPYVGjec+VCIeYQTYiFmkVneTxaAERLg/tFgNIEB6ndO/kvqO8CLaresIXMu+vhXXumtaEolewLw0LPOy7ERiYUcjxPOznvW3Z6/k2v2JvDJaiFN/zIwUz6xBn5h7SGLcIwhK3G2A1nZkZ6WHMLuVtz9a69iSSPQCxNnOLDuKLCxtYpz+aDLsmL4T5PRFfzkXa2gCnEQiMedQ59QxY1sM5h4ItqujcwNzy3Y1QssbbN3A9YHu0bUG2je37iPx8khi3COI6tJtBM7J4Lt5BZVxTlqpzm1LItELMNWrGaj6E1uyLn2hfKmIc/+Bak2G77333pgwx6xa/UlvX+Nl3SxXYvETicScg6NGvZU/X73qTyB9V38tJsaY08Gmjcg2qNMzC+N4ObQyOJToDPmY6ZG+969sjfKmW/zOdi2f/QcnO76vvknMOZIY9xRUmirkg+gxnlklm1XPcCKxIICMM0gmnjEQ1XfGzyfDg8jKyCKVYTNEFsc0o8SjIyML42ZWqb4j0PvXF1lfGOlEIjFnUP+E5CGT6q/ZTVvvTrNfiLNGrdnxTjnllBkEc3ahLOdde+21Metdq+MI7kA2semJmaHtc777M1OsafANgjczrQHxv/zlL2P+gF/84hexz/ef//znse4Y++guuigxb5Bsp4fQaUvWCrfI4L0WFbZvyziRGGrgPeIRNoujGHkLIyt1oTzbZodkDOXdZlSRY14pJJiBtZ2BMzhVXlSGmfEyAcDMwiVck5FNJBJzBoS02SjkEllFEoVOtIar/cbGWP/Zz35WjjvuuGicSnlm6e9hnhmcj3SffPLJMaud+u1c17Run+u2sCwzyJpgZKDUaup/I7PKMAulcswRgBCbVOv0008vJ510UhBxg9nHjx9ffvzjH5dvfOMbQYoda0ZXjfn2DNJmz33klNA9Avd4W3dKaNkjNpiDKaETOSX0goZp06bP8Mq8+tWvjuwl80rZM2C6KYVRtFmskOKLL744DBPyywDxRjFkjB1SzPtkG4Moeb+0g/Yzus6Xw9sUsC27S18g4rp0zXY1GGDg/YZ2D8stt2x3TyIx/4DUzsmU0A3sJVKpDpvtTv5iuYZ5iul+Uz/r8UFQXcOx9iPHZmk1NkBd/Ws9oa6jvAsuuCB6kZBVvUMI69133x2LhjQybEKsX//61+W8884LwiwLU19d0DiJnib6RTkGrq+yyioxMF6OZBODmNiDbpHt6bDDDov7lP3JQHjfpUZtg+hnBzkl9KwjiXGPwD2OvW1sufmWW8pulRivn8R4jpDEeMHC/CLG5EJIAy8vI2y2Rx4fHhjGWerCfffdN+qj/N6f+cxnyuGHHx7Ty9o3atSomB2SMXZ/iDGDg2BLaWh2rYHAIJNFk+cMBpIYJ3oBc4MYq6t0u14cjVWTTFk0TtVFy3e+853wvCLG6rceIPuFPQlRQD7NkPfXyCU9oCH8q1/9qlx99dVRj13TtTWSxTjTW+qW3+LeHK98pBcJbXrMp8XYBiEUdAhdR584B2Gn9/RkOWa//faLxraZ+ugVZN5cAZ7VQFmk/hqSGM86khj3CCgLninEmOCbEKMjHG1JzA6SGC9YmNfEmA5gIHmYhD3w9DBIjAPvEqLMa6NBypjyAjHSyLFjHnjggfAW8dz49F19ZWx4qZznOAuPECPJuCGijCVDKi6QUWrbeKB0wZoFcl4jiXGiFzCnxJgcq3fCDniEEVOEEakk3+o4z7BeHzZUHn4TVGnUjhkzJhqmril8SiO3LzEeiBza1mwJkmqiK55cjWfnC6WymA6aJ9c+3/X68vD2T0+qfKlNeZPpgqYH/G73InWq6/lNPnm66RjEXlnu23ez1tJDs+M1TmI860hi3CNwj2Nvr8T45kqMR45MYjyHSGK8YGFeE2MGVdflCSecUM4999wgr8htG1zHqCG3DBDPEALZpmVFXoVYkCUhFO4Lwf7tb387g1TzADG4W2+9dcQat0EyZJDxtt92v0+Xq+8+XVu36Kx4yuYESYwTvYA5JcbqnmM0UNdZZ50Ii9p8882DmGrE8gIjfMIZeFmPOuqo8LKqt3SK84RF+NRbpKymZwbSN+wysq08ukCvkNAHBBUBVw7vsE/bLSuvvHJ4g2eW4tR257sPg+qQeDrEJ71CD95xxx2hL+gn23i6bbPuPNtd32+b2XX6I4nxrCMH3/UICOYLz79Q/lwNWKX13a2JOUE8U8/zzzMfJZxYOMAgMyS8PuL4kG+D58iHbthtttkmPLfIKuPTvMe8MuSI8WG8zj777PDmMIQMLw8PYsvzg3grj0eIt0hX6kYbbRTlOI5h9p0xs9+668yqYUskFjaoe/2BfO69994R3oRMq0PIHmcSsqueqevqVRvsphyL3iCkq2W16F9+/++OVY4GrMbs17/+9fK1r32tfOtb3yr//d//Xb797W+Xf//3f4/Bcda/+c1vRoMZYX85INv0hYY4/SCOWMiEBbn3O3i36Qi6gq6io6w7RygFHeT+6JzE3EV6jHsE7nN8N5B/110yxnhO0TzGSIxYrZVWXik9xj2Mee0xVhYvDUPDO6yrkwFiVBhahJm8CLPQVWsbsmtQDQOmu1NsoQF6PFWMFqPculDFL5I5vRO6SYVp8IIxcDy0SLfr69p17ZEjR5add945DF5fr9W8gt+ZHuPEYGN2PMbNhg8E28m0+siTKkYXUVSfnnjiiWjAitV1PdfQqFWvW1wygul6vL19MdD1XMe5bTIRA+v0OLWQBg1r666jB8nxdELf2WD7A9lWnswZvNmO9cnbjNT73jzP1ukt4Rv0iUYAvbPDDjvMeF6zoj/SYzzrSI9xj0B37dNPT62f00NIE3MGz5C3QEvfs00keIkYG4aGbAiZ4EESK8i4MZhiFRk4o8sN0vnP//zP8slPfrKcdtppYVQtCCa54jFmZJBeBrYZFyPRbUOuGWvGDdFniFzfObZZ5gcpTiSGAppOp8/VV5khNFwRVb0zGpvtOPs5mYRAaey2XMCyQSC36mNfEg7Nu9wXrT5r0H7xi18sX/jCF8qnPvWp8ulPf7p89rOfLZ/73Odi/fOf/3z5xCc+EdkxeHQ1kl8OiDFyK+5ZyJWUbFK2/aybWo6+MeDPff/whz8sxx9/fBBb4Rwa3xrm7sv9pX2b+0hi3CMg4MMWG1YWW3SxaHEmNZ4zxPOsRMiySG0RJxLAs3ThhRdGVyjjw6vEG8RTbeDMv/zLv5Q3velN4c19wxveEMaWoePRevvb314+8pGPlNGjRwcR7ktoGWMGaiAj1fb5TCQSswb1K2xht95oxKqnsk0gjLzFvMNIMQ8t0gjqmkFpyOO73vWuqLMf//jHy0c/+tFYV8cRUo3UvkBWW/1V5y3gPjSmhWq0pYVECZHiPaZXbHec8/rqhoFgv4azxjIS7zfydvMC82RbR7KVicD7nRoAoGEtlKI9F17xxNxFPtEeAREn6D4JevqQ5gwUT3TbVcX6wgs5Q1CiAwPoDFwRNiGe2EC8r3zlK2FsGTWD5xha4RAtNRtZMhDvH/7hH8JLpDtzoNHg4pH7e6EayKJGWiKRmDWEPaxLI5kIpN6aH/3oR1GHW+hEyx/eCKLj1U/hiBq08gNbNGgRYvXXeepjI5cNtvEcy1pjrIGBs7JfuK4GtAFxLd2j0C/xxGKNeXuFXPHiIq2zQlbdp54nhNdAYL1RvMdtOeecc2JAHu8zMtxXt7RnA6lX5j4WqQ/3pZIxBECwLQTPghwtskhv/0z3yIP105/+NDxWjLIKseiiBuYkTZ4VNGVBKeku+6//+q9ImfWVr/yfsvEmG5fF6vaQAiJfH2nGGPcOJk2aUn7wgx9EHfje974X3pJZMS6zC4aI0RM/3MIYeIkYNHGHPoVQMFTSPDHAH/vYx+LepHxqg/Gc1/fzX//1X6NcXarCKGwTK9g8O0i4WfV0yQ4G/O4TTzwxjK97WHNN3rUhp/oTPQz1AIl7LkIWquzVfxdceGH5+Mf+vhxzzDHlbW9724y4V2j1q4FOF+sv3MlxwiFMk4w0spnqHa8yAisEykC2D37wg3/hGe4Ldre/ntF4lg5Oz5J60+7BseC732Gfc4VeIekyYPBi2/+lL30p9Mlfg/tVH5VDv/Ba00t+uwWP8en30omu4/eC7X3R91kNBMRdGAhP90c+8uGy2moj6iv484xe6r92/rxB42id3+I5tGUwkcS4R0BZGDCAFNAYa6+1dlQ86JDjxKyAOPMQP//8C0FUeAY+8Q+fKJttumn3iEQvYn4QY7JBHzSVp+HJ2CKw1n3qBjX9q/hFoRSS+DMmDK1UTY5BpBHkBuU1Yiwe2WAgsY8mBtEVar9BOYgxQz0YSGKcGGyoB7NDjAeCMpp9F74gEwQC+rrXvS7Cm3hyyTnyaNC13p/ZnQyjhWwgvPQDnUEXNd2BvFpXp1r4BX0glEOssO9ij1375aAsv+EDH/hAXA9hdW5fj7Pf2Qi53+cZ6b2y3/kN7uevwQBh+kkYyIc/fGwS45fB4F49MQNEcq011yyjR40qr9r2VTFC1eCcFWsFX2EFg3tymZVFvmKxW+uuu07Zc689Y/Tt8svPfHRwYuECY8b4MAS8wkZpI+I+GQ4hFjwr4vx4pBBlBoiidg7CzCtkRHl/MKjOZ+R4nvuSZ8ZudpLxJxKJvwQShVyrT0ipOulTw9a6niB1VOYYeY1nlxSDuiuESsP2jW98YywayUceeWR8IuFHHHFErEv9yFNsG4Kuzrume5lViB/W4HbPQkKQet5vnzzEuIDy9F5pdPclxLOLwSG/Cx7SY9wjYHgZ4SeefCJa0u65GeQU5lnHC39+oTz/3PPx3BarCnRYVZorrbxy5IdO9C7mtcdYXdJFirQitYyrLlleXJ5eg14MuBM3yLCKJWakdKn+8z//cwzY0dUp0b+4v3e/+92xv5X95S9/ObzCBvzowhXTyDPTQi/EKjJs73vf++Kc+Y30GCcGG+rBnHqMG9hH3lw5hXlmeYd5X8Xm3nfffUFcxRfPLtxjX3vru6W/LnJ9qQ/NZilUgzNGL5E6pkGNTDf9MDMo1z1/6EMfClL9t3/7t/H7+94DToD4y6EsWwUirmzbHNcwKxxBw7+FUqTH+OWRHuMeAWVBSFdeaeVoIa5WK5fE5ausumpZobYac5m1ZcSqI6JLi6JabcSIssyyy5TnuiEpiYUXFL90R7paxQ6eeeaZ4WViZL773e+GIaWgDYThLW5xiQb2MLBItIF6zpUbW3l9wVBR5mbhOuSQQ2LSj74eY/sGx/AkEkMHyCCvsEamBq06JiuEAXF6fTjE1GWDaF8J+tdR3wciabYh5gbjCYGUBk56OAT9Na95TZDjWQWdI2zDID+9UXSMBrh1jW2DAOktRBxRTsx7JDHuERgYtvjwxaPCReutbuu05haNyp/LLCzDpGZbpAwbPmwGURlen6nviYUb5MEo9UMPPTS8veL6EFhdpkIrDI4zsEduUQN5dGEKfTDblOM1thgvk3SYGETXZ1+YNINBlISfp6i/gWWwBzKwiURi9mBWOb02sjYAoqwnSB097LDDovdnVj3PcwJ5zPUyccLImCEGuM1WR9/MKtguv0lPlVAJnzzRiD8vL8ItrSSd4tjEvEfOfNcjmHHP1XjGemyMf0GSE38dM55VXWldQ9OfM3I4By/2Oub1zHegG5fxYsgsyK+6hhTz/CC3UjrZ3sAQyVVqEJ1ZquQ1btNHN92C8CLDthsX0P++fedl5qE2GHQwoD7kzHeJwUY4fmqdadDYnNnMdwNBXUJ6EU+EUUNVXRS+pFE7L6ZYb7akP9wrPSI0oaWNcz+O798IDts+QBka5bJo0B1HH310EGvE3qIB3j7pFWEX4qaFjvQvf6Cy+6PvzHdm32yNh5z57i+RLowewQxh6ApoE4vBFY8FC+1ZNbJCQZk0ZUatSyyU4K0FctEXTU4QRV5hRqgNkOt7LHIsxzEjyEuEXDO+6mkzUAbsMNDtO9lrUBZvtbjjRCIxZ9DARQ7FJOulEXfLc6v+zQv0J6F9QQ8gw0KvGmF3f/0xENGzjd4QWyyki34RRknHtJkxI6yyLhoOJifxOxvxD57QXRJzF0mME4nEkEYzbP0NiO+MGMPD48vAQV9S29DXAPUn2AOhrzF1HqPd1xOdSCReGdQtDVW9SuqtT17Que0pnl/g5aYbZhYm4ffSTe13JuY9khgnEokhjf6EuD/sZ5TacQzRQOfY1rbPCjnuC+cN5ElKJBKzj1af1NvWe7OgQkiG3+I39NUr1luGLfA7F1Tyv6AhiXEikVho0CbNEdvXDE5/8Bj3NVDO8b3vtr6GuOVFHgh9DVsikZg3mBkxVi/Vv751t9fg/pr+6Ps7rDcyPLPfl5g3SGKcSCQWGjAwjJCco0a2m5SjLxhQeVANiDFYTpo2o98NWmsEuBkpxzpGOiXl9SfHBsvIG2xphDyRSMw7qI+tnrbP1gPUl4D2Etxb39Crhv6Ncehlgj+UkMQ4kUgMeTSDwgDJGyoTxa9//esyYcKE2N4gT+jVV19dfvvb38aEIOeff3755je/GeS2v2dYmWbP+9///d8gz4hwX8hEcdJJJ0XS/4FmykskEnMHCLFcv6eeemr51a9+VY4//viodyeccEIsv/zlL8vPf/7zyF8uDVovEeSZeYNt779vZscm5i6SGCcSiSENhLYZFGTW+mOPPRb5T5FZU7KaAc8kAX/84x8jZRyvMYIsnZR9jC4PMw9yS7KvHETbNpMM9DW21nmobJcf2T0kEolXDnVIXVMPLeqqz8svvzx6dC666KLymc98JkjwL37xi5hB0+Q9SLLvZrH86le/GhNp9BKS7PYekhgnEokhDTF6SKpwBkQWOUZuzVzFKCG9//M//1O+8pWvlG9/+9vl9NNPjxmnfvjDH8Zsd0j0KaecEobWlNW8zMpQpvRurfu2GTjhGQj3xIkT45oG1sghahIAXmjlNQ92IpGYNWhkynX+jW98I6ZoNw27aRh+9KMfRQ+Q+qZBuv/++5d3vetdkRvYDJRHHXVU+eAHP1hGjRoV9d9kGln/Ei+HJMaJRGLIAzlGUBFVxlPao/Zd/lH5QU3eYZKBddZZJ3KISqwvp6hcoyb4kOfYRAJSRSmDcUWu2+h4ZbVQjK997Wvl+9//fhDsyy67rHzrW98qn/70p8OgI+G8yIlE4uXRl8AuscQSkVrRJBgm3RESISzK9M/qKdIr9dmYMWPKwQcfHPXZRBYHHnhgTNW89957x3mOSyReDikhiURiSIMnl0eXR+n3v/99eH8NmDPt6oUXXhgeXsaUh4mBlWhf3mGfSLDk/Sb1MLPWAQccEDlHDc4Tz8iDzAMs3EJcstm4eJLFFyuX4eYt5qXy6bjzzjsv7iWRSLw8Wi8MgiyXr8bp+973vvI3f/M3MeOcOmmCjG233TYasEItxBEfd9xx5eKLL45GqhAK4wnUffvVz0Ti5ZDEOJFILBRAUsUOiyW2ILR33HFHhDgwmAbrIM2MMTJsYB0v1eabbx5E2JTKPM88w0Iixo0bN2OaZet33XVXbGe8//Ef/zFmqtpnn33KvvvuWz75yU+WL33pS+WII44Ib3Uz+IlE4q+j1RdhS4itT702emg0eq37FG6hwau+quu8yuqoxXZ1vW/O8kRiICQxTiQSQxqMpnAH4RDiDHWn8j4huWaT2nTTTctSSy0V4Q0Mp+28wowvI6p7VlaJltqNZ2r77bePaVxf//rXx5TSpns++uijIxTDuWbkWm+99YJYi0MWnuG66667bni/2gC+RCIxa1A3jQf4f//v/0UjFvE1kM76LbfcEmFN6vhBBx1UjjzyyLLnnntGw1Q95VUWUqG+q3sZY5x4OSQxTiQSCwWQ3DXWWCOMqEE8yK4QB95i3mQeJ94o6zy/PmWsYHAdh2A3CK1AcjfaaKMg0jzMiLBQjL7gmbIfGGNliHFEmBOJxKxDQ1U9VH8RZHVTY1Zdth305sgpLqRJjw8vsVSLeohs17jVCE6PceLlkMQ4kUgMabTBNghum4gDAeYJRpZtY2SRW3HGH/jAB8p73vOe8qEPfagcc8wx5Q1veEN4hU3d2heIbuvWRap5tJSl+xbZZrQZavuFW1gYat8dJ/xC3HEikfjr0BOjp8Yg1ne/+90RV2xQ3Xvf+94YkKdeS7X44x//OLLLnHHGGZFHXHaZ//zP/yw/+9nPgiRr8KbHOPFyWOyf5DsZYiD0Fq1CS2e9uzORSPQcpk2bHp4fhu3Vr351dHnOTa8OAisG2IA5GSeMbjfAzrXEEAt3uOqqqyJvsXRscqP6zjPF22T7VlttFdkr2n35ZGT/8Ic/RHmyWzDEZ599dkwMcumll8YgPwQYIZZSiicLcTY4T9wjQq37F0Gfl0AaWjw0kr/ccst29yQS8w8aqS/0IaXq1Vln/b7ssssuEYbUv/HZF85Vx9Rb9cbgOnXnNa95TdRF9UoDV3iTrBTq1MYbbxzfZadwrDAoYwC23HLLhS47hUY4XWWMg+fhWcKii3RSWM5NfTvraByt+62ut2UwkR7jRCKxUIAHV0wizxPPMOMq/EGM8frrrx8ZJ8QhCodAXB0vFlk6KNsRSmghFYxJizsWwyw8QniF3KkMr7AN5/NEK98o+t122y1iHpVlPyM/r0lxIjHUgDipv3pkrKt/Gq5vectbytvf/vaIM1YHeZXlNX7d614X+wx+VRcHm3glehtJjBOJxJAHQ8iri5DyIiG1iKz4XySYJxdJ5T3mFdY1q9vWp3MQacedddZZ4dkWDgE8UIwybzRPs/RRH/3oRyOdlAF5unoZZtuPPfbY8olPfCK6gh1jHRlvMciJRGLWoAdI3WthUXp8NDw1QmWkMAuecCZ18rrrrou0jLZrqGqQJjFOvBySGCcSiSEP3aYMJ8LaumyRY6EQDKjQCRNxCHeQZ9h3XbUMqu/WzYJnnYE1AMh3uYudjxgLAxGqwJMlbOGCCy4Isq3rVpexkAxGvH9GCtsSicTAaD00oO60uH3b1Tt10qewJ4vGK2IsnlgjVh1WV+UxVkfbDHmJxMyQMcaJRGLQMa9jjEHIgvg6kPifB1j6NqESskv4FAbB6+TaMk/YrvvVLFo8xzzIumKNgmeQGWHhGI6RGkpKNoYXyVaGWD7hEwyxWGOxx4i09G28XDA/PMaunzHGicHGK4kxbnpAjmINUpPqqEt6fNQ39l16RGETW2yxRdRRs1Yi0BrDYpDNeme/a6jTLxfLPFSRMcazjvQYJxKJhQpCHxgCoIAZWOSWUUWOW+yimEWeKcbb4DnGVDyyQTyO5QlmbI866qggxsItdNMatIfky6O6++67hyFqRh+R/slPfhIj588555zwIqf3KpH46+At1phVt6RaFKL0rne9KwbaIcDCJNRj07aroy2+XyNUY1adtb9vqsSmBxKJvkhinEgkFjqE56oS0r6eCd8NuJPDWOYKccFSuv3gBz8oX/ziF2NWPGEU9jO6ZrT7+7//+/g0oE9ZRsUz3nKlKqN5hYVU8E4fcsgh4fn61re+Vf75n/85uneFcyQSiZeHBqb4/8997nMxLbSeGPVTXeMN1ROjAdtiiw2MlaJRL0mr1z59N+slDLZnMtGbSGKcSCQWKjCGiHHzFiHEPMNm0hICwUMsdEKXq/AIXl8GVh7Uf/mXf4mUbw8++GB0RerKNQhImQixWEZElxdLOEiD/bzJUkchxwy6wYA80Mstt1z3qEQiMTPo6VlllVXCG9wIsXqpF+ZrX/ta+fKXvxwN2M9+9rPlX//1X6Oe/vrXv446a6Drxz72sfIP//AP5TOf+UzUc43YRGIgJDFOJBILHRDVFlIhblFow/HHH1/Gjx8fYQ9SPfH2MsAmE3jHO94RMceORaSR4Qbf+3qbhVQIo+Ax7gvHKM/U0Txe73//+yNrhe2JRGLW0Df8QR1Wz4RICJmQcUaD1lgBjVq9OUKehFHYJszCfj0+mSYxMTMsUoVsyAXZGOVtYfwsDM8ii2QsUSLRq5g0aUqELBhY873vfS9id+dWAn71v4VO+DRD3SWXXFLuuOOOMJ66VpFig+AM0jH4Txwi3UE9+uRN/t3vfhddsAbziD+2vYHnSso33bf2IdF99/cF3eR4hrllx5jZsXMLYqZPPPHEGKlvprA111yjbk2dmJh/IOeI7HORhaXKXv13wYUXlo9/7O9jhsm3ve1tMwaEzQ709hgX0JfKtLrb1qHv/lb35nW96yUYsPipT30q4rE//OFjy2qrjaiv4M9lsUUX63KkwXgWjaN13g393JbBRHqME4nEkEZTsk3x8/YKlTDVs7zFvLuf/OQno5v1sMMOC09xO7Z9mriDp5fn2Dn94RzeKN7iFm88MyDgCEAbGf9yxyYSiZeHRqz6xAvclr7frfff3xq+icRASGKcSCSGNPp6igBRNlpdzC8PFoIqbhH5fbnuVV5gaaGcA63c9sngGmSXSCQSiQUXSYwTicSQRn/v78xg/6x24Tm2f7kZK5xIJBILPpIYJxKJhQL9PcdzCuUhw40QD3ZcXCKRSCTmHKnJE4nEkEabcrmvx3hOvbvKVAYy3LfcRCKRSCzYSGKcSCSGNAaacnlOvbvKbOUmMU4kEomhgyTGiUQikUgkEolERRLjRCKRSCQSiUSiIolxIpFIJBKJRCJRkcQ4kUgkEolEIpGoSGKcSCQSCx1ywGCiFyCF4txNo5iYDeSjHxBJjBOJRE/gueeei6lbp02blpke5jI8z+nTp89ILze3czonEn8NTeaiZnfF77nnnq/bS3nmmWfK1KlTy9NPPz3j07Zc5nxpz/PZZ58NHTAjVSU90H0RoRNiLQGLVGEdcs9DjlGLl20hCIsskq89kehVTJ48tXznO98pl1xySfniF79Ydtxxx0iHph43MtfqclNZfUleWwba3qn/nVnt+m/vW3bb5nOoXdNzPP7448t9991X3v72t5cRI0aU4cP/Mo1dIjGvQBbVaZ/ksUpnre+Xlk9/6tNlhx12LDvttFNZcsklQ3ab/CbmDI0HmcZ+4sSJ5Ywzzii77LJL+djHPlJWWWWV8vwLz5dhiw2boTvmP5q+e1GntWUwkcQ4kUgMOp59dnr5wQ9+UE477bSy7777ljXXXDOUeX+F7Tu0ug1UWFNjA23vuw1md/tQuCZcffXVZaWVVip/93d/V9Zaa01HxPZEYn6gr2wiZIsusmgZN25c+elPf1br+vDaUBse+5Ai9rvVgcQrR9MJFs9Ub9zIkSPL6NF7leWWX6688PwLL3FAzH907i2J8XxAEuNEYsHCM89MK9ddd1254oorIpxC/V1iiSXis6GvqlKvG9r2vttgbmwfCtcEjYzJkyeXjTfeuIwZM6Y+46Xr1hf3JxLzGsiOcClEjE0eNnxYeeZpXf1P13r+QpC2RoracYk5Bz1goUs90xVWXKHqilKW7OpXukGIhc++OmP+IInxfIOXbfHAOw89iXEi0cvgHKKKxMQtvvjioagbMW4qqhG/Vqcb2nboq85a/bftlW73vX0uyNcEZXm2DKCinn/+udieSMwPLFLJzvRKfhdXryvxJZWLDx9eCfFzIZtktREi631lP/HKoO57lup8063PPutzeFl0sUXre+gQ42nT63sZvvggPPOOjkpiPB+QxDiRWLDQtBB1pEu1r2cp9lUihxaqz/CCjfVf92tsd9ifuwr2Jdvrsa38zvZGGLtl29Ip3J4Xt9dtnc2dwhbUayrQc1y0rjNAz1VCvEQ1kC+88KI3PpGY1yCL6vXwSsoQslivdZ3MNjJEhkNWY717YuIVQ/X3TD17g/D0xoVOrX/2CaXwrJ+rfGnYsMVm6JX5h46OSmI8H5DEOJFIJBKJRKKX0ZvEeHCvnkgkEolEIpFI9AiSGCcSiUQikUgkEhVJjBOJRCKRSCQSiYokxolEIpFIJBKJRMWQHHxnsJ2loTPKtfslkUgkEolEIjGoQD7/3KVqBuG1gXfWBxNDNitFJxNF5+F21q1lZopEIpFIJBKJwUcnI0XjalJ0JjGeB/BzBibGSYoTiUQikUgkegM4Woen4Wt9U7UNJjkessTYZ3uwkuentziRSCQSiUSiVyCP8Ytxro0cDyYphiEZSuEndeKKOw/Yev2l9nQOSCQSiUQikUgMIioxLp0ZD6F5iwcbQ5IYD4z5PQd4IpFIJBKJRGJgvBhK0UtYiIgxpMc4kUgkEolEYvDRe6QYFjJinEgkEolEIpFIDIzM7ptIJBKJRCKRSFQkMU4kEolEIpFIJCqSGCcSiUQikUgkEhVJjBOJRCKRSCQSiYokxolEIpFIJBKJREUS40QikUgkEolEoiKJcSKRSCQSiUQiUZHEOJFIJBKJRCKRqEhinEgkEolEIpFIVCQxTiQSiUQikUgkKpIYJxKJRCKRSCQSpZT/H3azSIulS6H3AAAAAElFTkSuQmCC;strokeWidth=2;fontStyle=1;rounded=0;whiteSpace=wrap;html=1;" vertex="1" parent="1">
          <mxGeometry x="335.32" y="190" width="869.37" height="580.4" as="geometry" />
        </mxCell>
        <mxCell id="_HgupfXg40LZJNDoUt4P-127" style="edgeStyle=orthogonalEdgeStyle;rounded=0;orthogonalLoop=1;jettySize=auto;html=1;exitX=1;exitY=0.25;exitDx=0;exitDy=0;entryX=0;entryY=0.5;entryDx=0;entryDy=0;strokeWidth=3;" edge="1" parent="1" source="_HgupfXg40LZJNDoUt4P-114" target="_HgupfXg40LZJNDoUt4P-115">
          <mxGeometry relative="1" as="geometry" />
        </mxCell>
        <mxCell id="_HgupfXg40LZJNDoUt4P-114" value="&lt;font style=&quot;font-size: 23px;&quot;&gt;查詢模塊&lt;/font&gt;" style="rounded=0;whiteSpace=wrap;html=1;" vertex="1" parent="1">
          <mxGeometry x="380" y="230" width="120" height="70" as="geometry" />
        </mxCell>
        <mxCell id="_HgupfXg40LZJNDoUt4P-115" value="&lt;font style=&quot;font-size: 23px;&quot;&gt;查詢模塊&lt;/font&gt;" style="rounded=0;whiteSpace=wrap;html=1;" vertex="1" parent="1">
          <mxGeometry x="680" y="210" width="120" height="80" as="geometry" />
        </mxCell>
        <mxCell id="_HgupfXg40LZJNDoUt4P-116" value="&lt;font style=&quot;font-size: 23px;&quot;&gt;退票模塊&lt;/font&gt;" style="rounded=0;whiteSpace=wrap;html=1;" vertex="1" parent="1">
          <mxGeometry x="1030" y="230" width="120" height="70" as="geometry" />
        </mxCell>
        <mxCell id="_HgupfXg40LZJNDoUt4P-117" value="&lt;font style=&quot;font-size: 23px;&quot;&gt;修改模塊&lt;/font&gt;" style="rounded=0;whiteSpace=wrap;html=1;" vertex="1" parent="1">
          <mxGeometry x="430" y="600" width="100" height="90" as="geometry" />
        </mxCell>
        <mxCell id="_HgupfXg40LZJNDoUt4P-118" value="&lt;font style=&quot;font-size: 23px;&quot;&gt;統計模塊&lt;/font&gt;" style="rounded=0;whiteSpace=wrap;html=1;" vertex="1" parent="1">
          <mxGeometry x="670" y="660" width="110" height="90" as="geometry" />
        </mxCell>
        <mxCell id="_HgupfXg40LZJNDoUt4P-119" value="&lt;font style=&quot;font-size: 23px;&quot;&gt;系統維護與管理&lt;/font&gt;" style="rounded=0;whiteSpace=wrap;html=1;" vertex="1" parent="1">
          <mxGeometry x="990" y="630" width="120" height="120" as="geometry" />
        </mxCell>
        <mxCell id="_HgupfXg40LZJNDoUt4P-134" style="edgeStyle=orthogonalEdgeStyle;rounded=0;orthogonalLoop=1;jettySize=auto;html=1;exitX=0.5;exitY=1;exitDx=0;exitDy=0;exitPerimeter=0;entryX=0.5;entryY=0;entryDx=0;entryDy=0;strokeWidth=3;" edge="1" parent="1" source="_HgupfXg40LZJNDoUt4P-121" target="_HgupfXg40LZJNDoUt4P-118">
          <mxGeometry relative="1" as="geometry" />
        </mxCell>
        <mxCell id="_HgupfXg40LZJNDoUt4P-121" value="&lt;font style=&quot;font-size: 23px;&quot;&gt;數據庫&lt;/font&gt;" style="shape=cylinder3;whiteSpace=wrap;html=1;boundedLbl=1;backgroundOutline=1;size=15;" vertex="1" parent="1">
          <mxGeometry x="660" y="380" width="140" height="130" as="geometry" />
        </mxCell>
        <mxCell id="_HgupfXg40LZJNDoUt4P-122" style="edgeStyle=orthogonalEdgeStyle;rounded=0;orthogonalLoop=1;jettySize=auto;html=1;exitX=0.5;exitY=0;exitDx=0;exitDy=0;entryX=0;entryY=1;entryDx=0;entryDy=-15;entryPerimeter=0;strokeWidth=3;" edge="1" parent="1" source="_HgupfXg40LZJNDoUt4P-117" target="_HgupfXg40LZJNDoUt4P-121">
          <mxGeometry relative="1" as="geometry" />
        </mxCell>
        <mxCell id="_HgupfXg40LZJNDoUt4P-123" value="&lt;font style=&quot;font-size: 20px;&quot;&gt;修改信息&lt;/font&gt;" style="text;html=1;strokeColor=none;fillColor=none;align=center;verticalAlign=middle;whiteSpace=wrap;rounded=0;" vertex="1" parent="1">
          <mxGeometry x="490" y="510" width="90" height="30" as="geometry" />
        </mxCell>
        <mxCell id="_HgupfXg40LZJNDoUt4P-124" style="edgeStyle=orthogonalEdgeStyle;rounded=0;orthogonalLoop=1;jettySize=auto;html=1;exitX=1;exitY=1;exitDx=0;exitDy=0;entryX=0;entryY=0;entryDx=0;entryDy=15;entryPerimeter=0;strokeWidth=3;" edge="1" parent="1" source="_HgupfXg40LZJNDoUt4P-114" target="_HgupfXg40LZJNDoUt4P-121">
          <mxGeometry relative="1" as="geometry">
            <Array as="points">
              <mxPoint x="510" y="300" />
              <mxPoint x="510" y="360" />
              <mxPoint x="660" y="360" />
            </Array>
          </mxGeometry>
        </mxCell>
        <mxCell id="_HgupfXg40LZJNDoUt4P-125" value="&lt;font style=&quot;font-size: 20px;&quot;&gt;時刻表&lt;/font&gt;" style="text;html=1;strokeColor=none;fillColor=none;align=center;verticalAlign=middle;whiteSpace=wrap;rounded=0;" vertex="1" parent="1">
          <mxGeometry x="510" y="370" width="90" height="30" as="geometry" />
        </mxCell>
        <mxCell id="_HgupfXg40LZJNDoUt4P-126" value="&lt;span style=&quot;font-size: 20px;&quot;&gt;車次 站點&lt;/span&gt;" style="text;html=1;strokeColor=none;fillColor=none;align=center;verticalAlign=middle;whiteSpace=wrap;rounded=0;" vertex="1" parent="1">
          <mxGeometry x="530" y="310" width="90" height="30" as="geometry" />
        </mxCell>
        <mxCell id="_HgupfXg40LZJNDoUt4P-129" value="&lt;font style=&quot;font-size: 20px;&quot;&gt;票價 票數&lt;/font&gt;" style="text;html=1;strokeColor=none;fillColor=none;align=center;verticalAlign=middle;whiteSpace=wrap;rounded=0;" vertex="1" parent="1">
          <mxGeometry x="530" y="210" width="90" height="30" as="geometry" />
        </mxCell>
        <mxCell id="_HgupfXg40LZJNDoUt4P-130" style="edgeStyle=orthogonalEdgeStyle;rounded=0;orthogonalLoop=1;jettySize=auto;html=1;exitX=0.5;exitY=1;exitDx=0;exitDy=0;entryX=0.5;entryY=0;entryDx=0;entryDy=0;entryPerimeter=0;strokeWidth=3;" edge="1" parent="1" source="_HgupfXg40LZJNDoUt4P-115" target="_HgupfXg40LZJNDoUt4P-121">
          <mxGeometry relative="1" as="geometry" />
        </mxCell>
        <mxCell id="_HgupfXg40LZJNDoUt4P-131" value="&lt;font style=&quot;font-size: 20px;&quot;&gt;票數&lt;/font&gt;" style="text;html=1;strokeColor=none;fillColor=none;align=center;verticalAlign=middle;whiteSpace=wrap;rounded=0;" vertex="1" parent="1">
          <mxGeometry x="760" y="300" width="20" height="70" as="geometry" />
        </mxCell>
        <mxCell id="_HgupfXg40LZJNDoUt4P-132" style="edgeStyle=orthogonalEdgeStyle;rounded=0;orthogonalLoop=1;jettySize=auto;html=1;exitX=0.25;exitY=1;exitDx=0;exitDy=0;entryX=1;entryY=0;entryDx=0;entryDy=40;entryPerimeter=0;strokeWidth=3;" edge="1" parent="1" source="_HgupfXg40LZJNDoUt4P-116" target="_HgupfXg40LZJNDoUt4P-121">
          <mxGeometry relative="1" as="geometry" />
        </mxCell>
        <mxCell id="_HgupfXg40LZJNDoUt4P-133" value="&lt;font style=&quot;font-size: 20px;&quot;&gt;車票信息&lt;/font&gt;" style="text;html=1;strokeColor=none;fillColor=none;align=center;verticalAlign=middle;whiteSpace=wrap;rounded=0;" vertex="1" parent="1">
          <mxGeometry x="960" y="310" width="90" height="30" as="geometry" />
        </mxCell>
        <mxCell id="_HgupfXg40LZJNDoUt4P-135" value="&lt;font style=&quot;font-size: 20px;&quot;&gt;已售車票&lt;/font&gt;" style="text;html=1;strokeColor=none;fillColor=none;align=center;verticalAlign=middle;whiteSpace=wrap;rounded=0;" vertex="1" parent="1">
          <mxGeometry x="734.36" y="540" width="30" height="100" as="geometry" />
        </mxCell>
        <mxCell id="_HgupfXg40LZJNDoUt4P-136" style="edgeStyle=orthogonalEdgeStyle;rounded=0;orthogonalLoop=1;jettySize=auto;html=1;exitX=0.25;exitY=0;exitDx=0;exitDy=0;entryX=1;entryY=0;entryDx=0;entryDy=90;entryPerimeter=0;strokeWidth=3;" edge="1" parent="1" source="_HgupfXg40LZJNDoUt4P-119" target="_HgupfXg40LZJNDoUt4P-121">
          <mxGeometry relative="1" as="geometry">
            <Array as="points">
              <mxPoint x="1020" y="490" />
              <mxPoint x="800" y="490" />
            </Array>
          </mxGeometry>
        </mxCell>
        <mxCell id="_HgupfXg40LZJNDoUt4P-137" value="&lt;font style=&quot;font-size: 20px;&quot;&gt;數據備份&lt;/font&gt;" style="text;html=1;strokeColor=none;fillColor=none;align=center;verticalAlign=middle;whiteSpace=wrap;rounded=0;" vertex="1" parent="1">
          <mxGeometry x="880" y="500" width="90" height="30" as="geometry" />
        </mxCell>
        <mxCell id="_HgupfXg40LZJNDoUt4P-138" value="&lt;span style=&quot;font-size: 20px;&quot;&gt;用戶權限管理&lt;/span&gt;" style="text;html=1;strokeColor=none;fillColor=none;align=center;verticalAlign=middle;whiteSpace=wrap;rounded=0;" vertex="1" parent="1">
          <mxGeometry x="870" y="580" width="130" height="30" as="geometry" />
        </mxCell>
      </root>
    </mxGraphModel>
  </diagram>
</mxfile>
